<?xml version="1.0" encoding="utf-8"?><svg xmlns="http://www.w3.org/2000/svg" id="gg-546" viewBox="0 0 360 208.33333333333334" height="550" width="825.0">
<style type="text/css"><![CDATA[#gg-546 .gg-axis-text {fill: #808080;font-size: 6px;} #gg-546 .gg-axis-text-x {} #gg-546 .gg-axis-ticks {stroke: #000000;} #gg-546 .gg-axis-title {fill: #000000;font-size: 8px;} #gg-546 .gg-legend-key {stroke: #EEEEEE;fill: #EEEEEE;stroke-width: 0.5;} #gg-546 .gg-legend-text {fill: #000000;font-size: 6px;} #gg-546 .gg-legend-title {fill: #000000;font-size: 8px;} #gg-546 .gg-panel-background {fill: #EEEEEE;} #gg-546 .gg-panel-border {} #gg-546 .gg-panel-grid {stroke: #FFFFFF;} #gg-546 .gg-panel-grid-major {stroke-width: 1;} #gg-546 .gg-panel-grid-minor {stroke-width: 0.5;} #gg-546 .gg-plot-background {fill: #FFFFFF;} #gg-546 .gg-plot-title {font-size: 10px;} #gg-546 .gg-text {font-family: Helvetica, Arial, sans-serif;} ]]></style><rect class="gg-plot-background" width="100%" height="100%"></rect><g transform="translate(50, 10)">
<rect x="0" y="0" height="153.33333333333334" width="220" class="gg-panel-background gg-panel-border"></rect>
<g opacity="1" transform="translate(0, 153.33333333333334)">
<line x2="220" class="gg-axis-line gg-axis-line-x"></line>
</g>
<g transform="translate(10,153.33333333333334)" font-size="10" text-anchor="middle">
<g opacity="1" transform="translate(189.71428571428572,0)">
<text y="11" class="gg-text gg-axis-text gg-axis-text-x" text-anchor="middle">suv</text>
</g>
<g opacity="1" transform="translate(160.14285714285714,0)">
<text y="11" class="gg-text gg-axis-text gg-axis-text-x" text-anchor="middle">subcompact</text>
</g>
<g opacity="1" transform="translate(130.57142857142858,0)">
<text y="11" class="gg-text gg-axis-text gg-axis-text-x" text-anchor="middle">pickup</text>
</g>
<g opacity="1" transform="translate(101.0,0)">
<text y="11" class="gg-text gg-axis-text gg-axis-text-x" text-anchor="middle">minivan</text>
</g>
<g opacity="1" transform="translate(71.42857142857143,0)">
<text y="11" class="gg-text gg-axis-text gg-axis-text-x" text-anchor="middle">midsize</text>
</g>
<g opacity="1" transform="translate(41.85714285714286,0)">
<text y="11" class="gg-text gg-axis-text gg-axis-text-x" text-anchor="middle">compact</text>
</g>
<g opacity="1" transform="translate(12.285714285714286,0)">
<text y="11" class="gg-text gg-axis-text gg-axis-text-x" text-anchor="middle">2seater</text>
</g>
<g opacity="1" transform="translate(189.71428571428572,0)">
<line y2="-153.33333333333334" class="gg-panel-grid gg-panel-grid-major"></line>
</g>
<g opacity="1" transform="translate(160.14285714285714,0)">
<line y2="-153.33333333333334" class="gg-panel-grid gg-panel-grid-major"></line>
</g>
<g opacity="1" transform="translate(130.57142857142858,0)">
<line y2="-153.33333333333334" class="gg-panel-grid gg-panel-grid-major"></line>
</g>
<g opacity="1" transform="translate(101.0,0)">
<line y2="-153.33333333333334" class="gg-panel-grid gg-panel-grid-major"></line>
</g>
<g opacity="1" transform="translate(71.42857142857143,0)">
<line y2="-153.33333333333334" class="gg-panel-grid gg-panel-grid-major"></line>
</g>
<g opacity="1" transform="translate(41.85714285714286,0)">
<line y2="-153.33333333333334" class="gg-panel-grid gg-panel-grid-major"></line>
</g>
<g opacity="1" transform="translate(12.285714285714286,0)">
<line y2="-153.33333333333334" class="gg-panel-grid gg-panel-grid-major"></line>
</g>
<g opacity="1" transform="translate(160.14285714285714,0)">
</g>
<g opacity="1" transform="translate(130.57142857142858,0)">
</g>
<g opacity="1" transform="translate(101.0,0)">
</g>
<g opacity="1" transform="translate(71.42857142857143,0)">
</g>
<g opacity="1" transform="translate(41.85714285714286,0)">
</g>
<g opacity="1" transform="translate(12.285714285714286,0)">
</g>
</g>
<g transform="translate(10,153.33333333333334)" font-size="10" text-anchor="middle">
<g opacity="1" transform="translate(189.71428571428572,0)">
<line y2="2" class="gg-axis-ticks gg-axis-ticks-x"></line>
</g>
<g opacity="1" transform="translate(160.14285714285714,0)">
<line y2="2" class="gg-axis-ticks gg-axis-ticks-x"></line>
</g>
<g opacity="1" transform="translate(130.57142857142858,0)">
<line y2="2" class="gg-axis-ticks gg-axis-ticks-x"></line>
</g>
<g opacity="1" transform="translate(101.0,0)">
<line y2="2" class="gg-axis-ticks gg-axis-ticks-x"></line>
</g>
<g opacity="1" transform="translate(71.42857142857143,0)">
<line y2="2" class="gg-axis-ticks gg-axis-ticks-x"></line>
</g>
<g opacity="1" transform="translate(41.85714285714286,0)">
<line y2="2" class="gg-axis-ticks gg-axis-ticks-x"></line>
</g>
<g opacity="1" transform="translate(12.285714285714286,0)">
<line y2="2" class="gg-axis-ticks gg-axis-ticks-x"></line>
</g>
</g>
<text x="110.0" y="188.33333333333334" class="gg-text gg-axis-title" text-anchor="middle">class</text>
<g transform="translate(0, 0)">
<line y2="153.33333333333334" class="gg-axis-line gg-axis-line-y"></line>
</g>
<g transform="translate(0, 0)" font-size="10" text-anchor="end">
<g opacity="1" transform="translate(0,10.0)">
<text x="-11" dy="0.32em" class="gg-text gg-axis-text gg-axis-text-y">50.0</text>
</g>
<g opacity="1" transform="translate(0,43.33333333333334)">
<text x="-11" dy="0.32em" class="gg-text gg-axis-text gg-axis-text-y">40.0</text>
</g>
<g opacity="1" transform="translate(0,76.66666666666667)">
<text x="-11" dy="0.32em" class="gg-text gg-axis-text gg-axis-text-y">30.0</text>
</g>
<g opacity="1" transform="translate(0,110.0)">
<text x="-11" dy="0.32em" class="gg-text gg-axis-text gg-axis-text-y">20.0</text>
</g>
<g opacity="1" transform="translate(0,143.33333333333334)">
<text x="-11" dy="0.32em" class="gg-text gg-axis-text gg-axis-text-y">10.0</text>
</g>
<g opacity="1" transform="translate(0,10.0)">
<line x2="220" class="gg-panel-grid gg-panel-grid-major"></line>
</g>
<g opacity="1" transform="translate(0,43.33333333333334)">
<line x2="220" class="gg-panel-grid gg-panel-grid-major"></line>
</g>
<g opacity="1" transform="translate(0,76.66666666666667)">
<line x2="220" class="gg-panel-grid gg-panel-grid-major"></line>
</g>
<g opacity="1" transform="translate(0,110.0)">
<line x2="220" class="gg-panel-grid gg-panel-grid-major"></line>
</g>
<g opacity="1" transform="translate(0,143.33333333333334)">
<line x2="220" class="gg-panel-grid gg-panel-grid-major"></line>
</g>
<g opacity="1" transform="translate(0,43.33333333333334)">
<line x2="220" class="gg-panel-grid gg-panel-grid-minor" transform="translate(0, -16.666666666666668)"></line>
</g>
<g opacity="1" transform="translate(0,76.66666666666667)">
<line x2="220" class="gg-panel-grid gg-panel-grid-minor" transform="translate(0, -16.666666666666668)"></line>
</g>
<g opacity="1" transform="translate(0,110.0)">
<line x2="220" class="gg-panel-grid gg-panel-grid-minor" transform="translate(0, -16.666666666666668)"></line>
</g>
<g opacity="1" transform="translate(0,143.33333333333334)">
<line x2="220" class="gg-panel-grid gg-panel-grid-minor" transform="translate(0, -16.666666666666668)"></line>
</g>
</g>
<g transform="translate(0, 0)" font-size="10" text-anchor="end">
<g opacity="1" transform="translate(0,10.0)">
<line x2="-2" class="gg-axis-ticks gg-axis-ticks-y"></line>
</g>
<g opacity="1" transform="translate(0,43.33333333333334)">
<line x2="-2" class="gg-axis-ticks gg-axis-ticks-y"></line>
</g>
<g opacity="1" transform="translate(0,76.66666666666667)">
<line x2="-2" class="gg-axis-ticks gg-axis-ticks-y"></line>
</g>
<g opacity="1" transform="translate(0,110.0)">
<line x2="-2" class="gg-axis-ticks gg-axis-ticks-y"></line>
</g>
<g opacity="1" transform="translate(0,143.33333333333334)">
<line x2="-2" class="gg-axis-ticks gg-axis-ticks-y"></line>
</g>
</g>
<text x="-73.33333333333333" y="-40" class="gg-text gg-axis-title" text-anchor="middle" transform="rotate(-90)">hwy</text>
<rect x="10.0" y="90.0" width="24.571428571428573" height="6.666666666666667" fill="white" fill-opacity="1" stroke="#FAE622" stroke-width="0.5"></rect>
<line x1="10.0" x2="34.57142857142857" y1="93.33333333333334" y2="93.33333333333334" stroke="#FAE622"></line>
<line x1="22.285714285714285" x2="22.285714285714285" y1="90.0" y2="90.0" stroke="#FAE622" stroke-width="0.5"></line>
<line x1="22.285714285714285" x2="22.285714285714285" y1="96.66666666666669" y2="100.0" stroke="#FAE622" stroke-width="0.5"></line>
<rect x="51.857142857142854" y="76.66666666666667" width="12.285714285714286" height="11.666666666666666" fill="white" fill-opacity="1" stroke="#208F8C" stroke-width="0.5"></rect>
<line x1="51.857142857142854" x2="64.14285714285714" y1="80.0" y2="80.0" stroke="#208F8C"></line>
<line x1="58.0" x2="58.0" y1="76.66666666666667" y2="60.000000000000014" stroke="#208F8C" stroke-width="0.5"></line>
<line x1="58.0" x2="58.0" y1="88.33333333333334" y2="100.0" stroke="#208F8C" stroke-width="0.5"></line>
<svg xmlns="http://www.w3.org/2000/svg" viewBox="0 0 10 10" x="55.5" y="50.833333333333336" height="5.0" width="5.0">
<circle cx="5" cy="5" r="4" fill="#208F8C"></circle>
</svg><svg xmlns="http://www.w3.org/2000/svg" viewBox="0 0 10 10" x="55.5" y="27.5" height="5.0" width="5.0">
<circle cx="5" cy="5" r="4" fill="#208F8C"></circle>
</svg><rect x="39.57142857142857" y="86.66666666666669" width="12.285714285714286" height="6.666666666666667" fill="white" fill-opacity="1" stroke="#440154" stroke-width="0.5"></rect>
<line x1="39.57142857142857" x2="51.857142857142854" y1="93.33333333333334" y2="93.33333333333334" stroke="#440154"></line>
<line x1="45.714285714285715" x2="45.714285714285715" y1="86.66666666666669" y2="83.33333333333334" stroke="#440154" stroke-width="0.5"></line>
<line x1="45.714285714285715" x2="45.714285714285715" y1="93.33333333333334" y2="93.33333333333334" stroke="#440154" stroke-width="0.5"></line>
<rect x="81.42857142857143" y="80.0" width="12.285714285714286" height="10.0" fill="white" fill-opacity="1" stroke="#208F8C" stroke-width="0.5"></rect>
<line x1="81.42857142857143" x2="93.71428571428572" y1="86.66666666666669" y2="86.66666666666669" stroke="#208F8C"></line>
<line x1="87.57142857142857" x2="87.57142857142857" y1="80.0" y2="70.0" stroke="#208F8C" stroke-width="0.5"></line>
<line x1="87.57142857142857" x2="87.57142857142857" y1="90.0" y2="93.33333333333334" stroke="#208F8C" stroke-width="0.5"></line>
<rect x="69.14285714285714" y="95.0" width="12.285714285714286" height="3.3333333333333335" fill="white" fill-opacity="1" stroke="#440154" stroke-width="0.5"></rect>
<line x1="69.14285714285714" x2="81.42857142857143" y1="96.66666666666669" y2="96.66666666666669" stroke="#440154"></line>
<line x1="75.28571428571428" x2="75.28571428571428" y1="95.0" y2="93.33333333333334" stroke="#440154" stroke-width="0.5"></line>
<line x1="75.28571428571428" x2="75.28571428571428" y1="98.33333333333334" y2="100.0" stroke="#440154" stroke-width="0.5"></line>
<rect x="98.71428571428572" y="96.66666666666669" width="24.571428571428573" height="6.666666666666667" fill="white" fill-opacity="1" stroke="#208F8C" stroke-width="0.5"></rect>
<line x1="98.71428571428572" x2="123.28571428571429" y1="100.0" y2="100.0" stroke="#208F8C"></line>
<line x1="111.00000000000001" x2="111.00000000000001" y1="96.66666666666669" y2="96.66666666666669" stroke="#208F8C" stroke-width="0.5"></line>
<line x1="111.00000000000001" x2="111.00000000000001" y1="103.33333333333334" y2="106.66666666666667" stroke="#208F8C" stroke-width="0.5"></line>
<svg xmlns="http://www.w3.org/2000/svg" viewBox="0 0 10 10" x="108.50000000000001" y="117.5" height="5.0" width="5.0">
<circle cx="5" cy="5" r="4" fill="#208F8C"></circle>
</svg><rect x="128.28571428571428" y="116.66666666666667" width="24.571428571428573" height="6.666666666666667" fill="white" fill-opacity="1" stroke="#440154" stroke-width="0.5"></rect>
<line x1="128.28571428571428" x2="152.85714285714286" y1="120.00000000000001" y2="120.00000000000001" stroke="#440154"></line>
<line x1="140.57142857142856" x2="140.57142857142856" y1="116.66666666666667" y2="110.0" stroke="#440154" stroke-width="0.5"></line>
<line x1="140.57142857142856" x2="140.57142857142856" y1="123.33333333333334" y2="126.66666666666667" stroke="#440154" stroke-width="0.5"></line>
<svg xmlns="http://www.w3.org/2000/svg" viewBox="0 0 10 10" x="138.07142857142856" y="134.16666666666669" height="5.0" width="5.0">
<circle cx="5" cy="5" r="4" fill="#440154"></circle>
</svg><svg xmlns="http://www.w3.org/2000/svg" viewBox="0 0 10 10" x="138.07142857142856" y="134.16666666666669" height="5.0" width="5.0">
<circle cx="5" cy="5" r="4" fill="#440154"></circle>
</svg><svg xmlns="http://www.w3.org/2000/svg" viewBox="0 0 10 10" x="138.07142857142856" y="134.16666666666669" height="5.0" width="5.0">
<circle cx="5" cy="5" r="4" fill="#440154"></circle>
</svg><svg xmlns="http://www.w3.org/2000/svg" viewBox="0 0 10 10" x="138.07142857142856" y="100.83333333333333" height="5.0" width="5.0">
<circle cx="5" cy="5" r="4" fill="#440154"></circle>
</svg><rect x="174.23809523809524" y="93.33333333333334" width="8.190476190476192" height="10.0" fill="white" fill-opacity="1" stroke="#FAE622" stroke-width="0.5"></rect>
<line x1="174.23809523809524" x2="182.42857142857144" y1="100.0" y2="100.0" stroke="#FAE622"></line>
<line x1="178.33333333333334" x2="178.33333333333334" y1="93.33333333333334" y2="90.0" stroke="#FAE622" stroke-width="0.5"></line>
<line x1="178.33333333333334" x2="178.33333333333334" y1="103.33333333333334" y2="110.0" stroke="#FAE622" stroke-width="0.5"></line>
<rect x="166.04761904761907" y="67.50000000000001" width="8.190476190476192" height="18.333333333333332" fill="white" fill-opacity="1" stroke="#208F8C" stroke-width="0.5"></rect>
<line x1="166.04761904761907" x2="174.23809523809527" y1="80.0" y2="80.0" stroke="#208F8C"></line>
<line x1="170.14285714285717" x2="170.14285714285717" y1="67.50000000000001" y2="40.000000000000014" stroke="#208F8C" stroke-width="0.5"></line>
<line x1="170.14285714285717" x2="170.14285714285717" y1="85.83333333333334" y2="96.66666666666669" stroke="#208F8C" stroke-width="0.5"></line>
<svg xmlns="http://www.w3.org/2000/svg" viewBox="0 0 10 10" x="167.64285714285717" y="27.5" height="5.0" width="5.0">
<circle cx="5" cy="5" r="4" fill="#208F8C"></circle>
</svg><rect x="157.85714285714286" y="90.0" width="8.190476190476192" height="0.0" fill="white" fill-opacity="1" stroke="#440154" stroke-width="0.5"></rect>
<line x1="157.85714285714286" x2="166.04761904761907" y1="90.0" y2="90.0" stroke="#440154"></line>
<line x1="161.95238095238096" x2="161.95238095238096" y1="90.0" y2="90.0" stroke="#440154" stroke-width="0.5"></line>
<line x1="161.95238095238096" x2="161.95238095238096" y1="90.0" y2="90.0" stroke="#440154" stroke-width="0.5"></line>
<rect x="199.71428571428572" y="116.66666666666667" width="12.285714285714286" height="3.3333333333333335" fill="white" fill-opacity="1" stroke="#FAE622" stroke-width="0.5"></rect>
<line x1="199.71428571428572" x2="212.0" y1="120.00000000000001" y2="120.00000000000001" stroke="#FAE622"></line>
<line x1="205.85714285714286" x2="205.85714285714286" y1="116.66666666666667" y2="116.66666666666667" stroke="#FAE622" stroke-width="0.5"></line>
<line x1="205.85714285714286" x2="205.85714285714286" y1="120.00000000000001" y2="123.33333333333334" stroke="#FAE622" stroke-width="0.5"></line>
<svg xmlns="http://www.w3.org/2000/svg" viewBox="0 0 10 10" x="203.35714285714286" y="124.16666666666667" height="5.0" width="5.0">
<circle cx="5" cy="5" r="4" fill="#FAE622"></circle>
</svg><svg xmlns="http://www.w3.org/2000/svg" viewBox="0 0 10 10" x="203.35714285714286" y="107.5" height="5.0" width="5.0">
<circle cx="5" cy="5" r="4" fill="#FAE622"></circle>
</svg><svg xmlns="http://www.w3.org/2000/svg" viewBox="0 0 10 10" x="203.35714285714286" y="107.5" height="5.0" width="5.0">
<circle cx="5" cy="5" r="4" fill="#FAE622"></circle>
</svg><rect x="187.42857142857144" y="113.33333333333334" width="12.285714285714286" height="6.666666666666667" fill="white" fill-opacity="1" stroke="#440154" stroke-width="0.5"></rect>
<line x1="187.42857142857144" x2="199.71428571428572" y1="116.66666666666667" y2="116.66666666666667" stroke="#440154"></line>
<line x1="193.57142857142858" x2="193.57142857142858" y1="113.33333333333334" y2="103.33333333333334" stroke="#440154" stroke-width="0.5"></line>
<line x1="193.57142857142858" x2="193.57142857142858" y1="120.00000000000001" y2="130.0" stroke="#440154" stroke-width="0.5"></line>
<svg xmlns="http://www.w3.org/2000/svg" viewBox="0 0 10 10" x="191.07142857142858" y="134.16666666666669" height="5.0" width="5.0">
<circle cx="5" cy="5" r="4" fill="#440154"></circle>
</svg><svg xmlns="http://www.w3.org/2000/svg" viewBox="0 0 10 10" x="191.07142857142858" y="134.16666666666669" height="5.0" width="5.0">
<circle cx="5" cy="5" r="4" fill="#440154"></circle>
</svg><svg xmlns="http://www.w3.org/2000/svg" viewBox="0 0 10 10" x="191.07142857142858" y="97.5" height="5.0" width="5.0">
<circle cx="5" cy="5" r="4" fill="#440154"></circle>
</svg><svg xmlns="http://www.w3.org/2000/svg" viewBox="0 0 10 10" x="191.07142857142858" y="94.16666666666667" height="5.0" width="5.0">
<circle cx="5" cy="5" r="4" fill="#440154"></circle>
</svg><svg xmlns="http://www.w3.org/2000/svg" viewBox="0 0 10 10" x="191.07142857142858" y="90.83333333333333" height="5.0" width="5.0">
<circle cx="5" cy="5" r="4" fill="#440154"></circle>
</svg><svg xmlns="http://www.w3.org/2000/svg" viewBox="0 0 10 10" x="191.07142857142858" y="90.83333333333333" height="5.0" width="5.0">
<circle cx="5" cy="5" r="4" fill="#440154"></circle>
</svg><svg xmlns="http://www.w3.org/2000/svg" viewBox="0 0 10 10" x="191.07142857142858" y="87.5" height="5.0" width="5.0">
<circle cx="5" cy="5" r="4" fill="#440154"></circle>
</svg><svg xmlns="http://www.w3.org/2000/svg" viewBox="0 0 10 10" x="191.07142857142858" y="84.16666666666667" height="5.0" width="5.0">
<circle cx="5" cy="5" r="4" fill="#440154"></circle>
</svg></g>
<g transform="translate(275, 64.16666666666667)">
<g transform="translate(0, 0)">
<text x="0" y="-5" class="gg-text gg-legend-title" text-anchor="left">drv</text>
<rect x="0" y="0" height="15" width="15" class="gg-legend-key"></rect>
<line x1="7.5" x2="7.5" y1="2" y2="4" stroke="#440154"></line>
<line x1="7.5" x2="7.5" y1="13" y2="11" stroke="#440154"></line>
<rect x="2" y="4" width="11" height="7" stroke="#440154" fill="white"></rect>
<line x1="2" x2="13" y1="7.5" y2="7.5" stroke="#440154"></line>
<text x="20" y="10" class="gg-text gg-legend-text" text-anchor="left">4</text>
<rect x="0" y="15" height="15" width="15" class="gg-legend-key"></rect>
<line x1="7.5" x2="7.5" y1="17" y2="19" stroke="#208F8C"></line>
<line x1="7.5" x2="7.5" y1="28" y2="26" stroke="#208F8C"></line>
<rect x="2" y="19" width="11" height="7" stroke="#208F8C" fill="white"></rect>
<line x1="2" x2="13" y1="22.5" y2="22.5" stroke="#208F8C"></line>
<text x="20" y="25" class="gg-text gg-legend-text" text-anchor="left">f</text>
<rect x="0" y="30" height="15" width="15" class="gg-legend-key"></rect>
<line x1="7.5" x2="7.5" y1="32" y2="34" stroke="#FAE622"></line>
<line x1="7.5" x2="7.5" y1="43" y2="41" stroke="#FAE622"></line>
<rect x="2" y="34" width="11" height="7" stroke="#FAE622" fill="white"></rect>
<line x1="2" x2="13" y1="37.5" y2="37.5" stroke="#FAE622"></line>
<text x="20" y="40" class="gg-text gg-legend-text" text-anchor="left">r</text>
</g>
</g>
</svg>