<?xml version="1.0" encoding="utf-8"?><svg xmlns="http://www.w3.org/2000/svg" id="gg-610" viewBox="0 0 280 208.33333333333334" height="550" width="825.0">
<style type="text/css"><![CDATA[#gg-610 .gg-axis-text {fill: #808080;font-size: 6px;} #gg-610 .gg-axis-text-x {} #gg-610 .gg-axis-ticks {stroke: #000000;} #gg-610 .gg-axis-title {fill: #000000;font-size: 8px;} #gg-610 .gg-legend-key {stroke: #EEEEEE;fill: #EEEEEE;stroke-width: 0.5;} #gg-610 .gg-legend-text {fill: #000000;font-size: 6px;} #gg-610 .gg-legend-title {fill: #000000;font-size: 8px;} #gg-610 .gg-panel-background {fill: #EEEEEE;} #gg-610 .gg-panel-border {} #gg-610 .gg-panel-grid {stroke: #FFFFFF;} #gg-610 .gg-panel-grid-major {stroke-width: 1;} #gg-610 .gg-panel-grid-minor {stroke-width: 0.5;} #gg-610 .gg-plot-background {fill: #FFFFFF;} #gg-610 .gg-plot-title {font-size: 10px;} #gg-610 .gg-text {font-family: Helvetica, Arial, sans-serif;} ]]></style><rect class="gg-plot-background" width="100%" height="100%"></rect><g transform="translate(50, 10)">
<rect x="0" y="0" height="153.33333333333334" width="220" class="gg-panel-background gg-panel-border"></rect>
<g opacity="1" transform="translate(0, 153.33333333333334)">
<line x2="220" class="gg-axis-line gg-axis-line-x"></line>
</g>
<g transform="translate(10,153.33333333333334)" font-size="10" text-anchor="middle">
<g opacity="1" transform="translate(200.0,0)">
<text y="11" class="gg-text gg-axis-text gg-axis-text-x" text-anchor="middle">6.0</text>
</g>
<g opacity="1" transform="translate(160.0,0)">
<text y="11" class="gg-text gg-axis-text gg-axis-text-x" text-anchor="middle">5.0</text>
</g>
<g opacity="1" transform="translate(120.0,0)">
<text y="11" class="gg-text gg-axis-text gg-axis-text-x" text-anchor="middle">4.0</text>
</g>
<g opacity="1" transform="translate(80.0,0)">
<text y="11" class="gg-text gg-axis-text gg-axis-text-x" text-anchor="middle">3.0</text>
</g>
<g opacity="1" transform="translate(40.0,0)">
<text y="11" class="gg-text gg-axis-text gg-axis-text-x" text-anchor="middle">2.0</text>
</g>
<g opacity="1" transform="translate(0.0,0)">
<text y="11" class="gg-text gg-axis-text gg-axis-text-x" text-anchor="middle">1.0</text>
</g>
<g opacity="1" transform="translate(200.0,0)">
<line y2="-153.33333333333334" class="gg-panel-grid gg-panel-grid-major"></line>
</g>
<g opacity="1" transform="translate(160.0,0)">
<line y2="-153.33333333333334" class="gg-panel-grid gg-panel-grid-major"></line>
</g>
<g opacity="1" transform="translate(120.0,0)">
<line y2="-153.33333333333334" class="gg-panel-grid gg-panel-grid-major"></line>
</g>
<g opacity="1" transform="translate(80.0,0)">
<line y2="-153.33333333333334" class="gg-panel-grid gg-panel-grid-major"></line>
</g>
<g opacity="1" transform="translate(40.0,0)">
<line y2="-153.33333333333334" class="gg-panel-grid gg-panel-grid-major"></line>
</g>
<g opacity="1" transform="translate(0.0,0)">
<line y2="-153.33333333333334" class="gg-panel-grid gg-panel-grid-major"></line>
</g>
<g opacity="1" transform="translate(160.0,0)">
<line y2="-153.33333333333334" class="gg-panel-grid gg-panel-grid-minor" transform="translate(20.0, 0)"></line>
</g>
<g opacity="1" transform="translate(120.0,0)">
<line y2="-153.33333333333334" class="gg-panel-grid gg-panel-grid-minor" transform="translate(20.0, 0)"></line>
</g>
<g opacity="1" transform="translate(80.0,0)">
<line y2="-153.33333333333334" class="gg-panel-grid gg-panel-grid-minor" transform="translate(20.0, 0)"></line>
</g>
<g opacity="1" transform="translate(40.0,0)">
<line y2="-153.33333333333334" class="gg-panel-grid gg-panel-grid-minor" transform="translate(20.0, 0)"></line>
</g>
<g opacity="1" transform="translate(0.0,0)">
<line y2="-153.33333333333334" class="gg-panel-grid gg-panel-grid-minor" transform="translate(20.0, 0)"></line>
</g>
</g>
<g transform="translate(10,153.33333333333334)" font-size="10" text-anchor="middle">
<g opacity="1" transform="translate(200.0,0)">
<line y2="2" class="gg-axis-ticks gg-axis-ticks-x"></line>
</g>
<g opacity="1" transform="translate(160.0,0)">
<line y2="2" class="gg-axis-ticks gg-axis-ticks-x"></line>
</g>
<g opacity="1" transform="translate(120.0,0)">
<line y2="2" class="gg-axis-ticks gg-axis-ticks-x"></line>
</g>
<g opacity="1" transform="translate(80.0,0)">
<line y2="2" class="gg-axis-ticks gg-axis-ticks-x"></line>
</g>
<g opacity="1" transform="translate(40.0,0)">
<line y2="2" class="gg-axis-ticks gg-axis-ticks-x"></line>
</g>
<g opacity="1" transform="translate(0.0,0)">
<line y2="2" class="gg-axis-ticks gg-axis-ticks-x"></line>
</g>
</g>
<text x="110.0" y="188.33333333333334" class="gg-text gg-axis-title" text-anchor="middle">wt</text>
<g transform="translate(0, 0)">
<line y2="153.33333333333334" class="gg-axis-line gg-axis-line-y"></line>
</g>
<g transform="translate(0, 0)" font-size="10" text-anchor="end">
<g opacity="1" transform="translate(0,10.0)">
<text x="-11" dy="0.32em" class="gg-text gg-axis-text gg-axis-text-y">37.5</text>
</g>
<g opacity="1" transform="translate(0,43.33333333333334)">
<text x="-11" dy="0.32em" class="gg-text gg-axis-text gg-axis-text-y">30.0</text>
</g>
<g opacity="1" transform="translate(0,76.66666666666667)">
<text x="-11" dy="0.32em" class="gg-text gg-axis-text gg-axis-text-y">22.5</text>
</g>
<g opacity="1" transform="translate(0,110.0)">
<text x="-11" dy="0.32em" class="gg-text gg-axis-text gg-axis-text-y">15.0</text>
</g>
<g opacity="1" transform="translate(0,143.33333333333334)">
<text x="-11" dy="0.32em" class="gg-text gg-axis-text gg-axis-text-y">7.5</text>
</g>
<g opacity="1" transform="translate(0,10.0)">
<line x2="220" class="gg-panel-grid gg-panel-grid-major"></line>
</g>
<g opacity="1" transform="translate(0,43.33333333333334)">
<line x2="220" class="gg-panel-grid gg-panel-grid-major"></line>
</g>
<g opacity="1" transform="translate(0,76.66666666666667)">
<line x2="220" class="gg-panel-grid gg-panel-grid-major"></line>
</g>
<g opacity="1" transform="translate(0,110.0)">
<line x2="220" class="gg-panel-grid gg-panel-grid-major"></line>
</g>
<g opacity="1" transform="translate(0,143.33333333333334)">
<line x2="220" class="gg-panel-grid gg-panel-grid-major"></line>
</g>
<g opacity="1" transform="translate(0,43.33333333333334)">
<line x2="220" class="gg-panel-grid gg-panel-grid-minor" transform="translate(0, -16.666666666666668)"></line>
</g>
<g opacity="1" transform="translate(0,76.66666666666667)">
<line x2="220" class="gg-panel-grid gg-panel-grid-minor" transform="translate(0, -16.666666666666668)"></line>
</g>
<g opacity="1" transform="translate(0,110.0)">
<line x2="220" class="gg-panel-grid gg-panel-grid-minor" transform="translate(0, -16.666666666666668)"></line>
</g>
<g opacity="1" transform="translate(0,143.33333333333334)">
<line x2="220" class="gg-panel-grid gg-panel-grid-minor" transform="translate(0, -16.666666666666668)"></line>
</g>
</g>
<g transform="translate(0, 0)" font-size="10" text-anchor="end">
<g opacity="1" transform="translate(0,10.0)">
<line x2="-2" class="gg-axis-ticks gg-axis-ticks-y"></line>
</g>
<g opacity="1" transform="translate(0,43.33333333333334)">
<line x2="-2" class="gg-axis-ticks gg-axis-ticks-y"></line>
</g>
<g opacity="1" transform="translate(0,76.66666666666667)">
<line x2="-2" class="gg-axis-ticks gg-axis-ticks-y"></line>
</g>
<g opacity="1" transform="translate(0,110.0)">
<line x2="-2" class="gg-axis-ticks gg-axis-ticks-y"></line>
</g>
<g opacity="1" transform="translate(0,143.33333333333334)">
<line x2="-2" class="gg-axis-ticks gg-axis-ticks-y"></line>
</g>
</g>
<text x="-73.33333333333333" y="-40" class="gg-text gg-axis-title" text-anchor="middle" transform="rotate(-90)">mpg</text>
<svg xmlns="http://www.w3.org/2000/svg" viewBox="0 0 10 10" x="72.3" y="80.83333333333333" height="5.0" width="5.0">
<circle cx="5" cy="5" r="4" fill-opacity="1" fill="red"></circle>
</svg><svg xmlns="http://www.w3.org/2000/svg" viewBox="0 0 10 10" x="82.5" y="80.83333333333333" height="5.0" width="5.0">
<circle cx="5" cy="5" r="4" fill-opacity="1" fill="red"></circle>
</svg><svg xmlns="http://www.w3.org/2000/svg" viewBox="0 0 10 10" x="60.29999999999999" y="72.83333333333333" height="5.0" width="5.0">
<circle cx="5" cy="5" r="4" fill-opacity="1" fill="red"></circle>
</svg><svg xmlns="http://www.w3.org/2000/svg" viewBox="0 0 10 10" x="96.1" y="79.05555555555556" height="5.0" width="5.0">
<circle cx="5" cy="5" r="4" fill-opacity="1" fill="red"></circle>
</svg><svg xmlns="http://www.w3.org/2000/svg" viewBox="0 0 10 10" x="105.1" y="91.05555555555556" height="5.0" width="5.0">
<circle cx="5" cy="5" r="4" fill-opacity="1" fill="red"></circle>
</svg><svg xmlns="http://www.w3.org/2000/svg" viewBox="0 0 10 10" x="105.9" y="93.72222222222221" height="5.0" width="5.0">
<circle cx="5" cy="5" r="4" fill-opacity="1" fill="red"></circle>
</svg><svg xmlns="http://www.w3.org/2000/svg" viewBox="0 0 10 10" x="110.3" y="110.6111111111111" height="5.0" width="5.0">
<circle cx="5" cy="5" r="4" fill-opacity="1" fill="red"></circle>
</svg><svg xmlns="http://www.w3.org/2000/svg" viewBox="0 0 10 10" x="95.1" y="65.72222222222223" height="5.0" width="5.0">
<circle cx="5" cy="5" r="4" fill-opacity="1" fill="red"></circle>
</svg><svg xmlns="http://www.w3.org/2000/svg" viewBox="0 0 10 10" x="93.5" y="72.83333333333333" height="5.0" width="5.0">
<circle cx="5" cy="5" r="4" fill-opacity="1" fill="red"></circle>
</svg><svg xmlns="http://www.w3.org/2000/svg" viewBox="0 0 10 10" x="105.1" y="88.83333333333334" height="5.0" width="5.0">
<circle cx="5" cy="5" r="4" fill-opacity="1" fill="red"></circle>
</svg><svg xmlns="http://www.w3.org/2000/svg" viewBox="0 0 10 10" x="105.1" y="95.05555555555554" height="5.0" width="5.0">
<circle cx="5" cy="5" r="4" fill-opacity="1" fill="red"></circle>
</svg><svg xmlns="http://www.w3.org/2000/svg" viewBox="0 0 10 10" x="130.3" y="101.27777777777779" height="5.0" width="5.0">
<circle cx="5" cy="5" r="4" fill-opacity="1" fill="red"></circle>
</svg><svg xmlns="http://www.w3.org/2000/svg" viewBox="0 0 10 10" x="116.7" y="97.27777777777777" height="5.0" width="5.0">
<circle cx="5" cy="5" r="4" fill-opacity="1" fill="red"></circle>
</svg><svg xmlns="http://www.w3.org/2000/svg" viewBox="0 0 10 10" x="118.69999999999999" y="106.61111111111113" height="5.0" width="5.0">
<circle cx="5" cy="5" r="4" fill-opacity="1" fill="red"></circle>
</svg><svg xmlns="http://www.w3.org/2000/svg" viewBox="0 0 10 10" x="177.5" y="127.94444444444446" height="5.0" width="5.0">
<circle cx="5" cy="5" r="4" fill-opacity="1" fill="red"></circle>
</svg><svg xmlns="http://www.w3.org/2000/svg" viewBox="0 0 10 10" x="184.46" y="127.94444444444446" height="5.0" width="5.0">
<circle cx="5" cy="5" r="4" fill-opacity="1" fill="red"></circle>
</svg><svg xmlns="http://www.w3.org/2000/svg" viewBox="0 0 10 10" x="181.3" y="108.83333333333333" height="5.0" width="5.0">
<circle cx="5" cy="5" r="4" fill-opacity="1" fill="red"></circle>
</svg><svg xmlns="http://www.w3.org/2000/svg" viewBox="0 0 10 10" x="55.50000000000001" y="30.16666666666667" height="5.0" width="5.0">
<circle cx="5" cy="5" r="4" fill-opacity="1" fill="red"></circle>
</svg><svg xmlns="http://www.w3.org/2000/svg" viewBox="0 0 10 10" x="32.1" y="39.05555555555556" height="5.0" width="5.0">
<circle cx="5" cy="5" r="4" fill-opacity="1" fill="red"></circle>
</svg><svg xmlns="http://www.w3.org/2000/svg" viewBox="0 0 10 10" x="40.9" y="23.5" height="5.0" width="5.0">
<circle cx="5" cy="5" r="4" fill-opacity="1" fill="red"></circle>
</svg><svg xmlns="http://www.w3.org/2000/svg" viewBox="0 0 10 10" x="66.1" y="78.61111111111111" height="5.0" width="5.0">
<circle cx="5" cy="5" r="4" fill-opacity="1" fill="red"></circle>
</svg><svg xmlns="http://www.w3.org/2000/svg" viewBox="0 0 10 10" x="108.3" y="105.27777777777777" height="5.0" width="5.0">
<circle cx="5" cy="5" r="4" fill-opacity="1" fill="red"></circle>
</svg><svg xmlns="http://www.w3.org/2000/svg" viewBox="0 0 10 10" x="104.89999999999999" y="106.61111111111113" height="5.0" width="5.0">
<circle cx="5" cy="5" r="4" fill-opacity="1" fill="red"></circle>
</svg><svg xmlns="http://www.w3.org/2000/svg" viewBox="0 0 10 10" x="121.1" y="115.05555555555554" height="5.0" width="5.0">
<circle cx="5" cy="5" r="4" fill-opacity="1" fill="red"></circle>
</svg><svg xmlns="http://www.w3.org/2000/svg" viewBox="0 0 10 10" x="121.30000000000001" y="88.83333333333334" height="5.0" width="5.0">
<circle cx="5" cy="5" r="4" fill-opacity="1" fill="red"></circle>
</svg><svg xmlns="http://www.w3.org/2000/svg" viewBox="0 0 10 10" x="44.9" y="52.833333333333336" height="5.0" width="5.0">
<circle cx="5" cy="5" r="4" fill-opacity="1" fill="red"></circle>
</svg><svg xmlns="http://www.w3.org/2000/svg" viewBox="0 0 10 10" x="53.10000000000001" y="58.61111111111111" height="5.0" width="5.0">
<circle cx="5" cy="5" r="4" fill-opacity="1" fill="red"></circle>
</svg><svg xmlns="http://www.w3.org/2000/svg" viewBox="0 0 10 10" x="28.019999999999996" y="39.05555555555556" height="5.0" width="5.0">
<circle cx="5" cy="5" r="4" fill-opacity="1" fill="red"></circle>
</svg><svg xmlns="http://www.w3.org/2000/svg" viewBox="0 0 10 10" x="94.3" y="103.94444444444444" height="5.0" width="5.0">
<circle cx="5" cy="5" r="4" fill-opacity="1" fill="red"></circle>
</svg><svg xmlns="http://www.w3.org/2000/svg" viewBox="0 0 10 10" x="78.3" y="86.61111111111111" height="5.0" width="5.0">
<circle cx="5" cy="5" r="4" fill-opacity="1" fill="red"></circle>
</svg><svg xmlns="http://www.w3.org/2000/svg" viewBox="0 0 10 10" x="110.3" y="107.5" height="5.0" width="5.0">
<circle cx="5" cy="5" r="4" fill-opacity="1" fill="red"></circle>
</svg><svg xmlns="http://www.w3.org/2000/svg" viewBox="0 0 10 10" x="78.7" y="79.05555555555556" height="5.0" width="5.0">
<circle cx="5" cy="5" r="4" fill-opacity="1" fill="red"></circle>
</svg></g>
</svg>