<?xml version="1.0" encoding="utf-8"?><svg xmlns="http://www.w3.org/2000/svg" id="gg-291" viewBox="0 0 280 208.33333333333334" height="550" width="825.0">
<style type="text/css"><![CDATA[#gg-291 .gg-axis-text {fill: #808080;font-size: 6px;} #gg-291 .gg-axis-text-x {} #gg-291 .gg-axis-ticks {stroke: #000000;} #gg-291 .gg-axis-title {fill: #000000;font-size: 8px;} #gg-291 .gg-legend-key {stroke: #EEEEEE;fill: #EEEEEE;stroke-width: 0.5;} #gg-291 .gg-legend-text {fill: #000000;font-size: 6px;} #gg-291 .gg-legend-title {fill: #000000;font-size: 8px;} #gg-291 .gg-panel-background {fill: #EEEEEE;} #gg-291 .gg-panel-border {} #gg-291 .gg-panel-grid {stroke: #FFFFFF;} #gg-291 .gg-panel-grid-major {stroke-width: 1;} #gg-291 .gg-panel-grid-minor {stroke-width: 0.5;} #gg-291 .gg-plot-background {fill: #FFFFFF;} #gg-291 .gg-plot-title {font-size: 10px;} #gg-291 .gg-text {font-family: Helvetica, Arial, sans-serif;} ]]></style><rect class="gg-plot-background" width="100%" height="100%"></rect><g transform="translate(50, 10)">
<rect x="0" y="0" height="153.33333333333334" width="220" class="gg-panel-background gg-panel-border"></rect>
<g opacity="1" transform="translate(0, 153.33333333333334)">
<line x2="220" class="gg-axis-line gg-axis-line-x"></line>
</g>
<g transform="translate(10,153.33333333333334)" font-size="10" text-anchor="middle">
<g opacity="1" transform="translate(200.0,0)">
<text y="11" class="gg-text gg-axis-text gg-axis-text-x" text-anchor="middle">6.0</text>
</g>
<g opacity="1" transform="translate(160.0,0)">
<text y="11" class="gg-text gg-axis-text gg-axis-text-x" text-anchor="middle">5.0</text>
</g>
<g opacity="1" transform="translate(120.0,0)">
<text y="11" class="gg-text gg-axis-text gg-axis-text-x" text-anchor="middle">4.0</text>
</g>
<g opacity="1" transform="translate(80.0,0)">
<text y="11" class="gg-text gg-axis-text gg-axis-text-x" text-anchor="middle">3.0</text>
</g>
<g opacity="1" transform="translate(40.0,0)">
<text y="11" class="gg-text gg-axis-text gg-axis-text-x" text-anchor="middle">2.0</text>
</g>
<g opacity="1" transform="translate(0.0,0)">
<text y="11" class="gg-text gg-axis-text gg-axis-text-x" text-anchor="middle">1.0</text>
</g>
<g opacity="1" transform="translate(200.0,0)">
<line y2="-153.33333333333334" class="gg-panel-grid gg-panel-grid-major"></line>
</g>
<g opacity="1" transform="translate(160.0,0)">
<line y2="-153.33333333333334" class="gg-panel-grid gg-panel-grid-major"></line>
</g>
<g opacity="1" transform="translate(120.0,0)">
<line y2="-153.33333333333334" class="gg-panel-grid gg-panel-grid-major"></line>
</g>
<g opacity="1" transform="translate(80.0,0)">
<line y2="-153.33333333333334" class="gg-panel-grid gg-panel-grid-major"></line>
</g>
<g opacity="1" transform="translate(40.0,0)">
<line y2="-153.33333333333334" class="gg-panel-grid gg-panel-grid-major"></line>
</g>
<g opacity="1" transform="translate(0.0,0)">
<line y2="-153.33333333333334" class="gg-panel-grid gg-panel-grid-major"></line>
</g>
<g opacity="1" transform="translate(160.0,0)">
<line y2="-153.33333333333334" class="gg-panel-grid gg-panel-grid-minor" transform="translate(20.0, 0)"></line>
</g>
<g opacity="1" transform="translate(120.0,0)">
<line y2="-153.33333333333334" class="gg-panel-grid gg-panel-grid-minor" transform="translate(20.0, 0)"></line>
</g>
<g opacity="1" transform="translate(80.0,0)">
<line y2="-153.33333333333334" class="gg-panel-grid gg-panel-grid-minor" transform="translate(20.0, 0)"></line>
</g>
<g opacity="1" transform="translate(40.0,0)">
<line y2="-153.33333333333334" class="gg-panel-grid gg-panel-grid-minor" transform="translate(20.0, 0)"></line>
</g>
<g opacity="1" transform="translate(0.0,0)">
<line y2="-153.33333333333334" class="gg-panel-grid gg-panel-grid-minor" transform="translate(20.0, 0)"></line>
</g>
</g>
<g transform="translate(10,153.33333333333334)" font-size="10" text-anchor="middle">
<g opacity="1" transform="translate(200.0,0)">
<line y2="2" class="gg-axis-ticks gg-axis-ticks-x"></line>
</g>
<g opacity="1" transform="translate(160.0,0)">
<line y2="2" class="gg-axis-ticks gg-axis-ticks-x"></line>
</g>
<g opacity="1" transform="translate(120.0,0)">
<line y2="2" class="gg-axis-ticks gg-axis-ticks-x"></line>
</g>
<g opacity="1" transform="translate(80.0,0)">
<line y2="2" class="gg-axis-ticks gg-axis-ticks-x"></line>
</g>
<g opacity="1" transform="translate(40.0,0)">
<line y2="2" class="gg-axis-ticks gg-axis-ticks-x"></line>
</g>
<g opacity="1" transform="translate(0.0,0)">
<line y2="2" class="gg-axis-ticks gg-axis-ticks-x"></line>
</g>
</g>
<text x="110.0" y="188.33333333333334" class="gg-text gg-axis-title" text-anchor="middle">wt</text>
<g transform="translate(0, 0)">
<line y2="153.33333333333334" class="gg-axis-line gg-axis-line-y"></line>
</g>
<g transform="translate(0, 0)" font-size="10" text-anchor="end">
<g opacity="1" transform="translate(0,10.0)">
<text x="-11" dy="0.32em" class="gg-text gg-axis-text gg-axis-text-y">37.5</text>
</g>
<g opacity="1" transform="translate(0,43.33333333333334)">
<text x="-11" dy="0.32em" class="gg-text gg-axis-text gg-axis-text-y">30.0</text>
</g>
<g opacity="1" transform="translate(0,76.66666666666667)">
<text x="-11" dy="0.32em" class="gg-text gg-axis-text gg-axis-text-y">22.5</text>
</g>
<g opacity="1" transform="translate(0,110.0)">
<text x="-11" dy="0.32em" class="gg-text gg-axis-text gg-axis-text-y">15.0</text>
</g>
<g opacity="1" transform="translate(0,143.33333333333334)">
<text x="-11" dy="0.32em" class="gg-text gg-axis-text gg-axis-text-y">7.5</text>
</g>
<g opacity="1" transform="translate(0,10.0)">
<line x2="220" class="gg-panel-grid gg-panel-grid-major"></line>
</g>
<g opacity="1" transform="translate(0,43.33333333333334)">
<line x2="220" class="gg-panel-grid gg-panel-grid-major"></line>
</g>
<g opacity="1" transform="translate(0,76.66666666666667)">
<line x2="220" class="gg-panel-grid gg-panel-grid-major"></line>
</g>
<g opacity="1" transform="translate(0,110.0)">
<line x2="220" class="gg-panel-grid gg-panel-grid-major"></line>
</g>
<g opacity="1" transform="translate(0,143.33333333333334)">
<line x2="220" class="gg-panel-grid gg-panel-grid-major"></line>
</g>
<g opacity="1" transform="translate(0,43.33333333333334)">
<line x2="220" class="gg-panel-grid gg-panel-grid-minor" transform="translate(0, -16.666666666666668)"></line>
</g>
<g opacity="1" transform="translate(0,76.66666666666667)">
<line x2="220" class="gg-panel-grid gg-panel-grid-minor" transform="translate(0, -16.666666666666668)"></line>
</g>
<g opacity="1" transform="translate(0,110.0)">
<line x2="220" class="gg-panel-grid gg-panel-grid-minor" transform="translate(0, -16.666666666666668)"></line>
</g>
<g opacity="1" transform="translate(0,143.33333333333334)">
<line x2="220" class="gg-panel-grid gg-panel-grid-minor" transform="translate(0, -16.666666666666668)"></line>
</g>
</g>
<g transform="translate(0, 0)" font-size="10" text-anchor="end">
<g opacity="1" transform="translate(0,10.0)">
<line x2="-2" class="gg-axis-ticks gg-axis-ticks-y"></line>
</g>
<g opacity="1" transform="translate(0,43.33333333333334)">
<line x2="-2" class="gg-axis-ticks gg-axis-ticks-y"></line>
</g>
<g opacity="1" transform="translate(0,76.66666666666667)">
<line x2="-2" class="gg-axis-ticks gg-axis-ticks-y"></line>
</g>
<g opacity="1" transform="translate(0,110.0)">
<line x2="-2" class="gg-axis-ticks gg-axis-ticks-y"></line>
</g>
<g opacity="1" transform="translate(0,143.33333333333334)">
<line x2="-2" class="gg-axis-ticks gg-axis-ticks-y"></line>
</g>
</g>
<text x="-73.33333333333333" y="-40" class="gg-text gg-axis-title" text-anchor="middle" transform="rotate(-90)">mpg</text>
<svg xmlns="http://www.w3.org/2000/svg" viewBox="-1 -1 11 11" x="71.97905208226122" y="80.51238541559455" height="5.641895835477563" width="5.641895835477563">
<circle cx="5" cy="5" r="4" fill-opacity="1" fill="red"></circle>
</svg><svg xmlns="http://www.w3.org/2000/svg" viewBox="-1 -1 11 11" x="82.17905208226122" y="80.51238541559455" height="5.641895835477563" width="5.641895835477563">
<circle cx="5" cy="5" r="4" fill-opacity="1" fill="red"></circle>
</svg><svg xmlns="http://www.w3.org/2000/svg" viewBox="-1 -1 11 11" x="59.979052082261205" y="72.51238541559455" height="5.641895835477563" width="5.641895835477563">
<circle cx="5" cy="5" r="4" fill-opacity="1" fill="red"></circle>
</svg><svg xmlns="http://www.w3.org/2000/svg" viewBox="-1 -1 11 11" x="95.77905208226122" y="78.73460763781678" height="5.641895835477563" width="5.641895835477563">
<circle cx="5" cy="5" r="4" fill-opacity="1" fill="red"></circle>
</svg><svg xmlns="http://www.w3.org/2000/svg" viewBox="-1 -1 11 11" x="104.77905208226122" y="90.73460763781678" height="5.641895835477563" width="5.641895835477563">
<circle cx="5" cy="5" r="4" fill-opacity="1" fill="red"></circle>
</svg><svg xmlns="http://www.w3.org/2000/svg" viewBox="-1 -1 11 11" x="105.57905208226123" y="93.40127430448344" height="5.641895835477563" width="5.641895835477563">
<circle cx="5" cy="5" r="4" fill-opacity="1" fill="red"></circle>
</svg><svg xmlns="http://www.w3.org/2000/svg" viewBox="-1 -1 11 11" x="109.97905208226122" y="110.29016319337232" height="5.641895835477563" width="5.641895835477563">
<circle cx="5" cy="5" r="4" fill-opacity="1" fill="red"></circle>
</svg><svg xmlns="http://www.w3.org/2000/svg" viewBox="-1 -1 11 11" x="94.77905208226122" y="65.40127430448345" height="5.641895835477563" width="5.641895835477563">
<circle cx="5" cy="5" r="4" fill-opacity="1" fill="red"></circle>
</svg><svg xmlns="http://www.w3.org/2000/svg" viewBox="-1 -1 11 11" x="93.17905208226122" y="72.51238541559455" height="5.641895835477563" width="5.641895835477563">
<circle cx="5" cy="5" r="4" fill-opacity="1" fill="red"></circle>
</svg><svg xmlns="http://www.w3.org/2000/svg" viewBox="-1 -1 11 11" x="104.77905208226122" y="88.51238541559457" height="5.641895835477563" width="5.641895835477563">
<circle cx="5" cy="5" r="4" fill-opacity="1" fill="red"></circle>
</svg><svg xmlns="http://www.w3.org/2000/svg" viewBox="-1 -1 11 11" x="104.77905208226122" y="94.73460763781677" height="5.641895835477563" width="5.641895835477563">
<circle cx="5" cy="5" r="4" fill-opacity="1" fill="red"></circle>
</svg><svg xmlns="http://www.w3.org/2000/svg" viewBox="-1 -1 11 11" x="129.97905208226123" y="100.95682986003901" height="5.641895835477563" width="5.641895835477563">
<circle cx="5" cy="5" r="4" fill-opacity="1" fill="red"></circle>
</svg><svg xmlns="http://www.w3.org/2000/svg" viewBox="-1 -1 11 11" x="116.37905208226123" y="96.956829860039" height="5.641895835477563" width="5.641895835477563">
<circle cx="5" cy="5" r="4" fill-opacity="1" fill="red"></circle>
</svg><svg xmlns="http://www.w3.org/2000/svg" viewBox="-1 -1 11 11" x="118.37905208226121" y="106.29016319337235" height="5.641895835477563" width="5.641895835477563">
<circle cx="5" cy="5" r="4" fill-opacity="1" fill="red"></circle>
</svg><svg xmlns="http://www.w3.org/2000/svg" viewBox="-1 -1 11 11" x="177.17905208226122" y="127.62349652670568" height="5.641895835477563" width="5.641895835477563">
<circle cx="5" cy="5" r="4" fill-opacity="1" fill="red"></circle>
</svg><svg xmlns="http://www.w3.org/2000/svg" viewBox="-1 -1 11 11" x="184.13905208226123" y="127.62349652670568" height="5.641895835477563" width="5.641895835477563">
<circle cx="5" cy="5" r="4" fill-opacity="1" fill="red"></circle>
</svg><svg xmlns="http://www.w3.org/2000/svg" viewBox="-1 -1 11 11" x="180.97905208226123" y="108.51238541559455" height="5.641895835477563" width="5.641895835477563">
<circle cx="5" cy="5" r="4" fill-opacity="1" fill="red"></circle>
</svg><svg xmlns="http://www.w3.org/2000/svg" viewBox="-1 -1 11 11" x="55.17905208226122" y="29.84571874892789" height="5.641895835477563" width="5.641895835477563">
<circle cx="5" cy="5" r="4" fill-opacity="1" fill="red"></circle>
</svg><svg xmlns="http://www.w3.org/2000/svg" viewBox="-1 -1 11 11" x="31.77905208226122" y="38.73460763781678" height="5.641895835477563" width="5.641895835477563">
<circle cx="5" cy="5" r="4" fill-opacity="1" fill="red"></circle>
</svg><svg xmlns="http://www.w3.org/2000/svg" viewBox="-1 -1 11 11" x="40.579052082261214" y="23.17905208226122" height="5.641895835477563" width="5.641895835477563">
<circle cx="5" cy="5" r="4" fill-opacity="1" fill="red"></circle>
</svg><svg xmlns="http://www.w3.org/2000/svg" viewBox="-1 -1 11 11" x="65.77905208226122" y="78.29016319337234" height="5.641895835477563" width="5.641895835477563">
<circle cx="5" cy="5" r="4" fill-opacity="1" fill="red"></circle>
</svg><svg xmlns="http://www.w3.org/2000/svg" viewBox="-1 -1 11 11" x="107.97905208226122" y="104.956829860039" height="5.641895835477563" width="5.641895835477563">
<circle cx="5" cy="5" r="4" fill-opacity="1" fill="red"></circle>
</svg><svg xmlns="http://www.w3.org/2000/svg" viewBox="-1 -1 11 11" x="104.57905208226121" y="106.29016319337235" height="5.641895835477563" width="5.641895835477563">
<circle cx="5" cy="5" r="4" fill-opacity="1" fill="red"></circle>
</svg><svg xmlns="http://www.w3.org/2000/svg" viewBox="-1 -1 11 11" x="120.77905208226122" y="114.73460763781677" height="5.641895835477563" width="5.641895835477563">
<circle cx="5" cy="5" r="4" fill-opacity="1" fill="red"></circle>
</svg><svg xmlns="http://www.w3.org/2000/svg" viewBox="-1 -1 11 11" x="120.97905208226123" y="88.51238541559457" height="5.641895835477563" width="5.641895835477563">
<circle cx="5" cy="5" r="4" fill-opacity="1" fill="red"></circle>
</svg><svg xmlns="http://www.w3.org/2000/svg" viewBox="-1 -1 11 11" x="44.579052082261214" y="52.51238541559455" height="5.641895835477563" width="5.641895835477563">
<circle cx="5" cy="5" r="4" fill-opacity="1" fill="red"></circle>
</svg><svg xmlns="http://www.w3.org/2000/svg" viewBox="-1 -1 11 11" x="52.77905208226123" y="58.29016319337232" height="5.641895835477563" width="5.641895835477563">
<circle cx="5" cy="5" r="4" fill-opacity="1" fill="red"></circle>
</svg><svg xmlns="http://www.w3.org/2000/svg" viewBox="-1 -1 11 11" x="27.699052082261215" y="38.73460763781678" height="5.641895835477563" width="5.641895835477563">
<circle cx="5" cy="5" r="4" fill-opacity="1" fill="red"></circle>
</svg><svg xmlns="http://www.w3.org/2000/svg" viewBox="-1 -1 11 11" x="93.97905208226122" y="103.62349652670567" height="5.641895835477563" width="5.641895835477563">
<circle cx="5" cy="5" r="4" fill-opacity="1" fill="red"></circle>
</svg><svg xmlns="http://www.w3.org/2000/svg" viewBox="-1 -1 11 11" x="77.97905208226122" y="86.29016319337234" height="5.641895835477563" width="5.641895835477563">
<circle cx="5" cy="5" r="4" fill-opacity="1" fill="red"></circle>
</svg><svg xmlns="http://www.w3.org/2000/svg" viewBox="-1 -1 11 11" x="109.97905208226122" y="107.17905208226122" height="5.641895835477563" width="5.641895835477563">
<circle cx="5" cy="5" r="4" fill-opacity="1" fill="red"></circle>
</svg><svg xmlns="http://www.w3.org/2000/svg" viewBox="-1 -1 11 11" x="78.37905208226123" y="78.73460763781678" height="5.641895835477563" width="5.641895835477563">
<circle cx="5" cy="5" r="4" fill-opacity="1" fill="red"></circle>
</svg></g>
</svg>