<?xml version="1.0" encoding="utf-8"?><svg xmlns="http://www.w3.org/2000/svg" id="gg-227" viewBox="0 0 280 208.33333333333334" height="550" width="825.0">
<style type="text/css"><![CDATA[#gg-227 .gg-axis-text {fill: #808080;font-size: 6px;} #gg-227 .gg-axis-text-x {} #gg-227 .gg-axis-ticks {stroke: #000000;} #gg-227 .gg-axis-title {fill: #000000;font-size: 8px;} #gg-227 .gg-legend-key {stroke: #EEEEEE;fill: #EEEEEE;stroke-width: 0.5;} #gg-227 .gg-legend-text {fill: #000000;font-size: 6px;} #gg-227 .gg-legend-title {fill: #000000;font-size: 8px;} #gg-227 .gg-panel-background {fill: #EEEEEE;} #gg-227 .gg-panel-border {} #gg-227 .gg-panel-grid {stroke: #FFFFFF;} #gg-227 .gg-panel-grid-major {stroke-width: 1;} #gg-227 .gg-panel-grid-minor {stroke-width: 0.5;} #gg-227 .gg-plot-background {fill: #FFFFFF;} #gg-227 .gg-plot-title {font-size: 10px;} #gg-227 .gg-text {font-family: Helvetica, Arial, sans-serif;} ]]></style><rect class="gg-plot-background" width="100%" height="100%"></rect><g transform="translate(50, 10)">
<rect x="0" y="0" height="153.33333333333334" width="220" class="gg-panel-background gg-panel-border"></rect>
<g opacity="1" transform="translate(0, 153.33333333333334)">
<line x2="220" class="gg-axis-line gg-axis-line-x"></line>
</g>
<g transform="translate(10,153.33333333333334)" font-size="10" text-anchor="middle">
<g opacity="1" transform="translate(200.0,0)">
<text y="11" class="gg-text gg-axis-text gg-axis-text-x" text-anchor="middle">6.0</text>
</g>
<g opacity="1" transform="translate(160.0,0)">
<text y="11" class="gg-text gg-axis-text gg-axis-text-x" text-anchor="middle">5.0</text>
</g>
<g opacity="1" transform="translate(120.0,0)">
<text y="11" class="gg-text gg-axis-text gg-axis-text-x" text-anchor="middle">4.0</text>
</g>
<g opacity="1" transform="translate(80.0,0)">
<text y="11" class="gg-text gg-axis-text gg-axis-text-x" text-anchor="middle">3.0</text>
</g>
<g opacity="1" transform="translate(40.0,0)">
<text y="11" class="gg-text gg-axis-text gg-axis-text-x" text-anchor="middle">2.0</text>
</g>
<g opacity="1" transform="translate(0.0,0)">
<text y="11" class="gg-text gg-axis-text gg-axis-text-x" text-anchor="middle">1.0</text>
</g>
<g opacity="1" transform="translate(200.0,0)">
<line y2="-153.33333333333334" class="gg-panel-grid gg-panel-grid-major"></line>
</g>
<g opacity="1" transform="translate(160.0,0)">
<line y2="-153.33333333333334" class="gg-panel-grid gg-panel-grid-major"></line>
</g>
<g opacity="1" transform="translate(120.0,0)">
<line y2="-153.33333333333334" class="gg-panel-grid gg-panel-grid-major"></line>
</g>
<g opacity="1" transform="translate(80.0,0)">
<line y2="-153.33333333333334" class="gg-panel-grid gg-panel-grid-major"></line>
</g>
<g opacity="1" transform="translate(40.0,0)">
<line y2="-153.33333333333334" class="gg-panel-grid gg-panel-grid-major"></line>
</g>
<g opacity="1" transform="translate(0.0,0)">
<line y2="-153.33333333333334" class="gg-panel-grid gg-panel-grid-major"></line>
</g>
<g opacity="1" transform="translate(160.0,0)">
<line y2="-153.33333333333334" class="gg-panel-grid gg-panel-grid-minor" transform="translate(20.0, 0)"></line>
</g>
<g opacity="1" transform="translate(120.0,0)">
<line y2="-153.33333333333334" class="gg-panel-grid gg-panel-grid-minor" transform="translate(20.0, 0)"></line>
</g>
<g opacity="1" transform="translate(80.0,0)">
<line y2="-153.33333333333334" class="gg-panel-grid gg-panel-grid-minor" transform="translate(20.0, 0)"></line>
</g>
<g opacity="1" transform="translate(40.0,0)">
<line y2="-153.33333333333334" class="gg-panel-grid gg-panel-grid-minor" transform="translate(20.0, 0)"></line>
</g>
<g opacity="1" transform="translate(0.0,0)">
<line y2="-153.33333333333334" class="gg-panel-grid gg-panel-grid-minor" transform="translate(20.0, 0)"></line>
</g>
</g>
<g transform="translate(10,153.33333333333334)" font-size="10" text-anchor="middle">
<g opacity="1" transform="translate(200.0,0)">
<line y2="2" class="gg-axis-ticks gg-axis-ticks-x"></line>
</g>
<g opacity="1" transform="translate(160.0,0)">
<line y2="2" class="gg-axis-ticks gg-axis-ticks-x"></line>
</g>
<g opacity="1" transform="translate(120.0,0)">
<line y2="2" class="gg-axis-ticks gg-axis-ticks-x"></line>
</g>
<g opacity="1" transform="translate(80.0,0)">
<line y2="2" class="gg-axis-ticks gg-axis-ticks-x"></line>
</g>
<g opacity="1" transform="translate(40.0,0)">
<line y2="2" class="gg-axis-ticks gg-axis-ticks-x"></line>
</g>
<g opacity="1" transform="translate(0.0,0)">
<line y2="2" class="gg-axis-ticks gg-axis-ticks-x"></line>
</g>
</g>
<text x="110.0" y="188.33333333333334" class="gg-text gg-axis-title" text-anchor="middle">wt</text>
<g transform="translate(0, 0)">
<line y2="153.33333333333334" class="gg-axis-line gg-axis-line-y"></line>
</g>
<g transform="translate(0, 0)" font-size="10" text-anchor="end">
<g opacity="1" transform="translate(0,10.0)">
<text x="-11" dy="0.32em" class="gg-text gg-axis-text gg-axis-text-y">37.5</text>
</g>
<g opacity="1" transform="translate(0,43.33333333333334)">
<text x="-11" dy="0.32em" class="gg-text gg-axis-text gg-axis-text-y">30.0</text>
</g>
<g opacity="1" transform="translate(0,76.66666666666667)">
<text x="-11" dy="0.32em" class="gg-text gg-axis-text gg-axis-text-y">22.5</text>
</g>
<g opacity="1" transform="translate(0,110.0)">
<text x="-11" dy="0.32em" class="gg-text gg-axis-text gg-axis-text-y">15.0</text>
</g>
<g opacity="1" transform="translate(0,143.33333333333334)">
<text x="-11" dy="0.32em" class="gg-text gg-axis-text gg-axis-text-y">7.5</text>
</g>
<g opacity="1" transform="translate(0,10.0)">
<line x2="220" class="gg-panel-grid gg-panel-grid-major"></line>
</g>
<g opacity="1" transform="translate(0,43.33333333333334)">
<line x2="220" class="gg-panel-grid gg-panel-grid-major"></line>
</g>
<g opacity="1" transform="translate(0,76.66666666666667)">
<line x2="220" class="gg-panel-grid gg-panel-grid-major"></line>
</g>
<g opacity="1" transform="translate(0,110.0)">
<line x2="220" class="gg-panel-grid gg-panel-grid-major"></line>
</g>
<g opacity="1" transform="translate(0,143.33333333333334)">
<line x2="220" class="gg-panel-grid gg-panel-grid-major"></line>
</g>
<g opacity="1" transform="translate(0,43.33333333333334)">
<line x2="220" class="gg-panel-grid gg-panel-grid-minor" transform="translate(0, -16.666666666666668)"></line>
</g>
<g opacity="1" transform="translate(0,76.66666666666667)">
<line x2="220" class="gg-panel-grid gg-panel-grid-minor" transform="translate(0, -16.666666666666668)"></line>
</g>
<g opacity="1" transform="translate(0,110.0)">
<line x2="220" class="gg-panel-grid gg-panel-grid-minor" transform="translate(0, -16.666666666666668)"></line>
</g>
<g opacity="1" transform="translate(0,143.33333333333334)">
<line x2="220" class="gg-panel-grid gg-panel-grid-minor" transform="translate(0, -16.666666666666668)"></line>
</g>
</g>
<g transform="translate(0, 0)" font-size="10" text-anchor="end">
<g opacity="1" transform="translate(0,10.0)">
<line x2="-2" class="gg-axis-ticks gg-axis-ticks-y"></line>
</g>
<g opacity="1" transform="translate(0,43.33333333333334)">
<line x2="-2" class="gg-axis-ticks gg-axis-ticks-y"></line>
</g>
<g opacity="1" transform="translate(0,76.66666666666667)">
<line x2="-2" class="gg-axis-ticks gg-axis-ticks-y"></line>
</g>
<g opacity="1" transform="translate(0,110.0)">
<line x2="-2" class="gg-axis-ticks gg-axis-ticks-y"></line>
</g>
<g opacity="1" transform="translate(0,143.33333333333334)">
<line x2="-2" class="gg-axis-ticks gg-axis-ticks-y"></line>
</g>
</g>
<text x="-73.33333333333333" y="-40" class="gg-text gg-axis-title" text-anchor="middle" transform="rotate(-90)">mpg</text>
<svg xmlns="http://www.w3.org/2000/svg" viewBox="-1 -1 11 11" x="71.69781224096768" y="80.23114557430101" height="6.204375518064633" width="6.204375518064633">
<circle cx="5" cy="5" r="4" fill-opacity="1" fill="black"></circle>
</svg><svg xmlns="http://www.w3.org/2000/svg" viewBox="-1 -1 11 11" x="81.60078702219593" y="79.93412035552926" height="6.798425955608137" width="6.798425955608137">
<circle cx="5" cy="5" r="4" fill-opacity="1" fill="black"></circle>
</svg><svg xmlns="http://www.w3.org/2000/svg" viewBox="-1 -1 11 11" x="58.67234489595031" y="71.20567822928365" height="8.255310208099365" width="8.255310208099365">
<circle cx="5" cy="5" r="4" fill-opacity="1" fill="black"></circle>
</svg><svg xmlns="http://www.w3.org/2000/svg" viewBox="-1 -1 11 11" x="94.13909504122127" y="77.09465059677683" height="8.921809917557457" width="8.921809917557457">
<circle cx="5" cy="5" r="4" fill-opacity="1" fill="black"></circle>
</svg><svg xmlns="http://www.w3.org/2000/svg" viewBox="-1 -1 11 11" x="104.20078702219593" y="90.15634257775149" height="6.798425955608137" width="6.798425955608137">
<circle cx="5" cy="5" r="4" fill-opacity="1" fill="black"></circle>
</svg><svg xmlns="http://www.w3.org/2000/svg" viewBox="-1 -1 11 11" x="103.64717014932054" y="91.46939237154277" height="9.505659701358908" width="9.505659701358908">
<circle cx="5" cy="5" r="4" fill-opacity="1" fill="black"></circle>
</svg><svg xmlns="http://www.w3.org/2000/svg" viewBox="-1 -1 11 11" x="110.06401983009948" y="110.37513094121059" height="5.471960339801016" width="5.471960339801016">
<circle cx="5" cy="5" r="4" fill-opacity="1" fill="black"></circle>
</svg><svg xmlns="http://www.w3.org/2000/svg" viewBox="-1 -1 11 11" x="92.92766086125607" y="63.549883083478306" height="9.34467827748785" width="9.34467827748785">
<circle cx="5" cy="5" r="4" fill-opacity="1" fill="black"></circle>
</svg><svg xmlns="http://www.w3.org/2000/svg" viewBox="-1 -1 11 11" x="90.35810416452244" y="69.69143749785576" height="11.283791670955125" width="11.283791670955125">
<circle cx="5" cy="5" r="4" fill-opacity="1" fill="black"></circle>
</svg><svg xmlns="http://www.w3.org/2000/svg" viewBox="-1 -1 11 11" x="103.6039336896284" y="87.33726702296175" height="7.992132620743186" width="7.992132620743186">
<circle cx="5" cy="5" r="4" fill-opacity="1" fill="black"></circle>
</svg><svg xmlns="http://www.w3.org/2000/svg" viewBox="-1 -1 11 11" x="103.35293510561924" y="93.30849066117479" height="8.494129788761523" width="8.494129788761523">
<circle cx="5" cy="5" r="4" fill-opacity="1" fill="black"></circle>
</svg><svg xmlns="http://www.w3.org/2000/svg" viewBox="-1 -1 11 11" x="129.2132152885077" y="100.19099306628549" height="7.173569422984591" width="7.173569422984591">
<circle cx="5" cy="5" r="4" fill-opacity="1" fill="black"></circle>
</svg><svg xmlns="http://www.w3.org/2000/svg" viewBox="-1 -1 11 11" x="115.51832972868839" y="96.09610750646615" height="7.363340542623236" width="7.363340542623236">
<circle cx="5" cy="5" r="4" fill-opacity="1" fill="black"></circle>
</svg><svg xmlns="http://www.w3.org/2000/svg" viewBox="-1 -1 11 11" x="117.3355415868728" y="105.24665269798393" height="7.728916826254379" width="7.728916826254379">
<circle cx="5" cy="5" r="4" fill-opacity="1" fill="black"></circle>
</svg><svg xmlns="http://www.w3.org/2000/svg" viewBox="-1 -1 11 11" x="176.14447517388578" y="126.58891961833024" height="7.711049652228425" width="7.711049652228425">
<circle cx="5" cy="5" r="4" fill-opacity="1" fill="black"></circle>
</svg><svg xmlns="http://www.w3.org/2000/svg" viewBox="-1 -1 11 11" x="183.1767032169375" y="126.66114766138195" height="7.566593566125017" width="7.566593566125017">
<circle cx="5" cy="5" r="4" fill-opacity="1" fill="black"></circle>
</svg><svg xmlns="http://www.w3.org/2000/svg" viewBox="-1 -1 11 11" x="180.20361407679857" y="107.7369474101319" height="7.1927718464028505" width="7.1927718464028505">
<circle cx="5" cy="5" r="4" fill-opacity="1" fill="black"></circle>
</svg><svg xmlns="http://www.w3.org/2000/svg" viewBox="-1 -1 11 11" x="53.52751481117418" y="28.194181477840846" height="8.944970377651652" width="8.944970377651652">
<circle cx="5" cy="5" r="4" fill-opacity="1" fill="black"></circle>
</svg><svg xmlns="http://www.w3.org/2000/svg" viewBox="-1 -1 11 11" x="30.51011191852904" y="37.4656674740846" height="8.179776162941918" width="8.179776162941918">
<circle cx="5" cy="5" r="4" fill-opacity="1" fill="black"></circle>
</svg><svg xmlns="http://www.w3.org/2000/svg" viewBox="-1 -1 11 11" x="38.764709575721724" y="21.364709575721726" height="9.27058084855655" width="9.27058084855655">
<circle cx="5" cy="5" r="4" fill-opacity="1" fill="black"></circle>
</svg><svg xmlns="http://www.w3.org/2000/svg" viewBox="-1 -1 11 11" x="63.923972134552486" y="76.4350832456636" height="9.352055730895014" width="9.352055730895014">
<circle cx="5" cy="5" r="4" fill-opacity="1" fill="black"></circle>
</svg><svg xmlns="http://www.w3.org/2000/svg" viewBox="-1 -1 11 11" x="107.47774243872891" y="104.45552021650668" height="6.644515122542185" width="6.644515122542185">
<circle cx="5" cy="5" r="4" fill-opacity="1" fill="black"></circle>
</svg><svg xmlns="http://www.w3.org/2000/svg" viewBox="-1 -1 11 11" x="103.86161211049968" y="105.57272322161081" height="7.076775779000614" width="7.076775779000614">
<circle cx="5" cy="5" r="4" fill-opacity="1" fill="black"></circle>
</svg><svg xmlns="http://www.w3.org/2000/svg" viewBox="-1 -1 11 11" x="121.14994001360184" y="115.10549556915738" height="4.900119972796307" width="4.900119972796307">
<circle cx="5" cy="5" r="4" fill-opacity="1" fill="black"></circle>
</svg><svg xmlns="http://www.w3.org/2000/svg" viewBox="-1 -1 11 11" x="120.38560406785018" y="87.91893740118351" height="6.828791864299669" width="6.828791864299669">
<circle cx="5" cy="5" r="4" fill-opacity="1" fill="black"></circle>
</svg><svg xmlns="http://www.w3.org/2000/svg" viewBox="-1 -1 11 11" x="43.152935105619235" y="51.08626843895257" height="8.494129788761523" width="8.494129788761523">
<circle cx="5" cy="5" r="4" fill-opacity="1" fill="black"></circle>
</svg><svg xmlns="http://www.w3.org/2000/svg" viewBox="-1 -1 11 11" x="52.36717235282056" y="57.87828346393166" height="6.465655294358892" width="6.465655294358892">
<circle cx="5" cy="5" r="4" fill-opacity="1" fill="black"></circle>
</svg><svg xmlns="http://www.w3.org/2000/svg" viewBox="-1 -1 11 11" x="27.182209410937723" y="38.217764966493284" height="6.675581178124545" width="6.675581178124545">
<circle cx="5" cy="5" r="4" fill-opacity="1" fill="black"></circle>
</svg><svg xmlns="http://www.w3.org/2000/svg" viewBox="-1 -1 11 11" x="95.10743124935672" y="104.75187569380117" height="3.385137501286538" width="3.385137501286538">
<circle cx="5" cy="5" r="4" fill-opacity="1" fill="black"></circle>
</svg><svg xmlns="http://www.w3.org/2000/svg" viewBox="-1 -1 11 11" x="78.28740252408419" y="86.5985136351953" height="5.025194951831627" width="5.025194951831627">
<circle cx="5" cy="5" r="4" fill-opacity="1" fill="black"></circle>
</svg><svg xmlns="http://www.w3.org/2000/svg" viewBox="-1 -1 11 11" x="111.00845745635596" y="108.20845745635596" height="3.583085087288079" width="3.583085087288079">
<circle cx="5" cy="5" r="4" fill-opacity="1" fill="black"></circle>
</svg><svg xmlns="http://www.w3.org/2000/svg" viewBox="-1 -1 11 11" x="77.07652414982407" y="77.43207970537962" height="8.246951700351874" width="8.246951700351874">
<circle cx="5" cy="5" r="4" fill-opacity="1" fill="black"></circle>
</svg></g>
</svg>