<?xml version="1.0" encoding="utf-8"?><svg xmlns="http://www.w3.org/2000/svg" id="gg-674" viewBox="0 0 280 208.33333333333334" height="550" width="825.0">
<style type="text/css"><![CDATA[#gg-674 .gg-axis-text {fill: #808080;font-size: 6px;} #gg-674 .gg-axis-text-x {} #gg-674 .gg-axis-ticks {stroke: #000000;} #gg-674 .gg-axis-title {fill: #000000;font-size: 8px;} #gg-674 .gg-legend-key {stroke: #EEEEEE;fill: #EEEEEE;stroke-width: 0.5;} #gg-674 .gg-legend-text {fill: #000000;font-size: 6px;} #gg-674 .gg-legend-title {fill: #000000;font-size: 8px;} #gg-674 .gg-panel-background {fill: #EEEEEE;} #gg-674 .gg-panel-border {} #gg-674 .gg-panel-grid {stroke: #FFFFFF;} #gg-674 .gg-panel-grid-major {stroke-width: 1;} #gg-674 .gg-panel-grid-minor {stroke-width: 0.5;} #gg-674 .gg-plot-background {fill: #FFFFFF;} #gg-674 .gg-plot-title {font-size: 8px;} #gg-674 .gg-text {font-family: Helvetica, Arial, sans-serif;} ]]></style><rect class="gg-plot-background" width="100%" height="100%"></rect><g transform="translate(50, 10)">
<rect x="0" y="0" height="153.33333333333334" width="220" class="gg-panel-background gg-panel-border"></rect>
<g opacity="1" transform="translate(0, 153.33333333333334)">
<line x2="220" class="gg-axis-line gg-axis-line-x"></line>
</g>
<g transform="translate(10,153.33333333333334)" font-size="10" text-anchor="middle">
<g opacity="1" transform="translate(200,0)">
<text y="11" class="gg-text gg-axis-text gg-axis-text-x" text-anchor="middle">2025-07-01</text>
</g>
<g opacity="1" transform="translate(149,0)">
<text y="11" class="gg-text gg-axis-text gg-axis-text-x" text-anchor="middle">2010-07-01</text>
</g>
<g opacity="1" transform="translate(99,0)">
<text y="11" class="gg-text gg-axis-text gg-axis-text-x" text-anchor="middle">1995-07-01</text>
</g>
<g opacity="1" transform="translate(50,0)">
<text y="11" class="gg-text gg-axis-text gg-axis-text-x" text-anchor="middle">1980-07-01</text>
</g>
<g opacity="1" transform="translate(0,0)">
<text y="11" class="gg-text gg-axis-text gg-axis-text-x" text-anchor="middle">1965-07-01</text>
</g>
<g opacity="1" transform="translate(200,0)">
<line y2="-153.33333333333334" class="gg-panel-grid gg-panel-grid-major"></line>
</g>
<g opacity="1" transform="translate(149,0)">
<line y2="-153.33333333333334" class="gg-panel-grid gg-panel-grid-major"></line>
</g>
<g opacity="1" transform="translate(99,0)">
<line y2="-153.33333333333334" class="gg-panel-grid gg-panel-grid-major"></line>
</g>
<g opacity="1" transform="translate(50,0)">
<line y2="-153.33333333333334" class="gg-panel-grid gg-panel-grid-major"></line>
</g>
<g opacity="1" transform="translate(0,0)">
<line y2="-153.33333333333334" class="gg-panel-grid gg-panel-grid-major"></line>
</g>
<g opacity="1" transform="translate(149,0)">
<line y2="-153.33333333333334" class="gg-panel-grid gg-panel-grid-minor" transform="translate(25.0, 0)"></line>
</g>
<g opacity="1" transform="translate(99,0)">
<line y2="-153.33333333333334" class="gg-panel-grid gg-panel-grid-minor" transform="translate(25.0, 0)"></line>
</g>
<g opacity="1" transform="translate(50,0)">
<line y2="-153.33333333333334" class="gg-panel-grid gg-panel-grid-minor" transform="translate(25.0, 0)"></line>
</g>
<g opacity="1" transform="translate(0,0)">
<line y2="-153.33333333333334" class="gg-panel-grid gg-panel-grid-minor" transform="translate(25.0, 0)"></line>
</g>
</g>
<g transform="translate(10,153.33333333333334)" font-size="10" text-anchor="middle">
<g opacity="1" transform="translate(200,0)">
<line y2="2" class="gg-axis-ticks gg-axis-ticks-x"></line>
</g>
<g opacity="1" transform="translate(149,0)">
<line y2="2" class="gg-axis-ticks gg-axis-ticks-x"></line>
</g>
<g opacity="1" transform="translate(99,0)">
<line y2="2" class="gg-axis-ticks gg-axis-ticks-x"></line>
</g>
<g opacity="1" transform="translate(50,0)">
<line y2="2" class="gg-axis-ticks gg-axis-ticks-x"></line>
</g>
<g opacity="1" transform="translate(0,0)">
<line y2="2" class="gg-axis-ticks gg-axis-ticks-x"></line>
</g>
</g>
<text x="110.0" y="188.33333333333334" class="gg-text gg-axis-title" text-anchor="middle">date</text>
<g transform="translate(0, 0)">
<line y2="153.33333333333334" class="gg-axis-line gg-axis-line-y"></line>
</g>
<g transform="translate(0, 0)" font-size="10" text-anchor="end">
<g opacity="1" transform="translate(0,10.0)">
<text x="-11" dy="0.32em" class="gg-text gg-axis-text gg-axis-text-y">1.6e4</text>
</g>
<g opacity="1" transform="translate(0,43.33333333333334)">
<text x="-11" dy="0.32em" class="gg-text gg-axis-text gg-axis-text-y">1.2e4</text>
</g>
<g opacity="1" transform="translate(0,76.66666666666667)">
<text x="-11" dy="0.32em" class="gg-text gg-axis-text gg-axis-text-y">8.0e3</text>
</g>
<g opacity="1" transform="translate(0,110.0)">
<text x="-11" dy="0.32em" class="gg-text gg-axis-text gg-axis-text-y">4.0e3</text>
</g>
<g opacity="1" transform="translate(0,143.33333333333334)">
<text x="-11" dy="0.32em" class="gg-text gg-axis-text gg-axis-text-y">0.0</text>
</g>
<g opacity="1" transform="translate(0,10.0)">
<line x2="220" class="gg-panel-grid gg-panel-grid-major"></line>
</g>
<g opacity="1" transform="translate(0,43.33333333333334)">
<line x2="220" class="gg-panel-grid gg-panel-grid-major"></line>
</g>
<g opacity="1" transform="translate(0,76.66666666666667)">
<line x2="220" class="gg-panel-grid gg-panel-grid-major"></line>
</g>
<g opacity="1" transform="translate(0,110.0)">
<line x2="220" class="gg-panel-grid gg-panel-grid-major"></line>
</g>
<g opacity="1" transform="translate(0,143.33333333333334)">
<line x2="220" class="gg-panel-grid gg-panel-grid-major"></line>
</g>
<g opacity="1" transform="translate(0,43.33333333333334)">
<line x2="220" class="gg-panel-grid gg-panel-grid-minor" transform="translate(0, -16.666666666666668)"></line>
</g>
<g opacity="1" transform="translate(0,76.66666666666667)">
<line x2="220" class="gg-panel-grid gg-panel-grid-minor" transform="translate(0, -16.666666666666668)"></line>
</g>
<g opacity="1" transform="translate(0,110.0)">
<line x2="220" class="gg-panel-grid gg-panel-grid-minor" transform="translate(0, -16.666666666666668)"></line>
</g>
<g opacity="1" transform="translate(0,143.33333333333334)">
<line x2="220" class="gg-panel-grid gg-panel-grid-minor" transform="translate(0, -16.666666666666668)"></line>
</g>
</g>
<g transform="translate(0, 0)" font-size="10" text-anchor="end">
<g opacity="1" transform="translate(0,10.0)">
<line x2="-2" class="gg-axis-ticks gg-axis-ticks-y"></line>
</g>
<g opacity="1" transform="translate(0,43.33333333333334)">
<line x2="-2" class="gg-axis-ticks gg-axis-ticks-y"></line>
</g>
<g opacity="1" transform="translate(0,76.66666666666667)">
<line x2="-2" class="gg-axis-ticks gg-axis-ticks-y"></line>
</g>
<g opacity="1" transform="translate(0,110.0)">
<line x2="-2" class="gg-axis-ticks gg-axis-ticks-y"></line>
</g>
<g opacity="1" transform="translate(0,143.33333333333334)">
<line x2="-2" class="gg-axis-ticks gg-axis-ticks-y"></line>
</g>
</g>
<text x="-73.33333333333333" y="-40" class="gg-text gg-axis-title" text-anchor="middle" transform="rotate(-90)">unemploy</text>
<polyline points="16.662103582021444,119.33333333333333 16.945014830025094,119.33333333333333 17.227926078028748,119.33333333333333 17.50171115674196,117.33333333333333 17.78462240474561,118.0 18.05840748345882,118.66666666666667 18.34131873146247,120.0 18.62422997946612,118.66666666666667 18.88888888888889,120.0 19.17180013689254,121.33333333333333 19.44558521560575,120.66666666666667 19.7284964636094,119.33333333333333 20.00228154232261,119.33333333333333 20.28519279032626,120.66666666666667 20.56810403832991,121.33333333333333 20.841889117043124,121.33333333333333 21.124800365046774,121.33333333333333 21.398585443759984,121.33333333333333 21.681496691763634,121.33333333333333 21.964407939767284,121.33333333333333 22.21994067989961,121.33333333333333 22.502851927903265,120.66666666666667 22.776637006616475,121.33333333333333 23.059548254620125,120.0 23.333333333333336,120.0 23.616244581336986,120.0 23.899155829340636,118.0 24.172940908053846,118.0 24.455852156057496,120.0 24.729637234770706,119.33333333333333 25.012548482774356,116.66666666666667 25.295459730778006,114.66666666666667 25.550992470910337,113.33333333333333 25.833903718913987,112.0 26.107688797627194,111.33333333333333 26.390600045630848,110.0 26.664385124344054,108.66666666666667 26.947296372347704,108.0 27.230207620351358,106.66666666666667 27.50399269906457,105.33333333333333 27.786903947068218,102.66666666666667 28.06068902578143,101.33333333333333 28.34360027378508,102.0 28.62651152178873,102.66666666666667 28.882044261921056,102.0 29.16495550992471,102.66666666666667 29.43874058863792,102.0 29.72165183664157,102.66666666666667 29.99543691535478,102.0 30.27834816335843,100.66666666666667 30.56125941136208,101.33333333333333 30.83504449007529,102.66666666666667 31.11795573807894,100.66666666666667 31.39174081679215,100.66666666666667 31.6746520647958,102.0 31.95756331279945,102.66666666666667 32.22222222222222,102.0 32.50513347022587,102.66666666666667 32.77891854893909,102.66666666666667 33.06182979694273,102.66666666666667 33.33561487565595,102.66666666666667 33.61852612365959,102.66666666666667 33.90143737166325,103.33333333333333 34.17522245037645,103.33333333333333 34.45813369838011,105.33333333333333 34.73191877709331,106.0 35.01483002509697,107.33333333333333 35.29774127310061,106.66666666666667 35.55327401323295,107.33333333333333 35.836185261236594,106.66666666666667 36.10997033994981,107.33333333333333 36.392881587953454,107.33333333333333 36.66666666666667,108.0 36.94957791467032,108.0 37.23248916267397,107.33333333333333 37.506274241387175,109.33333333333333 37.78918548939083,107.33333333333333 38.062970568104035,106.0 38.34588181610769,104.66666666666667 38.62879306411134,104.0 38.88432580424367,105.33333333333333 39.167237052247316,105.33333333333333 39.44102213096053,104.66666666666667 39.723933378964176,102.66666666666667 39.997718457677394,101.33333333333333 40.28062970568104,102.0 40.563540953684694,98.66666666666667 40.8373260323979,97.33333333333333 41.120237280401554,92.66666666666667 41.39402235911476,88.66666666666667 41.676933607118414,81.33333333333333 41.95984485512206,80.66666666666667 42.21537759525439,77.33333333333333 42.498288843258045,75.33333333333333 42.77207392197125,73.33333333333334 43.054985169974906,75.33333333333333 43.32877024868811,76.0 43.611681496691766,77.33333333333333 43.89459274469541,77.33333333333333 44.168377823408626,78.0 44.45128907141227,78.66666666666667 44.72507415012549,79.33333333333333 45.00798539812914,80.66666666666667 45.290896646132786,82.66666666666667 45.55555555555556,83.33333333333333 45.83846680355921,82.66666666666667 46.11225188227242,84.66666666666667 46.39516313027607,82.66666666666667 46.66894820898928,81.33333333333333 46.95185945699293,81.33333333333333 47.23477070499658,82.0 47.50855578370979,82.0 47.79146703171344,80.0 48.06525211042665,80.66666666666667 48.3481633584303,82.66666666666667 48.63107460643395,81.33333333333333 48.88660734656628,82.66666666666667 49.16951859456993,84.66666666666667 49.44330367328314,86.0 49.72621492128679,84.0 50.0,86.66666666666667 50.28291124800365,86.0 50.5658224960073,87.33333333333333 50.83960757472051,87.33333333333333 51.12251882272416,86.66666666666667 51.39630390143737,90.66666666666667 51.67921514944102,89.33333333333333 51.96212639744467,91.33333333333333 52.217659137577,90.66666666666667 52.50057038558065,92.0 52.77435546429386,92.66666666666667 53.05726671229751,93.33333333333333 53.33105179101072,91.33333333333333 53.61396303901437,92.66666666666667 53.89687428701802,92.66666666666667 54.17065936573123,94.0 54.45357061373488,93.33333333333333 54.72735569244809,92.0 55.01026694045174,92.66666666666667 55.2931781884554,92.0 55.548710928587724,92.66666666666667 55.831622176591374,93.33333333333333 56.105407255304584,94.66666666666667 56.388318503308234,94.0 56.662103582021444,94.0 56.945014830025094,90.66666666666667 57.227926078028744,92.0 57.50171115674196,91.33333333333333 57.784622404745605,92.0 58.05840748345882,90.66666666666667 58.341318731462465,88.0 58.62422997946612,88.0 58.888888888888886,87.33333333333333 59.17180013689254,82.66666666666667 59.445585215605746,77.33333333333333 59.7284964636094,76.0 60.00228154232261,74.0 60.28519279032626,74.66666666666667 60.568104038329906,76.66666666666667 60.841889117043124,76.0 61.124800365046774,76.66666666666667 61.398585443759984,79.33333333333333 61.68149669176363,76.66666666666667 61.964407939767284,76.66666666666667 62.219940679899615,77.33333333333333 62.50285192790326,78.0 62.776637006616475,75.33333333333333 63.059548254620125,76.0 63.333333333333336,78.0 63.61624458133698,76.66666666666667 63.89915582934064,75.33333333333333 64.17294090805385,71.33333333333334 64.45585215605749,68.66666666666666 64.7296372347707,66.66666666666666 65.01254848277435,65.33333333333334 65.295459730778,62.666666666666664 65.55099247091033,61.333333333333336 65.83390371891399,58.0 66.10768879762719,57.333333333333336 66.39060004563085,56.0 66.66438512434405,53.333333333333336 66.94729637234771,52.666666666666664 67.23020762035136,50.0 67.50399269906457,47.333333333333336 67.78690394706821,44.0 68.06068902578143,43.333333333333336 68.34360027378509,47.333333333333336 68.62651152178873,47.333333333333336 68.88204426192107,48.666666666666664 69.16495550992471,50.0 69.43874058863793,50.666666666666664 69.72165183664157,50.0 69.99543691535479,56.0 70.27834816335843,55.333333333333336 70.56125941136207,58.0 70.83504449007529,61.333333333333336 71.11795573807895,64.66666666666666 71.39174081679215,66.0 71.6746520647958,68.66666666666666 71.95756331279946,70.66666666666666 72.22222222222223,70.66666666666666 72.50513347022587,70.66666666666666 72.77891854893907,73.33333333333334 73.06182979694273,75.33333333333333 73.33561487565595,72.66666666666666 73.61852612365959,72.66666666666666 73.90143737166323,74.0 74.17522245037645,74.0 74.45813369838011,75.33333333333333 74.73191877709331,74.0 75.01483002509697,73.33333333333334 75.29774127310061,74.0 75.55327401323294,74.0 75.8361852612366,74.0 76.10997033994981,74.66666666666667 76.39288158795345,73.33333333333334 76.66666666666666,72.66666666666666 76.94957791467033,75.33333333333333 77.23248916267397,74.66666666666667 77.50627424138717,74.66666666666667 77.78918548939082,76.0 78.06297056810405,76.0 78.34588181610769,78.66666666666667 78.62879306411133,73.33333333333334 78.88432580424367,74.0 79.16723705224732,74.0 79.44102213096053,73.33333333333334 79.72393337896418,72.66666666666666 79.9977184576774,74.66666666666667 80.28062970568104,76.0 80.5635409536847,74.66666666666667 80.8373260323979,74.66666666666667 81.12023728040155,76.0 81.39402235911476,78.0 81.67693360711841,78.0 81.95984485512206,78.0 82.2153775952544,78.0 82.49828884325804,80.66666666666667 82.77207392197124,80.66666666666667 83.05498516997491,82.0 83.32877024868812,83.33333333333333 83.61168149669176,83.33333333333333 83.89459274469542,84.66666666666667 84.16837782340863,83.33333333333333 84.45128907141228,85.33333333333333 84.72507415012548,86.0 85.00798539812914,86.0 85.2908966461328,86.0 85.55555555555556,86.66666666666667 85.8384668035592,88.66666666666667 86.11225188227242,87.33333333333333 86.39516313027606,89.33333333333333 86.66894820898928,88.66666666666667 86.95185945699293,86.66666666666667 87.23477070499658,88.66666666666667 87.50855578370978,88.66666666666667 87.79146703171344,89.33333333333333 88.06525211042666,89.33333333333333 88.3481633584303,88.0 88.63107460643394,90.66666666666667 88.88660734656628,92.0 89.16951859456994,90.0 89.44330367328314,90.66666666666667 89.72621492128678,88.66666666666667 90.0,89.33333333333333 90.28291124800366,89.33333333333333 90.5658224960073,88.66666666666667 90.8396075747205,88.66666666666667 91.12251882272416,87.33333333333333 91.39630390143738,88.0 91.67921514944102,87.33333333333333 91.96212639744466,88.0 92.217659137577,88.66666666666667 92.50057038558066,87.33333333333333 92.77435546429386,87.33333333333333 93.05726671229752,88.66666666666667 93.33105179101072,86.0 93.61396303901437,84.0 93.89687428701802,82.0 94.17065936573124,81.33333333333333 94.45357061373488,78.66666666666667 94.72735569244809,78.0 95.01026694045176,76.66666666666667 95.2931781884554,74.66666666666667 95.54871092858772,72.0 95.83162217659137,73.33333333333334 96.10540725530458,70.66666666666666 96.38831850330824,71.33333333333334 96.66210358202144,72.0 96.9450148300251,71.33333333333334 97.22792607802874,70.66666666666666 97.50171115674196,70.0 97.7846224047456,69.33333333333334 98.05840748345882,67.33333333333334 98.34131873146247,66.0 98.62422997946612,64.66666666666666 98.88888888888889,64.66666666666666 99.17180013689254,65.33333333333334 99.44558521560575,62.666666666666664 99.7284964636094,60.0 100.00228154232262,61.333333333333336 100.28519279032626,62.0 100.5681040383299,62.0 100.84188911704312,65.33333333333334 101.12480036504678,64.0 101.39858544375998,64.0 101.68149669176363,66.0 101.96440793976728,67.33333333333334 102.21994067989961,68.0 102.50285192790327,68.0 102.77663700661647,67.33333333333334 103.05954825462013,67.33333333333334 103.33333333333333,69.33333333333334 103.61624458133699,70.66666666666666 103.89915582934063,71.33333333333334 104.17294090805385,70.66666666666666 104.45585215605749,72.66666666666666 104.7296372347707,73.33333333333334 105.01254848277435,72.0 105.295459730778,72.0 105.55099247091033,73.33333333333334 105.83390371891399,74.0 106.1076887976272,78.0 106.39060004563085,77.33333333333333 106.66438512434405,77.33333333333333 106.94729637234771,77.33333333333333 107.23020762035136,79.33333333333333 107.50399269906457,80.0 107.78690394706821,82.0 108.06068902578143,83.33333333333333 108.34360027378509,82.0 108.62651152178873,84.0 108.88204426192105,84.0 109.16495550992471,80.0 109.43874058863791,82.0 109.72165183664157,82.0 109.99543691535479,80.66666666666667 110.27834816335843,81.33333333333333 110.56125941136209,81.33333333333333 110.8350444900753,82.66666666666667 111.11795573807893,82.0 111.39174081679214,82.0 111.6746520647958,81.33333333333333 111.95756331279946,82.66666666666667 112.22222222222221,82.66666666666667 112.50513347022587,82.0 112.77891854893907,82.0 113.06182979694273,84.66666666666667 113.33561487565595,82.66666666666667 113.6185261236596,86.0 113.90143737166323,85.33333333333333 114.17522245037645,85.33333333333333 114.45813369838011,83.33333333333333 114.73191877709331,83.33333333333333 115.01483002509697,84.0 115.29774127310061,84.66666666666667 115.55327401323295,85.33333333333333 115.8361852612366,86.66666666666667 116.1099703399498,88.0 116.39288158795345,87.33333333333333 116.66666666666667,88.0 116.94957791467033,88.66666666666667 117.23248916267396,88.0 117.50627424138716,90.0 117.78918548939083,91.33333333333333 118.06297056810403,90.0 118.34588181610769,90.66666666666667 118.62879306411133,91.33333333333333 118.88432580424367,90.0 119.16723705224732,94.0 119.44102213096052,93.33333333333333 119.72393337896418,92.0 119.99771845767738,91.33333333333333 120.28062970568104,92.0 120.56354095368468,91.33333333333333 120.83732603239791,91.33333333333333 121.12023728040154,92.66666666666667 121.39402235911476,93.33333333333333 121.67693360711841,94.0 121.95984485512207,92.66666666666667 122.2153775952544,95.33333333333333 122.49828884325804,93.33333333333333 122.77207392197126,95.33333333333333 123.0549851699749,94.0 123.3287702486881,93.33333333333333 123.61168149669176,95.33333333333333 123.89459274469542,94.66666666666667 124.16837782340863,95.33333333333333 124.45128907141226,96.0 124.7250741501255,96.66666666666667 125.00798539812914,96.0 125.2908966461328,94.66666666666667 125.55555555555554,96.0 125.8384668035592,98.0 126.1122518822724,96.0 126.39516313027607,96.66666666666667 126.66894820898928,96.0 126.95185945699293,94.66666666666667 127.23477070499658,96.66666666666667 127.50855578370978,97.33333333333333 127.79146703171344,96.66666666666667 128.06525211042663,96.66666666666667 128.3481633584303,93.33333333333333 128.63107460643394,92.66666666666667 128.88660734656628,92.66666666666667 129.16951859456992,91.33333333333333 129.44330367328314,92.0 129.72621492128678,89.33333333333333 130.0,88.66666666666667 130.28291124800364,84.66666666666667 130.56582249600729,84.0 130.8396075747205,79.33333333333333 131.12251882272415,76.66666666666667 131.39630390143736,74.66666666666667 131.679215149441,75.33333333333333 131.96212639744468,75.33333333333333 132.21765913757702,74.66666666666667 132.50057038558066,72.0 132.77435546429388,74.0 133.05726671229752,74.0 133.3310517910107,74.0 133.61396303901438,74.66666666666667 133.89687428701802,74.66666666666667 134.17065936573124,74.66666666666667 134.45357061373488,72.66666666666666 134.7273556924481,71.33333333333334 135.01026694045174,72.66666666666666 135.29317818845539,72.0 135.54871092858772,72.0 135.8316221765914,70.0 136.10540725530458,69.33333333333334 136.38831850330823,66.66666666666666 136.66210358202147,68.66666666666666 136.9450148300251,69.33333333333334 137.22792607802876,69.33333333333334 137.50171115674198,70.66666666666666 137.78462240474562,72.0 138.05840748345884,74.66666666666667 138.34131873146245,74.0 138.62422997946612,75.33333333333333 138.88888888888889,72.66666666666666 139.17180013689253,75.33333333333333 139.44558521560575,75.33333333333333 139.7284964636094,74.66666666666667 140.0022815423226,76.0 140.28519279032628,77.33333333333333 140.5681040383299,77.33333333333333 140.84188911704314,76.66666666666667 141.12480036504678,77.33333333333333 141.39858544375997,77.33333333333333 141.68149669176364,78.66666666666667 141.96440793976728,77.33333333333333 142.21994067989962,79.33333333333333 142.50285192790327,80.0 142.77663700661648,80.0 143.05954825462013,80.66666666666667 143.33333333333331,82.0 143.61624458133699,82.66666666666667 143.89915582934066,80.66666666666667 144.17294090805385,81.33333333333333 144.4558521560575,80.66666666666667 144.7296372347707,83.33333333333333 145.01254848277435,84.66666666666667 145.29545973077802,84.0 145.55099247091033,84.66666666666667 145.833903718914,84.0 146.1076887976272,85.33333333333333 146.39060004563083,85.33333333333333 146.66438512434405,84.0 146.9472963723477,84.66666666666667 147.23020762035136,86.66666666666667 147.50399269906458,87.33333333333333 147.78690394706823,86.66666666666667 148.06068902578144,87.33333333333333 148.34360027378509,84.66666666666667 148.62651152178873,86.0 148.88204426192107,87.33333333333333 149.1649555099247,86.66666666666667 149.43874058863793,87.33333333333333 149.72165183664157,85.33333333333333 149.9954369153548,84.0 150.27834816335843,84.66666666666667 150.56125941136207,84.0 150.8350444900753,83.33333333333333 151.11795573807896,83.33333333333333 151.39174081679215,80.0 151.6746520647958,79.33333333333333 151.95756331279944,81.33333333333333 152.22222222222223,78.66666666666667 152.50513347022587,80.0 152.7789185489391,74.0 153.06182979694273,72.0 153.33561487565595,69.33333333333334 153.6185261236596,65.33333333333334 153.90143737166326,64.66666666666666 154.17522245037645,60.0 154.4581336983801,56.0 154.7319187770933,49.333333333333336 155.01483002509696,43.333333333333336 155.29774127310063,36.0 155.55327401323294,32.0 155.8361852612366,28.0 156.10997033994983,22.666666666666664 156.39288158795344,21.333333333333336 156.66666666666666,22.0 156.94957791467033,20.0 157.23248916267397,18.666666666666664 157.5062742413872,16.0 157.78918548939083,16.666666666666668 158.06297056810405,18.0 158.3458818161077,18.0 158.62879306411133,18.0 158.88432580424367,16.666666666666668 159.16723705224732,16.0 159.44102213096053,20.0 159.72393337896418,23.333333333333336 159.9977184576774,22.666666666666664 160.28062970568104,21.333333333333336 160.5635409536847,22.0 160.8373260323979,22.666666666666664 161.12023728040157,18.0 161.39402235911476,24.0 161.6769336071184,26.666666666666668 161.95984485512207,28.666666666666668 162.21537759525438,29.333333333333332 162.49828884325805,27.333333333333332 162.77207392197124,28.0 163.0549851699749,27.333333333333332 163.32877024868813,28.666666666666668 163.61168149669174,28.666666666666668 163.89459274469542,27.333333333333332 164.16837782340863,30.666666666666668 164.45128907141228,32.66666666666667 164.7250741501255,34.66666666666667 165.00798539812914,37.33333333333333 165.29089664613278,36.66666666666667 165.55555555555557,38.0 165.83846680355921,38.0 166.11225188227243,38.0 166.39516313027605,38.0 166.66894820898926,38.0 166.95185945699293,40.0 167.23477070499658,42.666666666666664 167.5085557837098,42.666666666666664 167.79146703171344,43.333333333333336 168.06525211042666,41.33333333333333 168.3481633584303,40.0 168.63107460643394,44.0 168.88660734656628,46.0 169.16951859456992,45.333333333333336 169.44330367328314,46.666666666666664 169.72621492128678,46.0 170.0,49.333333333333336 170.28291124800364,50.0 170.5658224960073,50.0 170.8396075747205,50.666666666666664 171.12251882272417,54.0 171.39630390143736,56.666666666666664 171.679215149441,58.666666666666664 171.96212639744468,57.333333333333336 172.217659137577,57.333333333333336 172.50057038558066,62.666666666666664 172.77435546429388,61.333333333333336 173.05726671229752,64.66666666666666 173.33105179101074,63.333333333333336 173.61396303901438,64.0 173.89687428701802,66.66666666666666 174.17065936573124,68.66666666666666 174.45357061373488,68.0 174.7273556924481,71.33333333333334 175.01026694045174,69.33333333333334 175.29317818845539,72.0 175.54871092858772,72.66666666666666 175.83162217659137,72.66666666666666 " fill="none" stroke-width="1" stroke="black" stroke-opacity="1" stroke-dasharray=""></polyline>
</g>
</svg>