<?xml version="1.0" encoding="utf-8"?><svg xmlns="http://www.w3.org/2000/svg" id="gg-355" viewBox="0 0 280 208.33333333333334" height="550" width="825.0">
<style type="text/css"><![CDATA[#gg-355 .gg-axis-text {fill: #808080;font-size: 6px;} #gg-355 .gg-axis-text-x {} #gg-355 .gg-axis-ticks {stroke: #000000;} #gg-355 .gg-axis-title {fill: #000000;font-size: 8px;} #gg-355 .gg-legend-key {stroke: #EEEEEE;fill: #EEEEEE;stroke-width: 0.5;} #gg-355 .gg-legend-text {fill: #000000;font-size: 6px;} #gg-355 .gg-legend-title {fill: #000000;font-size: 8px;} #gg-355 .gg-panel-background {fill: #EEEEEE;} #gg-355 .gg-panel-border {} #gg-355 .gg-panel-grid {stroke: #FFFFFF;} #gg-355 .gg-panel-grid-major {stroke-width: 1;} #gg-355 .gg-panel-grid-minor {stroke-width: 0.5;} #gg-355 .gg-plot-background {fill: #FFFFFF;} #gg-355 .gg-plot-title {font-size: 10px;} #gg-355 .gg-text {font-family: Helvetica, Arial, sans-serif;} ]]></style><rect class="gg-plot-background" width="100%" height="100%"></rect><g transform="translate(50, 10)">
<rect x="0" y="0" height="153.33333333333334" width="220" class="gg-panel-background gg-panel-border"></rect>
<g opacity="1" transform="translate(0, 153.33333333333334)">
<line x2="220" class="gg-axis-line gg-axis-line-x"></line>
</g>
<g transform="translate(10,153.33333333333334)" font-size="10" text-anchor="middle">
<g opacity="1" transform="translate(200.0,0)">
<text y="11" class="gg-text gg-axis-text gg-axis-text-x" text-anchor="middle">2025-07-01</text>
</g>
<g opacity="1" transform="translate(149.9977184576774,0)">
<text y="11" class="gg-text gg-axis-text gg-axis-text-x" text-anchor="middle">2010-07-01</text>
</g>
<g opacity="1" transform="translate(99.99543691535479,0)">
<text y="11" class="gg-text gg-axis-text gg-axis-text-x" text-anchor="middle">1995-07-01</text>
</g>
<g opacity="1" transform="translate(50.00228154232261,0)">
<text y="11" class="gg-text gg-axis-text gg-axis-text-x" text-anchor="middle">1980-07-01</text>
</g>
<g opacity="1" transform="translate(0.0,0)">
<text y="11" class="gg-text gg-axis-text gg-axis-text-x" text-anchor="middle">1965-07-01</text>
</g>
<g opacity="1" transform="translate(200.0,0)">
<line y2="-153.33333333333334" class="gg-panel-grid gg-panel-grid-major"></line>
</g>
<g opacity="1" transform="translate(149.9977184576774,0)">
<line y2="-153.33333333333334" class="gg-panel-grid gg-panel-grid-major"></line>
</g>
<g opacity="1" transform="translate(99.99543691535479,0)">
<line y2="-153.33333333333334" class="gg-panel-grid gg-panel-grid-major"></line>
</g>
<g opacity="1" transform="translate(50.00228154232261,0)">
<line y2="-153.33333333333334" class="gg-panel-grid gg-panel-grid-major"></line>
</g>
<g opacity="1" transform="translate(0.0,0)">
<line y2="-153.33333333333334" class="gg-panel-grid gg-panel-grid-major"></line>
</g>
<g opacity="1" transform="translate(149.9977184576774,0)">
<line y2="-153.33333333333334" class="gg-panel-grid gg-panel-grid-minor" transform="translate(25.001140771161307, 0)"></line>
</g>
<g opacity="1" transform="translate(99.99543691535479,0)">
<line y2="-153.33333333333334" class="gg-panel-grid gg-panel-grid-minor" transform="translate(25.001140771161307, 0)"></line>
</g>
<g opacity="1" transform="translate(50.00228154232261,0)">
<line y2="-153.33333333333334" class="gg-panel-grid gg-panel-grid-minor" transform="translate(25.001140771161307, 0)"></line>
</g>
<g opacity="1" transform="translate(0.0,0)">
<line y2="-153.33333333333334" class="gg-panel-grid gg-panel-grid-minor" transform="translate(25.001140771161307, 0)"></line>
</g>
</g>
<g transform="translate(10,153.33333333333334)" font-size="10" text-anchor="middle">
<g opacity="1" transform="translate(200.0,0)">
<line y2="2" class="gg-axis-ticks gg-axis-ticks-x"></line>
</g>
<g opacity="1" transform="translate(149.9977184576774,0)">
<line y2="2" class="gg-axis-ticks gg-axis-ticks-x"></line>
</g>
<g opacity="1" transform="translate(99.99543691535479,0)">
<line y2="2" class="gg-axis-ticks gg-axis-ticks-x"></line>
</g>
<g opacity="1" transform="translate(50.00228154232261,0)">
<line y2="2" class="gg-axis-ticks gg-axis-ticks-x"></line>
</g>
<g opacity="1" transform="translate(0.0,0)">
<line y2="2" class="gg-axis-ticks gg-axis-ticks-x"></line>
</g>
</g>
<text x="110.0" y="188.33333333333334" class="gg-text gg-axis-title" text-anchor="middle">date</text>
<g transform="translate(0, 0)">
<line y2="153.33333333333334" class="gg-axis-line gg-axis-line-y"></line>
</g>
<g transform="translate(0, 0)" font-size="10" text-anchor="end">
<g opacity="1" transform="translate(0,10.0)">
<text x="-11" dy="0.32em" class="gg-text gg-axis-text gg-axis-text-y">1.6e4</text>
</g>
<g opacity="1" transform="translate(0,43.33333333333334)">
<text x="-11" dy="0.32em" class="gg-text gg-axis-text gg-axis-text-y">1.2e4</text>
</g>
<g opacity="1" transform="translate(0,76.66666666666667)">
<text x="-11" dy="0.32em" class="gg-text gg-axis-text gg-axis-text-y">8.0e3</text>
</g>
<g opacity="1" transform="translate(0,110.0)">
<text x="-11" dy="0.32em" class="gg-text gg-axis-text gg-axis-text-y">4.0e3</text>
</g>
<g opacity="1" transform="translate(0,143.33333333333334)">
<text x="-11" dy="0.32em" class="gg-text gg-axis-text gg-axis-text-y">0.0</text>
</g>
<g opacity="1" transform="translate(0,10.0)">
<line x2="220" class="gg-panel-grid gg-panel-grid-major"></line>
</g>
<g opacity="1" transform="translate(0,43.33333333333334)">
<line x2="220" class="gg-panel-grid gg-panel-grid-major"></line>
</g>
<g opacity="1" transform="translate(0,76.66666666666667)">
<line x2="220" class="gg-panel-grid gg-panel-grid-major"></line>
</g>
<g opacity="1" transform="translate(0,110.0)">
<line x2="220" class="gg-panel-grid gg-panel-grid-major"></line>
</g>
<g opacity="1" transform="translate(0,143.33333333333334)">
<line x2="220" class="gg-panel-grid gg-panel-grid-major"></line>
</g>
<g opacity="1" transform="translate(0,43.33333333333334)">
<line x2="220" class="gg-panel-grid gg-panel-grid-minor" transform="translate(0, -16.666666666666668)"></line>
</g>
<g opacity="1" transform="translate(0,76.66666666666667)">
<line x2="220" class="gg-panel-grid gg-panel-grid-minor" transform="translate(0, -16.666666666666668)"></line>
</g>
<g opacity="1" transform="translate(0,110.0)">
<line x2="220" class="gg-panel-grid gg-panel-grid-minor" transform="translate(0, -16.666666666666668)"></line>
</g>
<g opacity="1" transform="translate(0,143.33333333333334)">
<line x2="220" class="gg-panel-grid gg-panel-grid-minor" transform="translate(0, -16.666666666666668)"></line>
</g>
</g>
<g transform="translate(0, 0)" font-size="10" text-anchor="end">
<g opacity="1" transform="translate(0,10.0)">
<line x2="-2" class="gg-axis-ticks gg-axis-ticks-y"></line>
</g>
<g opacity="1" transform="translate(0,43.33333333333334)">
<line x2="-2" class="gg-axis-ticks gg-axis-ticks-y"></line>
</g>
<g opacity="1" transform="translate(0,76.66666666666667)">
<line x2="-2" class="gg-axis-ticks gg-axis-ticks-y"></line>
</g>
<g opacity="1" transform="translate(0,110.0)">
<line x2="-2" class="gg-axis-ticks gg-axis-ticks-y"></line>
</g>
<g opacity="1" transform="translate(0,143.33333333333334)">
<line x2="-2" class="gg-axis-ticks gg-axis-ticks-y"></line>
</g>
</g>
<text x="-73.33333333333333" y="-40" class="gg-text gg-axis-title" text-anchor="middle" transform="rotate(-90)">unemploy</text>
<polyline points="16.662103582021444,118.8 16.945014830025094,118.79166666666667 17.227926078028748,118.68333333333334 17.50171115674196,117.14166666666667 17.78462240474561,117.78333333333335 18.05840748345882,118.18333333333334 18.34131873146247,119.35000000000001 18.62422997946612,118.325 18.88888888888889,119.35833333333333 19.17180013689254,120.75833333333333 19.44558521560575,120.5 19.7284964636094,118.85000000000001 20.00228154232261,119.30833333333334 20.28519279032626,120.26666666666667 20.56810403832991,120.95 20.841889117043124,120.925 21.124800365046774,120.70833333333333 21.398585443759984,120.95833333333333 21.681496691763634,120.68333333333334 21.964407939767284,120.89999999999999 22.21994067989961,120.73333333333333 22.502851927903265,120.35000000000001 22.776637006616475,120.72500000000001 23.059548254620125,119.86666666666667 23.333333333333336,119.43333333333334 23.616244581336986,119.53333333333335 23.899155829340636,118.0 24.172940908053846,117.925 24.455852156057496,119.53333333333335 24.729637234770706,119.3 25.012548482774356,116.65833333333335 25.295459730778006,114.55833333333334 25.550992470910337,113.04166666666667 25.833903718913987,111.69166666666666 26.107688797627194,110.675 26.390600045630848,109.40833333333335 26.664385124344054,108.54166666666667 26.947296372347704,107.86666666666667 27.230207620351358,106.2 27.50399269906457,105.075 27.786903947068218,102.51666666666667 28.06068902578143,101.03333333333335 28.34360027378508,101.78333333333335 28.62651152178873,102.47500000000001 28.882044261921056,101.77499999999999 29.16495550992471,102.00833333333333 29.43874058863792,101.7 29.72165183664157,102.09166666666665 29.99543691535478,101.375 30.27834816335843,100.55 30.56125941136208,101.31666666666666 30.83504449007529,102.05 31.11795573807894,100.325 31.39174081679215,100.38333333333333 31.6746520647958,101.50833333333333 31.95756331279945,102.26666666666667 32.22222222222222,101.35000000000001 32.50513347022587,102.00833333333333 32.77891854893909,102.31666666666666 33.06182979694273,102.30833333333334 33.33561487565595,102.39166666666667 33.61852612365959,102.175 33.90143737166325,102.925 34.17522245037645,102.70833333333333 34.45813369838011,104.98333333333333 34.73191877709331,105.47500000000001 35.01483002509697,107.28333333333335 35.29774127310061,106.23333333333333 35.55327401323295,106.71666666666665 35.836185261236594,106.175 36.10997033994981,107.25833333333333 36.392881587953454,106.97499999999998 36.66666666666667,107.45833333333333 36.94957791467032,107.45833333333333 37.23248916267397,107.08333333333333 37.506274241387175,108.8 37.78918548939083,106.7 38.062970568104035,105.925 38.34588181610769,104.63333333333333 38.62879306411134,103.90833333333335 38.88432580424367,104.71666666666665 39.167237052247316,104.85000000000001 39.44102213096053,104.125 39.723933378964176,102.27500000000002 39.997718457677394,101.14166666666667 40.28062970568104,101.48333333333333 40.563540953684694,98.02499999999999 40.8373260323979,97.30833333333334 41.120237280401554,92.16666666666667 41.39402235911476,88.03333333333333 41.676933607118414,80.825 41.95984485512206,80.66666666666667 42.21537759525439,76.85000000000001 42.498288843258045,74.91666666666666 42.77207392197125,73.05833333333334 43.054985169974906,74.83333333333333 43.32877024868811,75.60833333333333 43.611681496691766,77.26666666666667 43.89459274469541,77.30833333333334 44.168377823408626,77.52499999999999 44.45128907141227,78.38333333333334 44.72507415012549,78.8 45.00798539812914,80.55 45.290896646132786,82.28333333333335 45.55555555555556,83.08333333333333 45.83846680355921,82.25 46.11225188227242,84.55833333333334 46.39516313027607,82.31666666666666 46.66894820898928,80.91666666666667 46.95185945699293,80.68333333333334 47.23477070499658,81.83333333333333 47.50855578370979,81.41666666666667 47.79146703171344,79.83333333333333 48.06525211042665,80.45833333333333 48.3481633584303,82.66666666666667 48.63107460643395,81.30833333333334 48.88660734656628,82.44166666666666 49.16951859456993,84.50833333333334 49.44330367328314,85.74166666666667 49.72621492128679,83.88333333333333 50.0,86.425 50.28291124800365,85.625 50.5658224960073,87.075 50.83960757472051,86.97500000000001 51.12251882272416,86.54166666666667 51.39630390143737,90.11666666666666 51.67921514944102,89.25833333333334 51.96212639744467,90.68333333333334 52.217659137577,90.525 52.50057038558065,91.83333333333333 52.77435546429386,92.275 53.05726671229751,93.10000000000001 53.33105179101072,90.75833333333334 53.61396303901437,92.66666666666667 53.89687428701802,92.29166666666667 54.17065936573123,93.77499999999999 54.45357061373488,92.69166666666666 54.72735569244809,91.43333333333334 55.01026694045174,92.425 55.2931781884554,91.89166666666667 55.548710928587724,92.425 55.831622176591374,92.75833333333334 56.105407255304584,94.66666666666667 56.388318503308234,93.675 56.662103582021444,93.36666666666666 56.945014830025094,90.66666666666667 57.227926078028744,91.75 57.50171115674196,90.86666666666666 57.784622404745605,91.35 58.05840748345882,90.625 58.341318731462465,87.64166666666667 58.62422997946612,87.48333333333333 58.888888888888886,87.25833333333334 59.17180013689254,82.01666666666667 59.445585215605746,76.8 59.7284964636094,75.85 60.00228154232261,73.64166666666668 60.28519279032626,74.325 60.568104038329906,76.49166666666666 60.841889117043124,75.93333333333334 61.124800365046774,76.47500000000001 61.398585443759984,79.01666666666667 61.68149669176363,76.075 61.964407939767284,76.24166666666666 62.219940679899615,76.81666666666666 62.50285192790326,77.75833333333334 62.776637006616475,75.21666666666667 63.059548254620125,75.85 63.333333333333336,77.80833333333332 63.61624458133698,76.36666666666667 63.89915582934064,74.75 64.17294090805385,71.28333333333333 64.45585215605749,68.09166666666667 64.7296372347707,66.10833333333335 65.01254848277435,65.025 65.295459730778,62.458333333333336 65.55099247091033,60.875 65.83390371891399,57.96666666666666 66.10768879762719,57.208333333333336 66.39060004563085,55.51666666666667 66.66438512434405,52.92499999999999 66.94729637234771,52.65833333333334 67.23020762035136,49.85833333333333 67.50399269906457,47.258333333333326 67.78690394706821,43.85 68.06068902578143,42.90833333333334 68.34360027378509,47.21666666666666 68.62651152178873,47.125 68.88204426192107,48.26666666666667 69.16495550992471,49.433333333333316 69.43874058863793,50.383333333333326 69.72165183664157,49.61666666666665 69.99543691535479,55.43333333333334 70.27834816335843,54.80833333333334 70.56125941136207,57.65 70.83504449007529,60.94166666666666 71.11795573807895,64.17499999999998 71.39174081679215,65.57500000000002 71.6746520647958,68.26666666666668 71.95756331279946,70.07499999999999 72.22222222222223,70.44999999999999 72.50513347022587,70.31666666666666 72.77891854893907,72.86666666666667 73.06182979694273,74.78333333333332 73.33561487565595,72.19166666666666 73.61852612365959,72.34166666666667 73.90143737166323,73.60833333333332 74.17522245037645,73.49166666666667 74.45813369838011,75.01666666666667 74.73191877709331,73.68333333333334 75.01483002509697,73.14166666666668 75.29774127310061,73.99166666666667 75.55327401323294,73.84166666666667 75.8361852612366,73.375 76.10997033994981,74.15 76.39288158795345,72.83333333333331 76.66666666666666,72.39166666666668 76.94957791467033,75.03333333333333 77.23248916267397,74.60000000000001 77.50627424138717,74.18333333333334 77.78918548939082,75.60000000000001 78.06297056810405,75.51666666666667 78.34588181610769,78.375 78.62879306411133,73.31666666666666 78.88432580424367,73.475 79.16723705224732,73.63333333333333 79.44102213096053,73.00833333333333 79.72393337896418,72.43333333333334 79.9977184576774,74.00833333333333 80.28062970568104,75.54166666666667 80.5635409536847,74.08333333333333 80.8373260323979,74.64166666666667 81.12023728040155,75.34166666666665 81.39402235911476,77.64166666666667 81.67693360711841,77.56666666666666 81.95984485512206,77.79166666666667 82.2153775952544,77.81666666666666 82.49828884325804,80.48333333333333 82.77207392197124,80.21666666666667 83.05498516997491,81.68333333333334 83.32877024868812,82.76666666666667 83.61168149669176,82.825 83.89459274469542,84.14999999999999 84.16837782340863,83.10833333333333 84.45128907141228,84.70833333333333 84.72507415012548,85.53333333333333 85.00798539812914,85.39166666666667 85.2908966461328,85.59166666666667 85.55555555555556,86.03333333333333 85.8384668035592,88.325 86.11225188227242,86.84166666666667 86.39516313027606,88.78333333333333 86.66894820898928,88.29166666666667 86.95185945699293,86.30833333333334 87.23477070499658,88.3 87.50855578370978,88.60000000000001 87.79146703171344,88.85833333333333 88.06525211042666,89.01666666666667 88.3481633584303,87.64999999999999 88.63107460643394,90.34166666666667 88.88660734656628,91.625 89.16951859456994,89.43333333333334 89.44330367328314,90.20833333333333 89.72621492128678,88.52499999999999 90.0,89.20833333333333 90.28291124800366,89.075 90.5658224960073,88.41666666666667 90.8396075747205,88.08333333333333 91.12251882272416,87.29166666666667 91.39630390143738,87.775 91.67921514944102,87.06666666666668 91.96212639744466,87.90833333333333 92.217659137577,88.35000000000001 92.50057038558066,86.69166666666668 92.77435546429386,87.14999999999999 93.05726671229752,88.41666666666667 93.33105179101072,85.65 93.61396303901437,83.43333333333334 93.89687428701802,81.93333333333332 94.17065936573124,81.175 94.45357061373488,78.63333333333334 94.72735569244809,77.49166666666666 95.01026694045176,76.54166666666667 95.2931781884554,74.45833333333333 95.54871092858772,71.78333333333333 95.83162217659137,73.00833333333333 96.10540725530458,70.53333333333333 96.38831850330824,70.9 96.66210358202144,71.78333333333333 96.9450148300251,71.11666666666667 97.22792607802874,70.65 97.50171115674196,69.65 97.7846224047456,68.90833333333333 98.05840748345882,66.68333333333334 98.34131873146247,65.975 98.62422997946612,64.54999999999998 98.88888888888889,64.5 99.17180013689254,64.875 99.44558521560575,62.13333333333333 99.7284964636094,59.66666666666668 100.00228154232262,61.25 100.28519279032626,61.775 100.5681040383299,61.824999999999996 100.84188911704312,65.01666666666668 101.12480036504678,63.625 101.39858544375998,63.69166666666666 101.68149669176363,65.625 101.96440793976728,66.80833333333334 102.21994067989961,67.86666666666667 102.50285192790327,67.41666666666666 102.77663700661647,67.09166666666667 103.05954825462013,67.32499999999999 103.33333333333333,68.91666666666666 103.61624458133699,70.30833333333334 103.89915582934063,70.71666666666667 104.17294090805385,70.41666666666666 104.45585215605749,72.15 104.7296372347707,72.69166666666666 105.01254848277435,71.41666666666666 105.295459730778,71.80833333333334 105.55099247091033,72.75 105.83390371891399,73.90833333333333 106.1076887976272,77.375 106.39060004563085,77.275 106.66438512434405,77.11666666666666 106.94729637234771,77.22500000000001 107.23020762035136,78.88333333333334 107.50399269906457,79.73333333333333 107.78690394706821,81.875 108.06068902578143,83.08333333333333 108.34360027378509,81.875 108.62651152178873,83.44166666666666 108.88204426192105,83.72500000000001 109.16495550992471,79.625 109.43874058863791,81.41666666666667 109.72165183664157,81.44166666666668 109.99543691535479,80.60833333333333 110.27834816335843,80.96666666666667 110.56125941136209,81.01666666666667 110.8350444900753,82.26666666666667 111.11795573807893,81.45 111.39174081679214,81.47500000000001 111.6746520647958,80.90833333333335 111.95756331279946,82.39166666666667 112.22222222222221,82.35000000000001 112.50513347022587,81.54166666666667 112.77891854893907,81.47500000000001 113.06182979694273,84.20833333333333 113.33561487565595,82.19166666666668 113.6185261236596,85.98333333333333 113.90143737166323,85.175 114.17522245037645,84.74166666666666 114.45813369838011,83.03333333333333 114.73191877709331,82.89166666666667 115.01483002509697,83.68333333333332 115.29774127310061,84.14999999999999 115.55327401323295,85.0 115.8361852612366,86.05833333333332 116.1099703399498,87.875 116.39288158795345,86.675 116.66666666666667,87.875 116.94957791467033,88.26666666666667 117.23248916267396,87.86666666666666 117.50627424138716,89.55 117.78918548939083,90.76666666666667 118.06297056810403,89.36666666666666 118.34588181610769,90.26666666666667 118.62879306411133,90.78333333333333 118.88432580424367,89.81666666666668 119.16723705224732,93.825 119.44102213096052,92.94166666666668 119.72393337896418,91.56666666666668 119.99771845767738,91.175 120.28062970568104,91.84166666666667 120.56354095368468,90.83333333333333 120.83732603239791,91.0 121.12023728040154,92.5 121.39402235911476,93.06666666666666 121.67693360711841,93.53333333333333 121.95984485512207,92.40833333333333 122.2153775952544,95.14166666666667 122.49828884325804,93.3 122.77207392197126,95.03333333333333 123.0549851699749,93.74166666666667 123.3287702486881,93.125 123.61168149669176,94.68333333333334 123.89459274469542,94.04166666666667 124.16837782340863,95.18333333333334 124.45128907141226,95.7 124.7250741501255,96.22500000000001 125.00798539812914,95.76666666666665 125.2908966461328,94.51666666666667 125.55555555555554,95.55833333333334 125.8384668035592,97.65833333333335 126.1122518822724,95.35000000000001 126.39516313027607,96.24166666666667 126.66894820898928,95.44166666666666 126.95185945699293,94.55833333333334 127.23477070499658,96.45833333333333 127.50855578370978,97.21666666666665 127.79146703171344,96.34166666666665 128.06525211042663,96.38333333333333 128.3481633584303,93.14166666666667 128.63107460643394,92.59166666666665 128.88660734656628,92.15833333333333 129.16951859456992,91.075 129.44330367328314,91.45 129.72621492128678,89.3 130.0,88.475 130.28291124800364,84.65 130.56582249600729,83.81666666666666 130.8396075747205,79.21666666666667 131.12251882272415,76.64166666666667 131.39630390143736,74.51666666666667 131.679215149441,75.14999999999999 131.96212639744468,74.875 132.21765913757702,74.13333333333334 132.50057038558066,71.67500000000001 132.77435546429388,73.34166666666667 133.05726671229752,73.39166666666665 133.3310517910107,73.41666666666666 133.61396303901438,74.13333333333334 133.89687428701802,74.575 134.17065936573124,74.10833333333333 134.45357061373488,72.33333333333334 134.7273556924481,71.33333333333334 135.01026694045174,72.33333333333334 135.29317818845539,71.51666666666665 135.54871092858772,71.76666666666668 135.8316221765914,69.65 136.10540725530458,68.69166666666666 136.38831850330823,66.11666666666667 136.66210358202147,68.24166666666667 136.9450148300251,69.19999999999999 137.22792607802876,68.99166666666667 137.50171115674198,70.56666666666666 137.78462240474562,71.86666666666667 138.05840748345884,74.02499999999999 138.34131873146245,73.58333333333334 138.62422997946612,75.275 138.88888888888889,72.57500000000002 139.17180013689253,75.25 139.44558521560575,74.9 139.7284964636094,74.28333333333335 140.0022815423226,75.53333333333335 140.28519279032628,76.75 140.5681040383299,77.275 140.84188911704314,76.15833333333333 141.12480036504678,77.23333333333333 141.39858544375997,77.21666666666667 141.68149669176364,78.46666666666667 141.96440793976728,76.83333333333333 142.21994067989962,78.85833333333333 142.50285192790327,79.4 142.77663700661648,79.575 143.05954825462013,80.63333333333334 143.33333333333331,81.61666666666666 143.61624458133699,82.125 143.89915582934066,80.39166666666667 144.17294090805385,81.225 144.4558521560575,80.28333333333333 144.7296372347707,82.675 145.01254848277435,84.46666666666667 145.29545973077802,83.46666666666667 145.55099247091033,84.39999999999999 145.833903718914,84.0 146.1076887976272,85.16666666666667 146.39060004563083,84.99166666666666 146.66438512434405,83.54166666666667 146.9472963723477,84.24166666666666 147.23020762035136,86.27499999999999 147.50399269906458,87.27499999999999 147.78690394706823,86.06666666666666 148.06068902578144,86.98333333333333 148.34360027378509,84.03333333333335 148.62651152178873,85.60833333333333 148.88204426192107,87.24166666666666 149.1649555099247,86.25 149.43874058863793,86.95 149.72165183664157,85.175 149.9954369153548,83.75833333333334 150.27834816335843,84.44166666666666 150.56125941136207,83.58333333333333 150.8350444900753,83.02499999999999 151.11795573807896,83.0 151.39174081679215,79.625 151.6746520647958,79.29166666666667 151.95756331279944,80.85833333333333 152.22222222222223,78.14999999999999 152.50513347022587,79.69166666666668 152.7789185489391,73.375 153.06182979694273,71.875 153.33561487565595,68.85833333333335 153.6185261236596,64.68333333333334 153.90143737166326,64.21666666666667 154.17522245037645,59.38333333333333 154.4581336983801,55.51666666666667 154.7319187770933,49.28333333333334 155.01483002509696,42.85 155.29774127310063,35.85000000000001 155.55327401323294,31.450000000000006 155.8361852612366,27.89166666666667 156.10997033994983,22.508333333333326 156.39288158795344,20.775 156.66666666666666,21.658333333333324 156.94957791467033,19.883333333333326 157.23248916267397,18.258333333333326 157.5062742413872,15.399999999999995 157.78918548939083,16.508333333333344 158.06297056810405,17.51666666666665 158.3458818161077,17.950000000000006 158.62879306411133,17.39166666666667 158.88432580424367,16.649999999999995 159.16723705224732,15.625 159.44102213096053,19.59166666666666 159.72393337896418,22.71666666666666 159.9977184576774,22.4 160.28062970568104,21.266666666666673 160.5635409536847,21.84166666666666 160.8373260323979,22.366666666666674 161.12023728040157,17.658333333333342 161.39402235911476,23.76666666666665 161.6769336071184,26.558333333333337 161.95984485512207,28.166666666666668 162.21537759525438,28.85833333333333 162.49828884325805,27.024999999999995 162.77207392197124,27.875 163.0549851699749,26.98333333333333 163.32877024868813,28.64166666666667 163.61168149669174,28.183333333333337 163.89459274469542,27.100000000000005 164.16837782340863,30.05000000000001 164.45128907141228,32.483333333333334 164.7250741501255,34.22500000000001 165.00798539812914,36.69166666666666 165.29089664613278,36.55833333333334 165.55555555555557,37.391666666666666 165.83846680355921,37.94999999999999 166.11225188227243,37.83333333333333 166.39516313027605,37.56666666666666 166.66894820898926,37.86666666666666 166.95185945699293,39.408333333333346 167.23477070499658,42.375 167.5085557837098,42.29999999999999 167.79146703171344,43.291666666666664 168.06525211042666,40.85000000000001 168.3481633584303,39.408333333333346 168.63107460643394,43.75 168.88660734656628,45.92499999999999 169.16951859456992,45.333333333333336 169.44330367328314,46.21666666666666 169.72621492128678,45.40833333333334 170.0,48.875 170.28291124800364,49.34166666666666 170.5658224960073,49.416666666666664 170.8396075747205,50.53333333333334 171.12251882272417,53.44166666666666 171.39630390143736,56.633333333333326 171.679215149441,58.31666666666666 171.96212639744468,57.09166666666666 172.217659137577,56.833333333333336 172.50057038558066,62.48333333333333 172.77435546429388,61.175000000000004 173.05726671229752,64.5 173.33105179101074,63.26666666666666 173.61396303901438,63.34166666666667 173.89687428701802,66.15 174.17065936573124,68.41666666666666 174.45357061373488,67.58333333333334 174.7273556924481,70.69166666666666 175.01026694045174,69.14166666666665 175.29317818845539,71.58333333333334 175.54871092858772,72.46666666666667 175.83162217659137,72.28333333333333 " fill="none" stroke-width="1" stroke="black" stroke-opacity="1" stroke-dasharray=""></polyline>
</g>
</svg>