<?xml version="1.0" encoding="utf-8"?><svg xmlns="http://www.w3.org/2000/svg" id="gg-482" viewBox="0 0 360 208.33333333333334" height="550" width="825.0">
<style type="text/css"><![CDATA[#gg-482 .gg-axis-text {fill: #808080;font-size: 6px;} #gg-482 .gg-axis-text-x {} #gg-482 .gg-axis-ticks {stroke: #000000;} #gg-482 .gg-axis-title {fill: #000000;font-size: 8px;} #gg-482 .gg-legend-key {stroke: #EEEEEE;fill: #EEEEEE;stroke-width: 0.5;} #gg-482 .gg-legend-text {fill: #000000;font-size: 6px;} #gg-482 .gg-legend-title {fill: #000000;font-size: 8px;} #gg-482 .gg-panel-background {fill: #EEEEEE;} #gg-482 .gg-panel-border {} #gg-482 .gg-panel-grid {stroke: #FFFFFF;} #gg-482 .gg-panel-grid-major {stroke-width: 1;} #gg-482 .gg-panel-grid-minor {stroke-width: 0.5;} #gg-482 .gg-plot-background {fill: #FFFFFF;} #gg-482 .gg-plot-title {font-size: 10px;} #gg-482 .gg-text {font-family: Helvetica, Arial, sans-serif;} ]]></style><rect class="gg-plot-background" width="100%" height="100%"></rect><g transform="translate(50, 10)">
<rect x="0" y="0" height="153.33333333333334" width="220" class="gg-panel-background gg-panel-border"></rect>
<g opacity="1" transform="translate(0, 153.33333333333334)">
<line x2="220" class="gg-axis-line gg-axis-line-x"></line>
</g>
<g transform="translate(10,153.33333333333334)" font-size="10" text-anchor="middle">
<g opacity="1" transform="translate(200.0,0)">
<text y="11" class="gg-text gg-axis-text gg-axis-text-x" text-anchor="middle">6.0</text>
</g>
<g opacity="1" transform="translate(160.0,0)">
<text y="11" class="gg-text gg-axis-text gg-axis-text-x" text-anchor="middle">5.0</text>
</g>
<g opacity="1" transform="translate(120.0,0)">
<text y="11" class="gg-text gg-axis-text gg-axis-text-x" text-anchor="middle">4.0</text>
</g>
<g opacity="1" transform="translate(80.0,0)">
<text y="11" class="gg-text gg-axis-text gg-axis-text-x" text-anchor="middle">3.0</text>
</g>
<g opacity="1" transform="translate(40.0,0)">
<text y="11" class="gg-text gg-axis-text gg-axis-text-x" text-anchor="middle">2.0</text>
</g>
<g opacity="1" transform="translate(0.0,0)">
<text y="11" class="gg-text gg-axis-text gg-axis-text-x" text-anchor="middle">1.0</text>
</g>
<g opacity="1" transform="translate(200.0,0)">
<line y2="-153.33333333333334" class="gg-panel-grid gg-panel-grid-major"></line>
</g>
<g opacity="1" transform="translate(160.0,0)">
<line y2="-153.33333333333334" class="gg-panel-grid gg-panel-grid-major"></line>
</g>
<g opacity="1" transform="translate(120.0,0)">
<line y2="-153.33333333333334" class="gg-panel-grid gg-panel-grid-major"></line>
</g>
<g opacity="1" transform="translate(80.0,0)">
<line y2="-153.33333333333334" class="gg-panel-grid gg-panel-grid-major"></line>
</g>
<g opacity="1" transform="translate(40.0,0)">
<line y2="-153.33333333333334" class="gg-panel-grid gg-panel-grid-major"></line>
</g>
<g opacity="1" transform="translate(0.0,0)">
<line y2="-153.33333333333334" class="gg-panel-grid gg-panel-grid-major"></line>
</g>
<g opacity="1" transform="translate(160.0,0)">
<line y2="-153.33333333333334" class="gg-panel-grid gg-panel-grid-minor" transform="translate(20.0, 0)"></line>
</g>
<g opacity="1" transform="translate(120.0,0)">
<line y2="-153.33333333333334" class="gg-panel-grid gg-panel-grid-minor" transform="translate(20.0, 0)"></line>
</g>
<g opacity="1" transform="translate(80.0,0)">
<line y2="-153.33333333333334" class="gg-panel-grid gg-panel-grid-minor" transform="translate(20.0, 0)"></line>
</g>
<g opacity="1" transform="translate(40.0,0)">
<line y2="-153.33333333333334" class="gg-panel-grid gg-panel-grid-minor" transform="translate(20.0, 0)"></line>
</g>
<g opacity="1" transform="translate(0.0,0)">
<line y2="-153.33333333333334" class="gg-panel-grid gg-panel-grid-minor" transform="translate(20.0, 0)"></line>
</g>
</g>
<g transform="translate(10,153.33333333333334)" font-size="10" text-anchor="middle">
<g opacity="1" transform="translate(200.0,0)">
<line y2="2" class="gg-axis-ticks gg-axis-ticks-x"></line>
</g>
<g opacity="1" transform="translate(160.0,0)">
<line y2="2" class="gg-axis-ticks gg-axis-ticks-x"></line>
</g>
<g opacity="1" transform="translate(120.0,0)">
<line y2="2" class="gg-axis-ticks gg-axis-ticks-x"></line>
</g>
<g opacity="1" transform="translate(80.0,0)">
<line y2="2" class="gg-axis-ticks gg-axis-ticks-x"></line>
</g>
<g opacity="1" transform="translate(40.0,0)">
<line y2="2" class="gg-axis-ticks gg-axis-ticks-x"></line>
</g>
<g opacity="1" transform="translate(0.0,0)">
<line y2="2" class="gg-axis-ticks gg-axis-ticks-x"></line>
</g>
</g>
<text x="110.0" y="188.33333333333334" class="gg-text gg-axis-title" text-anchor="middle">wt</text>
<g transform="translate(0, 0)">
<line y2="153.33333333333334" class="gg-axis-line gg-axis-line-y"></line>
</g>
<g transform="translate(0, 0)" font-size="10" text-anchor="end">
<g opacity="1" transform="translate(0,10.0)">
<text x="-11" dy="0.32em" class="gg-text gg-axis-text gg-axis-text-y">37.5</text>
</g>
<g opacity="1" transform="translate(0,43.33333333333334)">
<text x="-11" dy="0.32em" class="gg-text gg-axis-text gg-axis-text-y">30.0</text>
</g>
<g opacity="1" transform="translate(0,76.66666666666667)">
<text x="-11" dy="0.32em" class="gg-text gg-axis-text gg-axis-text-y">22.5</text>
</g>
<g opacity="1" transform="translate(0,110.0)">
<text x="-11" dy="0.32em" class="gg-text gg-axis-text gg-axis-text-y">15.0</text>
</g>
<g opacity="1" transform="translate(0,143.33333333333334)">
<text x="-11" dy="0.32em" class="gg-text gg-axis-text gg-axis-text-y">7.5</text>
</g>
<g opacity="1" transform="translate(0,10.0)">
<line x2="220" class="gg-panel-grid gg-panel-grid-major"></line>
</g>
<g opacity="1" transform="translate(0,43.33333333333334)">
<line x2="220" class="gg-panel-grid gg-panel-grid-major"></line>
</g>
<g opacity="1" transform="translate(0,76.66666666666667)">
<line x2="220" class="gg-panel-grid gg-panel-grid-major"></line>
</g>
<g opacity="1" transform="translate(0,110.0)">
<line x2="220" class="gg-panel-grid gg-panel-grid-major"></line>
</g>
<g opacity="1" transform="translate(0,143.33333333333334)">
<line x2="220" class="gg-panel-grid gg-panel-grid-major"></line>
</g>
<g opacity="1" transform="translate(0,43.33333333333334)">
<line x2="220" class="gg-panel-grid gg-panel-grid-minor" transform="translate(0, -16.666666666666668)"></line>
</g>
<g opacity="1" transform="translate(0,76.66666666666667)">
<line x2="220" class="gg-panel-grid gg-panel-grid-minor" transform="translate(0, -16.666666666666668)"></line>
</g>
<g opacity="1" transform="translate(0,110.0)">
<line x2="220" class="gg-panel-grid gg-panel-grid-minor" transform="translate(0, -16.666666666666668)"></line>
</g>
<g opacity="1" transform="translate(0,143.33333333333334)">
<line x2="220" class="gg-panel-grid gg-panel-grid-minor" transform="translate(0, -16.666666666666668)"></line>
</g>
</g>
<g transform="translate(0, 0)" font-size="10" text-anchor="end">
<g opacity="1" transform="translate(0,10.0)">
<line x2="-2" class="gg-axis-ticks gg-axis-ticks-y"></line>
</g>
<g opacity="1" transform="translate(0,43.33333333333334)">
<line x2="-2" class="gg-axis-ticks gg-axis-ticks-y"></line>
</g>
<g opacity="1" transform="translate(0,76.66666666666667)">
<line x2="-2" class="gg-axis-ticks gg-axis-ticks-y"></line>
</g>
<g opacity="1" transform="translate(0,110.0)">
<line x2="-2" class="gg-axis-ticks gg-axis-ticks-y"></line>
</g>
<g opacity="1" transform="translate(0,143.33333333333334)">
<line x2="-2" class="gg-axis-ticks gg-axis-ticks-y"></line>
</g>
</g>
<text x="-73.33333333333333" y="-40" class="gg-text gg-axis-title" text-anchor="middle" transform="rotate(-90)">mpg</text>
<svg xmlns="http://www.w3.org/2000/svg" viewBox="0 0 10 10" x="72.99664664213212" y="81.52997997546545" height="3.6067067157357466" width="3.6067067157357466">
<circle cx="5" cy="5" r="4" fill-opacity="1" fill="black"></circle>
</svg><svg xmlns="http://www.w3.org/2000/svg" viewBox="0 0 10 10" x="83.08677845855043" y="81.42011179188376" height="3.8264430828991385" width="3.8264430828991385">
<circle cx="5" cy="5" r="4" fill-opacity="1" fill="black"></circle>
</svg><svg xmlns="http://www.w3.org/2000/svg" viewBox="0 0 10 10" x="60.60459760711921" y="73.13793094045255" height="4.390804785761565" width="4.390804785761565">
<circle cx="5" cy="5" r="4" fill-opacity="1" fill="black"></circle>
</svg><svg xmlns="http://www.w3.org/2000/svg" viewBox="0 0 10 10" x="96.27083706022957" y="79.22639261578513" height="4.658325879540847" width="4.658325879540847">
<circle cx="5" cy="5" r="4" fill-opacity="1" fill="black"></circle>
</svg><svg xmlns="http://www.w3.org/2000/svg" viewBox="0 0 10 10" x="105.68677845855042" y="91.64233401410598" height="3.8264430828991385" width="3.8264430828991385">
<circle cx="5" cy="5" r="4" fill-opacity="1" fill="black"></circle>
</svg><svg xmlns="http://www.w3.org/2000/svg" viewBox="0 0 10 10" x="105.95178636553099" y="93.7740085877532" height="4.896427268938036" width="4.896427268938036">
<circle cx="5" cy="5" r="4" fill-opacity="1" fill="black"></circle>
</svg><svg xmlns="http://www.w3.org/2000/svg" viewBox="0 0 10 10" x="111.12667994693184" y="111.43779105804295" height="3.3466401061363023" width="3.3466401061363023">
<circle cx="5" cy="5" r="4" fill-opacity="1" fill="black"></circle>
</svg><svg xmlns="http://www.w3.org/2000/svg" viewBox="0 0 10 10" x="95.18477054230175" y="65.80699276452398" height="4.83045891539648" width="4.83045891539648">
<circle cx="5" cy="5" r="4" fill-opacity="1" fill="black"></circle>
</svg><svg xmlns="http://www.w3.org/2000/svg" viewBox="0 0 10 10" x="93.18079502932711" y="72.51412836266044" height="5.638409941345757" width="5.638409941345757">
<circle cx="5" cy="5" r="4" fill-opacity="1" fill="black"></circle>
</svg><svg xmlns="http://www.w3.org/2000/svg" viewBox="0 0 10 10" x="105.45669647506472" y="89.19002980839807" height="4.286607049870562" width="4.286607049870562">
<circle cx="5" cy="5" r="4" fill-opacity="1" fill="black"></circle>
</svg><svg xmlns="http://www.w3.org/2000/svg" viewBox="0 0 10 10" x="105.3569551943842" y="95.31251074993975" height="4.48608961123159" width="4.48608961123159">
<circle cx="5" cy="5" r="4" fill-opacity="1" fill="black"></circle>
</svg><svg xmlns="http://www.w3.org/2000/svg" viewBox="0 0 10 10" x="130.81568651670156" y="101.79346429447935" height="3.9686269665968856" width="3.9686269665968856">
<circle cx="5" cy="5" r="4" fill-opacity="1" fill="black"></circle>
</svg><svg xmlns="http://www.w3.org/2000/svg" viewBox="0 0 10 10" x="117.17927405783631" y="97.75705183561408" height="4.041451884327381" width="4.041451884327381">
<circle cx="5" cy="5" r="4" fill-opacity="1" fill="black"></circle>
</svg><svg xmlns="http://www.w3.org/2000/svg" viewBox="0 0 10 10" x="119.1083499336648" y="107.01946104477594" height="4.183300132670378" width="4.183300132670378">
<circle cx="5" cy="5" r="4" fill-opacity="1" fill="black"></circle>
</svg><svg xmlns="http://www.w3.org/2000/svg" viewBox="0 0 10 10" x="177.91183892703015" y="128.3562833714746" height="4.176322145939734" width="4.176322145939734">
<circle cx="5" cy="5" r="4" fill-opacity="1" fill="black"></circle>
</svg><svg xmlns="http://www.w3.org/2000/svg" viewBox="0 0 10 10" x="184.89996359255474" y="128.3844080369992" height="4.120072814890533" width="4.120072814890533">
<circle cx="5" cy="5" r="4" fill-opacity="1" fill="black"></circle>
</svg><svg xmlns="http://www.w3.org/2000/svg" viewBox="0 0 10 10" x="181.81201525827453" y="109.34534859160784" height="3.9759694834509656" width="3.9759694834509656">
<circle cx="5" cy="5" r="4" fill-opacity="1" fill="black"></circle>
</svg><svg xmlns="http://www.w3.org/2000/svg" viewBox="0 0 10 10" x="55.66614589144909" y="30.332812558115755" height="4.667708217101835" width="4.667708217101835">
<circle cx="5" cy="5" r="4" fill-opacity="1" fill="black"></circle>
</svg><svg xmlns="http://www.w3.org/2000/svg" viewBox="0 0 10 10" x="32.41959483887359" y="39.37515039442915" height="4.360810322252811" width="4.360810322252811">
<circle cx="5" cy="5" r="4" fill-opacity="1" fill="black"></circle>
</svg><svg xmlns="http://www.w3.org/2000/svg" viewBox="0 0 10 10" x="40.99991319601422" y="23.59991319601422" height="4.800173607971556" width="4.800173607971556">
<circle cx="5" cy="5" r="4" fill-opacity="1" fill="black"></circle>
</svg><svg xmlns="http://www.w3.org/2000/svg" viewBox="0 0 10 10" x="66.1832614953206" y="78.69437260643171" height="4.833477009358791" width="4.833477009358791">
<circle cx="5" cy="5" r="4" fill-opacity="1" fill="black"></circle>
</svg><svg xmlns="http://www.w3.org/2000/svg" viewBox="0 0 10 10" x="108.91557922250186" y="105.89335700027964" height="3.768841554996266" width="3.768841554996266">
<circle cx="5" cy="5" r="4" fill-opacity="1" fill="black"></circle>
</svg><svg xmlns="http://www.w3.org/2000/svg" viewBox="0 0 10 10" x="105.43414564798574" y="107.14525675909688" height="3.931708704028483" width="3.931708704028483">
<circle cx="5" cy="5" r="4" fill-opacity="1" fill="black"></circle>
</svg><svg xmlns="http://www.w3.org/2000/svg" viewBox="0 0 10 10" x="122.02314923555419" y="115.97870479110973" height="3.153701528891619" width="3.153701528891619">
<circle cx="5" cy="5" r="4" fill-opacity="1" fill="black"></circle>
</svg><svg xmlns="http://www.w3.org/2000/svg" viewBox="0 0 10 10" x="121.88107017672176" y="89.4144035100551" height="3.837859646556485" width="3.837859646556485">
<circle cx="5" cy="5" r="4" fill-opacity="1" fill="black"></circle>
</svg><svg xmlns="http://www.w3.org/2000/svg" viewBox="0 0 10 10" x="45.1569551943842" y="53.09028852771754" height="4.48608961123159" width="4.48608961123159">
<circle cx="5" cy="5" r="4" fill-opacity="1" fill="black"></circle>
</svg><svg xmlns="http://www.w3.org/2000/svg" viewBox="0 0 10 10" x="53.74876167570642" y="59.25987278681752" height="3.7024766485871767" width="3.7024766485871767">
<circle cx="5" cy="5" r="4" fill-opacity="1" fill="black"></circle>
</svg><svg xmlns="http://www.w3.org/2000/svg" viewBox="0 0 10 10" x="28.62978396296437" y="39.66533951851993" height="3.780432074071251" width="3.780432074071251">
<circle cx="5" cy="5" r="4" fill-opacity="1" fill="black"></circle>
</svg><svg xmlns="http://www.w3.org/2000/svg" viewBox="0 0 10 10" x="95.4498456878317" y="105.09429013227614" height="2.7003086243366083" width="2.7003086243366083">
<circle cx="5" cy="5" r="4" fill-opacity="1" fill="black"></circle>
</svg><svg xmlns="http://www.w3.org/2000/svg" viewBox="0 0 10 10" x="79.20247587394326" y="87.51358698505437" height="3.195048252113469" width="3.195048252113469">
<circle cx="5" cy="5" r="4" fill-opacity="1" fill="black"></circle>
</svg><svg xmlns="http://www.w3.org/2000/svg" viewBox="0 0 10 10" x="111.42310736317847" y="108.62310736317848" height="2.753785273643051" width="2.753785273643051">
<circle cx="5" cy="5" r="4" fill-opacity="1" fill="black"></circle>
</svg><svg xmlns="http://www.w3.org/2000/svg" viewBox="0 0 10 10" x="79.00625890315197" y="79.36181445870753" height="4.387482193696062" width="4.387482193696062">
<circle cx="5" cy="5" r="4" fill-opacity="1" fill="black"></circle>
</svg></g>
<g transform="translate(275, 66.66666666666667)">
<g transform="translate(0, 0)">
<text x="0" y="-5" class="gg-text gg-legend-title" text-anchor="left">qsec</text>
<rect x="0" y="0" height="15" width="15" class="gg-legend-key"></rect>
<svg xmlns="http://www.w3.org/2000/svg" viewBox="0 0 10 10" x="5.792174872340067" y="5.792174872340067" height="3.415650255319866" width="3.415650255319866">
<circle cx="5" cy="5" r="4" fill-opacity="1" fill="black"></circle>
</svg><text x="20" y="7.5" class="gg-text gg-legend-text" text-anchor="left" dominant-baseline="middle">16.0</text>
<rect x="0" y="15" height="15" width="15" class="gg-legend-key"></rect>
<svg xmlns="http://www.w3.org/2000/svg" viewBox="0 0 10 10" x="5.08477054230176" y="20.08477054230176" height="4.83045891539648" width="4.83045891539648">
<circle cx="5" cy="5" r="4" fill-opacity="1" fill="black"></circle>
</svg><text x="20" y="22.5" class="gg-text gg-legend-text" text-anchor="left" dominant-baseline="middle">20.0</text>
<rect x="0" y="30" height="15" width="15" class="gg-legend-key"></rect>
<svg xmlns="http://www.w3.org/2000/svg" viewBox="0 0 10 10" x="4.541960108450192" y="34.54196010845019" height="5.916079783099616" width="5.916079783099616">
<circle cx="5" cy="5" r="4" fill-opacity="1" fill="black"></circle>
</svg><text x="20" y="37.5" class="gg-text gg-legend-text" text-anchor="left" dominant-baseline="middle">24.0</text>
<rect x="0" y="45" height="15" width="15" class="gg-legend-key"></rect>
<svg xmlns="http://www.w3.org/2000/svg" viewBox="0 0 10 10" x="4.084349744680134" y="49.08434974468013" height="6.831300510639732" width="6.831300510639732">
<circle cx="5" cy="5" r="4" fill-opacity="1" fill="black"></circle>
</svg><text x="20" y="52.5" class="gg-text gg-legend-text" text-anchor="left" dominant-baseline="middle">28.0</text>
</g>
</g>
</svg>