<?xml version="1.0" encoding="utf-8"?><svg xmlns="http://www.w3.org/2000/svg" id="gg-418" viewBox="0 0 280 223.33333333333334" height="550" width="825.0">
<style type="text/css"><![CDATA[#gg-418 .gg-axis-text {fill: #808080;font-size: 6px;} #gg-418 .gg-axis-text-x {} #gg-418 .gg-axis-ticks {stroke: #000000;} #gg-418 .gg-axis-title {fill: #000000;font-size: 8px;} #gg-418 .gg-legend-key {stroke: #EEEEEE;fill: #EEEEEE;stroke-width: 0.5;} #gg-418 .gg-legend-text {fill: #000000;font-size: 6px;} #gg-418 .gg-legend-title {fill: #000000;font-size: 8px;} #gg-418 .gg-panel-background {fill: #EEEEEE;} #gg-418 .gg-panel-border {} #gg-418 .gg-panel-grid {stroke: #FFFFFF;} #gg-418 .gg-panel-grid-major {stroke-width: 1;} #gg-418 .gg-panel-grid-minor {stroke-width: 0.5;} #gg-418 .gg-plot-background {fill: green;} #gg-418 .gg-plot-title {font-size: 10px;} #gg-418 .gg-text {font-family: Helvetica, Arial, sans-serif;} ]]></style><rect class="gg-plot-background" width="100%" height="100%"></rect><g transform="translate(50, 25)">
<rect x="0" y="0" height="153.33333333333334" width="220" class="gg-panel-background gg-panel-border"></rect>
<g opacity="1" transform="translate(0, 153.33333333333334)">
<line x2="220" class="gg-axis-line gg-axis-line-x"></line>
</g>
<g transform="translate(10,153.33333333333334)" font-size="10" text-anchor="middle">
<g opacity="1" transform="translate(200.0,0)">
<text y="11" class="gg-text gg-axis-text gg-axis-text-x" text-anchor="middle">6.0</text>
</g>
<g opacity="1" transform="translate(160.0,0)">
<text y="11" class="gg-text gg-axis-text gg-axis-text-x" text-anchor="middle">5.0</text>
</g>
<g opacity="1" transform="translate(120.0,0)">
<text y="11" class="gg-text gg-axis-text gg-axis-text-x" text-anchor="middle">4.0</text>
</g>
<g opacity="1" transform="translate(80.0,0)">
<text y="11" class="gg-text gg-axis-text gg-axis-text-x" text-anchor="middle">3.0</text>
</g>
<g opacity="1" transform="translate(40.0,0)">
<text y="11" class="gg-text gg-axis-text gg-axis-text-x" text-anchor="middle">2.0</text>
</g>
<g opacity="1" transform="translate(0.0,0)">
<text y="11" class="gg-text gg-axis-text gg-axis-text-x" text-anchor="middle">1.0</text>
</g>
<g opacity="1" transform="translate(200.0,0)">
<line y2="-153.33333333333334" class="gg-panel-grid gg-panel-grid-major"></line>
</g>
<g opacity="1" transform="translate(160.0,0)">
<line y2="-153.33333333333334" class="gg-panel-grid gg-panel-grid-major"></line>
</g>
<g opacity="1" transform="translate(120.0,0)">
<line y2="-153.33333333333334" class="gg-panel-grid gg-panel-grid-major"></line>
</g>
<g opacity="1" transform="translate(80.0,0)">
<line y2="-153.33333333333334" class="gg-panel-grid gg-panel-grid-major"></line>
</g>
<g opacity="1" transform="translate(40.0,0)">
<line y2="-153.33333333333334" class="gg-panel-grid gg-panel-grid-major"></line>
</g>
<g opacity="1" transform="translate(0.0,0)">
<line y2="-153.33333333333334" class="gg-panel-grid gg-panel-grid-major"></line>
</g>
<g opacity="1" transform="translate(160.0,0)">
<line y2="-153.33333333333334" class="gg-panel-grid gg-panel-grid-minor" transform="translate(20.0, 0)"></line>
</g>
<g opacity="1" transform="translate(120.0,0)">
<line y2="-153.33333333333334" class="gg-panel-grid gg-panel-grid-minor" transform="translate(20.0, 0)"></line>
</g>
<g opacity="1" transform="translate(80.0,0)">
<line y2="-153.33333333333334" class="gg-panel-grid gg-panel-grid-minor" transform="translate(20.0, 0)"></line>
</g>
<g opacity="1" transform="translate(40.0,0)">
<line y2="-153.33333333333334" class="gg-panel-grid gg-panel-grid-minor" transform="translate(20.0, 0)"></line>
</g>
<g opacity="1" transform="translate(0.0,0)">
<line y2="-153.33333333333334" class="gg-panel-grid gg-panel-grid-minor" transform="translate(20.0, 0)"></line>
</g>
</g>
<g transform="translate(10,153.33333333333334)" font-size="10" text-anchor="middle">
<g opacity="1" transform="translate(200.0,0)">
<line y2="2" class="gg-axis-ticks gg-axis-ticks-x"></line>
</g>
<g opacity="1" transform="translate(160.0,0)">
<line y2="2" class="gg-axis-ticks gg-axis-ticks-x"></line>
</g>
<g opacity="1" transform="translate(120.0,0)">
<line y2="2" class="gg-axis-ticks gg-axis-ticks-x"></line>
</g>
<g opacity="1" transform="translate(80.0,0)">
<line y2="2" class="gg-axis-ticks gg-axis-ticks-x"></line>
</g>
<g opacity="1" transform="translate(40.0,0)">
<line y2="2" class="gg-axis-ticks gg-axis-ticks-x"></line>
</g>
<g opacity="1" transform="translate(0.0,0)">
<line y2="2" class="gg-axis-ticks gg-axis-ticks-x"></line>
</g>
</g>
<text x="110.0" y="188.33333333333334" class="gg-text gg-axis-title" text-anchor="middle">wt</text>
<g transform="translate(0, 0)">
<line y2="153.33333333333334" class="gg-axis-line gg-axis-line-y"></line>
</g>
<g transform="translate(0, 0)" font-size="10" text-anchor="end">
<g opacity="1" transform="translate(0,10.0)">
<text x="-11" dy="0.32em" class="gg-text gg-axis-text gg-axis-text-y">37.5</text>
</g>
<g opacity="1" transform="translate(0,43.33333333333334)">
<text x="-11" dy="0.32em" class="gg-text gg-axis-text gg-axis-text-y">30.0</text>
</g>
<g opacity="1" transform="translate(0,76.66666666666667)">
<text x="-11" dy="0.32em" class="gg-text gg-axis-text gg-axis-text-y">22.5</text>
</g>
<g opacity="1" transform="translate(0,110.0)">
<text x="-11" dy="0.32em" class="gg-text gg-axis-text gg-axis-text-y">15.0</text>
</g>
<g opacity="1" transform="translate(0,143.33333333333334)">
<text x="-11" dy="0.32em" class="gg-text gg-axis-text gg-axis-text-y">7.5</text>
</g>
<g opacity="1" transform="translate(0,10.0)">
<line x2="220" class="gg-panel-grid gg-panel-grid-major"></line>
</g>
<g opacity="1" transform="translate(0,43.33333333333334)">
<line x2="220" class="gg-panel-grid gg-panel-grid-major"></line>
</g>
<g opacity="1" transform="translate(0,76.66666666666667)">
<line x2="220" class="gg-panel-grid gg-panel-grid-major"></line>
</g>
<g opacity="1" transform="translate(0,110.0)">
<line x2="220" class="gg-panel-grid gg-panel-grid-major"></line>
</g>
<g opacity="1" transform="translate(0,143.33333333333334)">
<line x2="220" class="gg-panel-grid gg-panel-grid-major"></line>
</g>
<g opacity="1" transform="translate(0,43.33333333333334)">
<line x2="220" class="gg-panel-grid gg-panel-grid-minor" transform="translate(0, -16.666666666666668)"></line>
</g>
<g opacity="1" transform="translate(0,76.66666666666667)">
<line x2="220" class="gg-panel-grid gg-panel-grid-minor" transform="translate(0, -16.666666666666668)"></line>
</g>
<g opacity="1" transform="translate(0,110.0)">
<line x2="220" class="gg-panel-grid gg-panel-grid-minor" transform="translate(0, -16.666666666666668)"></line>
</g>
<g opacity="1" transform="translate(0,143.33333333333334)">
<line x2="220" class="gg-panel-grid gg-panel-grid-minor" transform="translate(0, -16.666666666666668)"></line>
</g>
</g>
<g transform="translate(0, 0)" font-size="10" text-anchor="end">
<g opacity="1" transform="translate(0,10.0)">
<line x2="-2" class="gg-axis-ticks gg-axis-ticks-y"></line>
</g>
<g opacity="1" transform="translate(0,43.33333333333334)">
<line x2="-2" class="gg-axis-ticks gg-axis-ticks-y"></line>
</g>
<g opacity="1" transform="translate(0,76.66666666666667)">
<line x2="-2" class="gg-axis-ticks gg-axis-ticks-y"></line>
</g>
<g opacity="1" transform="translate(0,110.0)">
<line x2="-2" class="gg-axis-ticks gg-axis-ticks-y"></line>
</g>
<g opacity="1" transform="translate(0,143.33333333333334)">
<line x2="-2" class="gg-axis-ticks gg-axis-ticks-y"></line>
</g>
</g>
<text x="-73.33333333333333" y="-40" class="gg-text gg-axis-title" text-anchor="middle" transform="rotate(-90)">mpg</text>
<svg xmlns="http://www.w3.org/2000/svg" viewBox="-1 -1 11 11" x="71.41486249871346" y="79.94819583204679" height="6.770275002573076" width="6.770275002573076">
<circle cx="5" cy="5" r="4" fill-opacity="1" fill="black"></circle>
</svg><svg xmlns="http://www.w3.org/2000/svg" viewBox="-1 -1 11 11" x="81.61486249871346" y="79.94819583204679" height="6.770275002573076" width="6.770275002573076">
<circle cx="5" cy="5" r="4" fill-opacity="1" fill="black"></circle>
</svg><svg xmlns="http://www.w3.org/2000/svg" viewBox="-1 -1 11 11" x="59.414862498713454" y="71.94819583204679" height="6.770275002573076" width="6.770275002573076">
<circle cx="5" cy="5" r="4" fill-opacity="1" fill="black"></circle>
</svg><svg xmlns="http://www.w3.org/2000/svg" viewBox="-1 -1 11 11" x="95.21486249871346" y="78.17041805426902" height="6.770275002573076" width="6.770275002573076">
<circle cx="5" cy="5" r="4" fill-opacity="1" fill="black"></circle>
</svg><svg xmlns="http://www.w3.org/2000/svg" viewBox="-1 -1 11 11" x="104.21486249871346" y="90.17041805426902" height="6.770275002573076" width="6.770275002573076">
<circle cx="5" cy="5" r="4" fill-opacity="1" fill="black"></circle>
</svg><svg xmlns="http://www.w3.org/2000/svg" viewBox="-1 -1 11 11" x="105.01486249871347" y="92.83708472093568" height="6.770275002573076" width="6.770275002573076">
<circle cx="5" cy="5" r="4" fill-opacity="1" fill="black"></circle>
</svg><svg xmlns="http://www.w3.org/2000/svg" viewBox="-1 -1 11 11" x="109.41486249871346" y="109.72597360982456" height="6.770275002573076" width="6.770275002573076">
<circle cx="5" cy="5" r="4" fill-opacity="1" fill="black"></circle>
</svg><svg xmlns="http://www.w3.org/2000/svg" viewBox="-1 -1 11 11" x="94.21486249871346" y="64.83708472093569" height="6.770275002573076" width="6.770275002573076">
<circle cx="5" cy="5" r="4" fill-opacity="1" fill="black"></circle>
</svg><svg xmlns="http://www.w3.org/2000/svg" viewBox="-1 -1 11 11" x="92.61486249871346" y="71.94819583204679" height="6.770275002573076" width="6.770275002573076">
<circle cx="5" cy="5" r="4" fill-opacity="1" fill="black"></circle>
</svg><svg xmlns="http://www.w3.org/2000/svg" viewBox="-1 -1 11 11" x="104.21486249871346" y="87.9481958320468" height="6.770275002573076" width="6.770275002573076">
<circle cx="5" cy="5" r="4" fill-opacity="1" fill="black"></circle>
</svg><svg xmlns="http://www.w3.org/2000/svg" viewBox="-1 -1 11 11" x="104.21486249871346" y="94.170418054269" height="6.770275002573076" width="6.770275002573076">
<circle cx="5" cy="5" r="4" fill-opacity="1" fill="black"></circle>
</svg><svg xmlns="http://www.w3.org/2000/svg" viewBox="-1 -1 11 11" x="129.41486249871346" y="100.39264027649125" height="6.770275002573076" width="6.770275002573076">
<circle cx="5" cy="5" r="4" fill-opacity="1" fill="black"></circle>
</svg><svg xmlns="http://www.w3.org/2000/svg" viewBox="-1 -1 11 11" x="115.81486249871347" y="96.39264027649124" height="6.770275002573076" width="6.770275002573076">
<circle cx="5" cy="5" r="4" fill-opacity="1" fill="black"></circle>
</svg><svg xmlns="http://www.w3.org/2000/svg" viewBox="-1 -1 11 11" x="117.81486249871345" y="105.72597360982459" height="6.770275002573076" width="6.770275002573076">
<circle cx="5" cy="5" r="4" fill-opacity="1" fill="black"></circle>
</svg><svg xmlns="http://www.w3.org/2000/svg" viewBox="-1 -1 11 11" x="176.61486249871345" y="127.05930694315792" height="6.770275002573076" width="6.770275002573076">
<circle cx="5" cy="5" r="4" fill-opacity="1" fill="black"></circle>
</svg><svg xmlns="http://www.w3.org/2000/svg" viewBox="-1 -1 11 11" x="183.57486249871346" y="127.05930694315792" height="6.770275002573076" width="6.770275002573076">
<circle cx="5" cy="5" r="4" fill-opacity="1" fill="black"></circle>
</svg><svg xmlns="http://www.w3.org/2000/svg" viewBox="-1 -1 11 11" x="180.41486249871346" y="107.94819583204679" height="6.770275002573076" width="6.770275002573076">
<circle cx="5" cy="5" r="4" fill-opacity="1" fill="black"></circle>
</svg><svg xmlns="http://www.w3.org/2000/svg" viewBox="-1 -1 11 11" x="54.61486249871347" y="29.281529165380135" height="6.770275002573076" width="6.770275002573076">
<circle cx="5" cy="5" r="4" fill-opacity="1" fill="black"></circle>
</svg><svg xmlns="http://www.w3.org/2000/svg" viewBox="-1 -1 11 11" x="31.214862498713465" y="38.17041805426902" height="6.770275002573076" width="6.770275002573076">
<circle cx="5" cy="5" r="4" fill-opacity="1" fill="black"></circle>
</svg><svg xmlns="http://www.w3.org/2000/svg" viewBox="-1 -1 11 11" x="40.01486249871346" y="22.614862498713464" height="6.770275002573076" width="6.770275002573076">
<circle cx="5" cy="5" r="4" fill-opacity="1" fill="black"></circle>
</svg><svg xmlns="http://www.w3.org/2000/svg" viewBox="-1 -1 11 11" x="65.21486249871346" y="77.72597360982458" height="6.770275002573076" width="6.770275002573076">
<circle cx="5" cy="5" r="4" fill-opacity="1" fill="black"></circle>
</svg><svg xmlns="http://www.w3.org/2000/svg" viewBox="-1 -1 11 11" x="107.41486249871346" y="104.39264027649124" height="6.770275002573076" width="6.770275002573076">
<circle cx="5" cy="5" r="4" fill-opacity="1" fill="black"></circle>
</svg><svg xmlns="http://www.w3.org/2000/svg" viewBox="-1 -1 11 11" x="104.01486249871346" y="105.72597360982459" height="6.770275002573076" width="6.770275002573076">
<circle cx="5" cy="5" r="4" fill-opacity="1" fill="black"></circle>
</svg><svg xmlns="http://www.w3.org/2000/svg" viewBox="-1 -1 11 11" x="120.21486249871346" y="114.170418054269" height="6.770275002573076" width="6.770275002573076">
<circle cx="5" cy="5" r="4" fill-opacity="1" fill="black"></circle>
</svg><svg xmlns="http://www.w3.org/2000/svg" viewBox="-1 -1 11 11" x="120.41486249871348" y="87.9481958320468" height="6.770275002573076" width="6.770275002573076">
<circle cx="5" cy="5" r="4" fill-opacity="1" fill="black"></circle>
</svg><svg xmlns="http://www.w3.org/2000/svg" viewBox="-1 -1 11 11" x="44.01486249871346" y="51.9481958320468" height="6.770275002573076" width="6.770275002573076">
<circle cx="5" cy="5" r="4" fill-opacity="1" fill="black"></circle>
</svg><svg xmlns="http://www.w3.org/2000/svg" viewBox="-1 -1 11 11" x="52.21486249871347" y="57.72597360982457" height="6.770275002573076" width="6.770275002573076">
<circle cx="5" cy="5" r="4" fill-opacity="1" fill="black"></circle>
</svg><svg xmlns="http://www.w3.org/2000/svg" viewBox="-1 -1 11 11" x="27.13486249871346" y="38.17041805426902" height="6.770275002573076" width="6.770275002573076">
<circle cx="5" cy="5" r="4" fill-opacity="1" fill="black"></circle>
</svg><svg xmlns="http://www.w3.org/2000/svg" viewBox="-1 -1 11 11" x="93.41486249871346" y="103.0593069431579" height="6.770275002573076" width="6.770275002573076">
<circle cx="5" cy="5" r="4" fill-opacity="1" fill="black"></circle>
</svg><svg xmlns="http://www.w3.org/2000/svg" viewBox="-1 -1 11 11" x="77.41486249871346" y="85.72597360982458" height="6.770275002573076" width="6.770275002573076">
<circle cx="5" cy="5" r="4" fill-opacity="1" fill="black"></circle>
</svg><svg xmlns="http://www.w3.org/2000/svg" viewBox="-1 -1 11 11" x="109.41486249871346" y="106.61486249871346" height="6.770275002573076" width="6.770275002573076">
<circle cx="5" cy="5" r="4" fill-opacity="1" fill="black"></circle>
</svg><svg xmlns="http://www.w3.org/2000/svg" viewBox="-1 -1 11 11" x="77.81486249871347" y="78.17041805426902" height="6.770275002573076" width="6.770275002573076">
<circle cx="5" cy="5" r="4" fill-opacity="1" fill="black"></circle>
</svg></g>
<g transform="translate(50, 0)">
<text x="0" y="10" dy="0.71em" dx="0" class="gg-text gg-plot-title">Fuel economy declines as weight decreases</text>
</g>
</svg>