<?xml version="1.0" encoding="utf-8"?><svg xmlns="http://www.w3.org/2000/svg" id="gg-1474" viewBox="0 0 280 223.33333333333334" height="550" width="825.0">
<style type="text/css"><![CDATA[#gg-1474 .gg-axis-text {fill: #808080;font-size: 6px;} #gg-1474 .gg-axis-text-x {} #gg-1474 .gg-axis-ticks {stroke: #000000;} #gg-1474 .gg-axis-title {fill: #000000;font-size: 8px;} #gg-1474 .gg-legend-key {stroke: #EEEEEE;fill: #EEEEEE;stroke-width: 0.5;} #gg-1474 .gg-legend-text {fill: #000000;font-size: 6px;} #gg-1474 .gg-legend-title {fill: #000000;font-size: 8px;} #gg-1474 .gg-panel-background {fill: #EEEEEE;} #gg-1474 .gg-panel-border {} #gg-1474 .gg-panel-grid {stroke: #FFFFFF;} #gg-1474 .gg-panel-grid-major {stroke-width: 1;} #gg-1474 .gg-panel-grid-minor {stroke-width: 0.5;} #gg-1474 .gg-plot-background {fill: #FFFFFF;} #gg-1474 .gg-plot-title {font-size: 10px;} #gg-1474 .gg-text {font-family: Helvetica, Arial, sans-serif;} ]]></style><rect class="gg-plot-background" width="100%" height="100%"></rect><g transform="translate(50, 25)">
<rect x="0" y="0" height="153.33333333333334" width="220" class="gg-panel-background gg-panel-border"></rect>
<g opacity="1" transform="translate(0, 153.33333333333334)">
<line x2="220" class="gg-axis-line gg-axis-line-x"></line>
</g>
<g transform="translate(10,153.33333333333334)" font-size="10" text-anchor="middle">
<g opacity="1" transform="translate(200.0,0)">
<text y="11" class="gg-text gg-axis-text gg-axis-text-x" text-anchor="middle">6.0</text>
</g>
<g opacity="1" transform="translate(160.0,0)">
<text y="11" class="gg-text gg-axis-text gg-axis-text-x" text-anchor="middle">5.0</text>
</g>
<g opacity="1" transform="translate(120.0,0)">
<text y="11" class="gg-text gg-axis-text gg-axis-text-x" text-anchor="middle">4.0</text>
</g>
<g opacity="1" transform="translate(80.0,0)">
<text y="11" class="gg-text gg-axis-text gg-axis-text-x" text-anchor="middle">3.0</text>
</g>
<g opacity="1" transform="translate(40.0,0)">
<text y="11" class="gg-text gg-axis-text gg-axis-text-x" text-anchor="middle">2.0</text>
</g>
<g opacity="1" transform="translate(0.0,0)">
<text y="11" class="gg-text gg-axis-text gg-axis-text-x" text-anchor="middle">1.0</text>
</g>
<g opacity="1" transform="translate(200.0,0)">
<line y2="-153.33333333333334" class="gg-panel-grid gg-panel-grid-major"></line>
</g>
<g opacity="1" transform="translate(160.0,0)">
<line y2="-153.33333333333334" class="gg-panel-grid gg-panel-grid-major"></line>
</g>
<g opacity="1" transform="translate(120.0,0)">
<line y2="-153.33333333333334" class="gg-panel-grid gg-panel-grid-major"></line>
</g>
<g opacity="1" transform="translate(80.0,0)">
<line y2="-153.33333333333334" class="gg-panel-grid gg-panel-grid-major"></line>
</g>
<g opacity="1" transform="translate(40.0,0)">
<line y2="-153.33333333333334" class="gg-panel-grid gg-panel-grid-major"></line>
</g>
<g opacity="1" transform="translate(0.0,0)">
<line y2="-153.33333333333334" class="gg-panel-grid gg-panel-grid-major"></line>
</g>
<g opacity="1" transform="translate(160.0,0)">
<line y2="-153.33333333333334" class="gg-panel-grid gg-panel-grid-minor" transform="translate(20.0, 0)"></line>
</g>
<g opacity="1" transform="translate(120.0,0)">
<line y2="-153.33333333333334" class="gg-panel-grid gg-panel-grid-minor" transform="translate(20.0, 0)"></line>
</g>
<g opacity="1" transform="translate(80.0,0)">
<line y2="-153.33333333333334" class="gg-panel-grid gg-panel-grid-minor" transform="translate(20.0, 0)"></line>
</g>
<g opacity="1" transform="translate(40.0,0)">
<line y2="-153.33333333333334" class="gg-panel-grid gg-panel-grid-minor" transform="translate(20.0, 0)"></line>
</g>
<g opacity="1" transform="translate(0.0,0)">
<line y2="-153.33333333333334" class="gg-panel-grid gg-panel-grid-minor" transform="translate(20.0, 0)"></line>
</g>
</g>
<g transform="translate(10,153.33333333333334)" font-size="10" text-anchor="middle">
<g opacity="1" transform="translate(200.0,0)">
<line y2="2" class="gg-axis-ticks gg-axis-ticks-x"></line>
</g>
<g opacity="1" transform="translate(160.0,0)">
<line y2="2" class="gg-axis-ticks gg-axis-ticks-x"></line>
</g>
<g opacity="1" transform="translate(120.0,0)">
<line y2="2" class="gg-axis-ticks gg-axis-ticks-x"></line>
</g>
<g opacity="1" transform="translate(80.0,0)">
<line y2="2" class="gg-axis-ticks gg-axis-ticks-x"></line>
</g>
<g opacity="1" transform="translate(40.0,0)">
<line y2="2" class="gg-axis-ticks gg-axis-ticks-x"></line>
</g>
<g opacity="1" transform="translate(0.0,0)">
<line y2="2" class="gg-axis-ticks gg-axis-ticks-x"></line>
</g>
</g>
<text x="110.0" y="188.33333333333334" class="gg-text gg-axis-title" text-anchor="middle">wt</text>
<g transform="translate(0, 0)">
<line y2="153.33333333333334" class="gg-axis-line gg-axis-line-y"></line>
</g>
<g transform="translate(0, 0)" font-size="10" text-anchor="end">
<g opacity="1" transform="translate(0,10.0)">
<text x="-11" dy="0.32em" class="gg-text gg-axis-text gg-axis-text-y">37.5</text>
</g>
<g opacity="1" transform="translate(0,43.33333333333334)">
<text x="-11" dy="0.32em" class="gg-text gg-axis-text gg-axis-text-y">30.0</text>
</g>
<g opacity="1" transform="translate(0,76.66666666666667)">
<text x="-11" dy="0.32em" class="gg-text gg-axis-text gg-axis-text-y">22.5</text>
</g>
<g opacity="1" transform="translate(0,110.0)">
<text x="-11" dy="0.32em" class="gg-text gg-axis-text gg-axis-text-y">15.0</text>
</g>
<g opacity="1" transform="translate(0,143.33333333333334)">
<text x="-11" dy="0.32em" class="gg-text gg-axis-text gg-axis-text-y">7.5</text>
</g>
<g opacity="1" transform="translate(0,10.0)">
<line x2="220" class="gg-panel-grid gg-panel-grid-major"></line>
</g>
<g opacity="1" transform="translate(0,43.33333333333334)">
<line x2="220" class="gg-panel-grid gg-panel-grid-major"></line>
</g>
<g opacity="1" transform="translate(0,76.66666666666667)">
<line x2="220" class="gg-panel-grid gg-panel-grid-major"></line>
</g>
<g opacity="1" transform="translate(0,110.0)">
<line x2="220" class="gg-panel-grid gg-panel-grid-major"></line>
</g>
<g opacity="1" transform="translate(0,143.33333333333334)">
<line x2="220" class="gg-panel-grid gg-panel-grid-major"></line>
</g>
<g opacity="1" transform="translate(0,43.33333333333334)">
<line x2="220" class="gg-panel-grid gg-panel-grid-minor" transform="translate(0, -16.666666666666668)"></line>
</g>
<g opacity="1" transform="translate(0,76.66666666666667)">
<line x2="220" class="gg-panel-grid gg-panel-grid-minor" transform="translate(0, -16.666666666666668)"></line>
</g>
<g opacity="1" transform="translate(0,110.0)">
<line x2="220" class="gg-panel-grid gg-panel-grid-minor" transform="translate(0, -16.666666666666668)"></line>
</g>
<g opacity="1" transform="translate(0,143.33333333333334)">
<line x2="220" class="gg-panel-grid gg-panel-grid-minor" transform="translate(0, -16.666666666666668)"></line>
</g>
</g>
<g transform="translate(0, 0)" font-size="10" text-anchor="end">
<g opacity="1" transform="translate(0,10.0)">
<line x2="-2" class="gg-axis-ticks gg-axis-ticks-y"></line>
</g>
<g opacity="1" transform="translate(0,43.33333333333334)">
<line x2="-2" class="gg-axis-ticks gg-axis-ticks-y"></line>
</g>
<g opacity="1" transform="translate(0,76.66666666666667)">
<line x2="-2" class="gg-axis-ticks gg-axis-ticks-y"></line>
</g>
<g opacity="1" transform="translate(0,110.0)">
<line x2="-2" class="gg-axis-ticks gg-axis-ticks-y"></line>
</g>
<g opacity="1" transform="translate(0,143.33333333333334)">
<line x2="-2" class="gg-axis-ticks gg-axis-ticks-y"></line>
</g>
</g>
<text x="-73.33333333333333" y="-40" class="gg-text gg-axis-title" text-anchor="middle" transform="rotate(-90)">mpg</text>
<svg xmlns="http://www.w3.org/2000/svg" viewBox="0 0 10 10" x="71.8" y="80.33333333333333" height="6.0" width="6.0">
<circle cx="5" cy="5" r="4" fill-opacity="1" fill="black"></circle>
</svg><svg xmlns="http://www.w3.org/2000/svg" viewBox="0 0 10 10" x="82.0" y="80.33333333333333" height="6.0" width="6.0">
<circle cx="5" cy="5" r="4" fill-opacity="1" fill="black"></circle>
</svg><svg xmlns="http://www.w3.org/2000/svg" viewBox="0 0 10 10" x="59.79999999999999" y="72.33333333333333" height="6.0" width="6.0">
<circle cx="5" cy="5" r="4" fill-opacity="1" fill="black"></circle>
</svg><svg xmlns="http://www.w3.org/2000/svg" viewBox="0 0 10 10" x="95.6" y="78.55555555555556" height="6.0" width="6.0">
<circle cx="5" cy="5" r="4" fill-opacity="1" fill="black"></circle>
</svg><svg xmlns="http://www.w3.org/2000/svg" viewBox="0 0 10 10" x="104.6" y="90.55555555555556" height="6.0" width="6.0">
<circle cx="5" cy="5" r="4" fill-opacity="1" fill="black"></circle>
</svg><svg xmlns="http://www.w3.org/2000/svg" viewBox="0 0 10 10" x="105.4" y="93.22222222222221" height="6.0" width="6.0">
<circle cx="5" cy="5" r="4" fill-opacity="1" fill="black"></circle>
</svg><svg xmlns="http://www.w3.org/2000/svg" viewBox="0 0 10 10" x="109.8" y="110.1111111111111" height="6.0" width="6.0">
<circle cx="5" cy="5" r="4" fill-opacity="1" fill="black"></circle>
</svg><svg xmlns="http://www.w3.org/2000/svg" viewBox="0 0 10 10" x="94.6" y="65.22222222222223" height="6.0" width="6.0">
<circle cx="5" cy="5" r="4" fill-opacity="1" fill="black"></circle>
</svg><svg xmlns="http://www.w3.org/2000/svg" viewBox="0 0 10 10" x="93.0" y="72.33333333333333" height="6.0" width="6.0">
<circle cx="5" cy="5" r="4" fill-opacity="1" fill="black"></circle>
</svg><svg xmlns="http://www.w3.org/2000/svg" viewBox="0 0 10 10" x="104.6" y="88.33333333333334" height="6.0" width="6.0">
<circle cx="5" cy="5" r="4" fill-opacity="1" fill="black"></circle>
</svg><svg xmlns="http://www.w3.org/2000/svg" viewBox="0 0 10 10" x="104.6" y="94.55555555555554" height="6.0" width="6.0">
<circle cx="5" cy="5" r="4" fill-opacity="1" fill="black"></circle>
</svg><svg xmlns="http://www.w3.org/2000/svg" viewBox="0 0 10 10" x="129.8" y="100.77777777777779" height="6.0" width="6.0">
<circle cx="5" cy="5" r="4" fill-opacity="1" fill="black"></circle>
</svg><svg xmlns="http://www.w3.org/2000/svg" viewBox="0 0 10 10" x="116.2" y="96.77777777777777" height="6.0" width="6.0">
<circle cx="5" cy="5" r="4" fill-opacity="1" fill="black"></circle>
</svg><svg xmlns="http://www.w3.org/2000/svg" viewBox="0 0 10 10" x="118.19999999999999" y="106.11111111111113" height="6.0" width="6.0">
<circle cx="5" cy="5" r="4" fill-opacity="1" fill="black"></circle>
</svg><svg xmlns="http://www.w3.org/2000/svg" viewBox="0 0 10 10" x="177.0" y="127.44444444444446" height="6.0" width="6.0">
<circle cx="5" cy="5" r="4" fill-opacity="1" fill="black"></circle>
</svg><svg xmlns="http://www.w3.org/2000/svg" viewBox="0 0 10 10" x="183.96" y="127.44444444444446" height="6.0" width="6.0">
<circle cx="5" cy="5" r="4" fill-opacity="1" fill="black"></circle>
</svg><svg xmlns="http://www.w3.org/2000/svg" viewBox="0 0 10 10" x="180.8" y="108.33333333333333" height="6.0" width="6.0">
<circle cx="5" cy="5" r="4" fill-opacity="1" fill="black"></circle>
</svg><svg xmlns="http://www.w3.org/2000/svg" viewBox="0 0 10 10" x="55.00000000000001" y="29.66666666666667" height="6.0" width="6.0">
<circle cx="5" cy="5" r="4" fill-opacity="1" fill="black"></circle>
</svg><svg xmlns="http://www.w3.org/2000/svg" viewBox="0 0 10 10" x="31.6" y="38.55555555555556" height="6.0" width="6.0">
<circle cx="5" cy="5" r="4" fill-opacity="1" fill="black"></circle>
</svg><svg xmlns="http://www.w3.org/2000/svg" viewBox="0 0 10 10" x="40.4" y="23.0" height="6.0" width="6.0">
<circle cx="5" cy="5" r="4" fill-opacity="1" fill="black"></circle>
</svg><svg xmlns="http://www.w3.org/2000/svg" viewBox="0 0 10 10" x="65.6" y="78.11111111111111" height="6.0" width="6.0">
<circle cx="5" cy="5" r="4" fill-opacity="1" fill="black"></circle>
</svg><svg xmlns="http://www.w3.org/2000/svg" viewBox="0 0 10 10" x="107.8" y="104.77777777777777" height="6.0" width="6.0">
<circle cx="5" cy="5" r="4" fill-opacity="1" fill="black"></circle>
</svg><svg xmlns="http://www.w3.org/2000/svg" viewBox="0 0 10 10" x="104.39999999999999" y="106.11111111111113" height="6.0" width="6.0">
<circle cx="5" cy="5" r="4" fill-opacity="1" fill="black"></circle>
</svg><svg xmlns="http://www.w3.org/2000/svg" viewBox="0 0 10 10" x="120.6" y="114.55555555555554" height="6.0" width="6.0">
<circle cx="5" cy="5" r="4" fill-opacity="1" fill="black"></circle>
</svg><svg xmlns="http://www.w3.org/2000/svg" viewBox="0 0 10 10" x="120.80000000000001" y="88.33333333333334" height="6.0" width="6.0">
<circle cx="5" cy="5" r="4" fill-opacity="1" fill="black"></circle>
</svg><svg xmlns="http://www.w3.org/2000/svg" viewBox="0 0 10 10" x="44.4" y="52.333333333333336" height="6.0" width="6.0">
<circle cx="5" cy="5" r="4" fill-opacity="1" fill="black"></circle>
</svg><svg xmlns="http://www.w3.org/2000/svg" viewBox="0 0 10 10" x="52.60000000000001" y="58.11111111111111" height="6.0" width="6.0">
<circle cx="5" cy="5" r="4" fill-opacity="1" fill="black"></circle>
</svg><svg xmlns="http://www.w3.org/2000/svg" viewBox="0 0 10 10" x="27.519999999999996" y="38.55555555555556" height="6.0" width="6.0">
<circle cx="5" cy="5" r="4" fill-opacity="1" fill="black"></circle>
</svg><svg xmlns="http://www.w3.org/2000/svg" viewBox="0 0 10 10" x="93.8" y="103.44444444444444" height="6.0" width="6.0">
<circle cx="5" cy="5" r="4" fill-opacity="1" fill="black"></circle>
</svg><svg xmlns="http://www.w3.org/2000/svg" viewBox="0 0 10 10" x="77.8" y="86.11111111111111" height="6.0" width="6.0">
<circle cx="5" cy="5" r="4" fill-opacity="1" fill="black"></circle>
</svg><svg xmlns="http://www.w3.org/2000/svg" viewBox="0 0 10 10" x="109.8" y="107.0" height="6.0" width="6.0">
<circle cx="5" cy="5" r="4" fill-opacity="1" fill="black"></circle>
</svg><svg xmlns="http://www.w3.org/2000/svg" viewBox="0 0 10 10" x="78.2" y="78.55555555555556" height="6.0" width="6.0">
<circle cx="5" cy="5" r="4" fill-opacity="1" fill="black"></circle>
</svg></g>
<g transform="translate(50, 0)">
<text x="0" y="10" dy="0.71em" dx="0" class="gg-text gg-plot-title">Fuel economy declines as weight decreases</text>
</g>
</svg>