<svg xmlns="http://www.w3.org/2000/svg" width="500" height="333.3333333333333" viewBox="0 0 350.0 233.33333333333334" font-family="Helvetica, Arial, sans-serif">
<g transform="translate(50, 20)">
<rect x="0" y="0" height="153.33333333333334" width="220" fill="#eeeeee"></rect>
</g>
<g transform="translate(50, 20)">
<g transform="translate(10,153.33333333333334)" font-size="10" text-anchor="middle">
<g opacity="1" transform="translate(0,0)">
<line y2="-153.33333333333334" stroke="white" stroke-width="1"></line>
<line y2="-153.33333333333334" stroke="white" stroke-width="0.5" transform="translate(20.0, 0)"></line>
<text fill="gray" y="9" dy="0.71em" dx="0" font-size="8" text-anchor="middle">1.0</text>
</g>
<g opacity="1" transform="translate(40,0)">
<line y2="-153.33333333333334" stroke="white" stroke-width="1"></line>
<line y2="-153.33333333333334" stroke="white" stroke-width="0.5" transform="translate(20.0, 0)"></line>
<text fill="gray" y="9" dy="0.71em" dx="0" font-size="8" text-anchor="middle">2.0</text>
</g>
<g opacity="1" transform="translate(80,0)">
<line y2="-153.33333333333334" stroke="white" stroke-width="1"></line>
<line y2="-153.33333333333334" stroke="white" stroke-width="0.5" transform="translate(20.0, 0)"></line>
<text fill="gray" y="9" dy="0.71em" dx="0" font-size="8" text-anchor="middle">3.0</text>
</g>
<g opacity="1" transform="translate(120,0)">
<line y2="-153.33333333333334" stroke="white" stroke-width="1"></line>
<line y2="-153.33333333333334" stroke="white" stroke-width="0.5" transform="translate(20.0, 0)"></line>
<text fill="gray" y="9" dy="0.71em" dx="0" font-size="8" text-anchor="middle">4.0</text>
</g>
<g opacity="1" transform="translate(160,0)">
<line y2="-153.33333333333334" stroke="white" stroke-width="1"></line>
<line y2="-153.33333333333334" stroke="white" stroke-width="0.5" transform="translate(20.0, 0)"></line>
<text fill="gray" y="9" dy="0.71em" dx="0" font-size="8" text-anchor="middle">5.0</text>
</g>
<g opacity="1" transform="translate(200,0)">
<line y2="-153.33333333333334" stroke="white" stroke-width="1"></line>
<line y2="-153.33333333333334" stroke="white" stroke-width="0.5" transform="translate(20.0, 0)"></line>
<text fill="gray" y="9" dy="0.71em" dx="0" font-size="8" text-anchor="middle">6.0</text>
</g>
</g>
<text x="110.0" y="188.33333333333334" font-size="10" fill="black" text-anchor="middle">Weight</text>
<g transform="translate(0, 0)" font-size="10" text-anchor="end">
<g opacity="1" transform="translate(0,143.33333333333334)">
<line x2="220" stroke="white" stroke-width="1"></line>
<line x2="220" stroke="white" stroke-width="0.5" transform="translate(0, -16.666666666666668)"></line>
<text fill="gray" x="-9" dy="0.32em" font-size="8">7.5</text>
</g>
<g opacity="1" transform="translate(0,110.0)">
<line x2="220" stroke="white" stroke-width="1"></line>
<line x2="220" stroke="white" stroke-width="0.5" transform="translate(0, -16.666666666666668)"></line>
<text fill="gray" x="-9" dy="0.32em" font-size="8">15.0</text>
</g>
<g opacity="1" transform="translate(0,76.66666666666667)">
<line x2="220" stroke="white" stroke-width="1"></line>
<line x2="220" stroke="white" stroke-width="0.5" transform="translate(0, -16.666666666666668)"></line>
<text fill="gray" x="-9" dy="0.32em" font-size="8">22.5</text>
</g>
<g opacity="1" transform="translate(0,43.33333333333334)">
<line x2="220" stroke="white" stroke-width="1"></line>
<line x2="220" stroke="white" stroke-width="0.5" transform="translate(0, -16.666666666666668)"></line>
<text fill="gray" x="-9" dy="0.32em" font-size="8">30.0</text>
</g>
<g opacity="1" transform="translate(0,10.0)">
<line x2="220" stroke="white" stroke-width="1"></line>
<line x2="220" stroke="white" stroke-width="0.5" transform="translate(0, -16.666666666666668)"></line>
<text fill="gray" x="-9" dy="0.32em" font-size="8">37.5</text>
</g>
</g>
<text x="-73.33333333333333" y="-40" font-size="10" fill="black" text-anchor="middle" transform="rotate(-90)">mpg</text>
<polyline points="30,42.0 34,42.0 43,26.0 47,55.333333333333336 55,61.333333333333336 58,32.66666666666667 62,75.33333333333333 68,81.33333333333333 74,83.33333333333333 80,89.33333333333333 81,82.0 85,83.33333333333333 96,75.33333333333333 96,106.66666666666667 97,68.66666666666666 98,82.0 107,109.33333333333333 107,94.0 107,92.0 107,98.0 108,96.66666666666667 110,108.0 112,113.33333333333333 112,110.0 119,100.0 121,109.33333333333333 123,118.0 123,92.0 132,104.0 180,130.66666666666669 183,112.0 186,130.66666666666669 " fill="none" stroke-width="1" stroke="black" stroke-opacity="1" stroke-dasharray="2 2 6 2"></polyline>
</g>
<g transform="translate(50, 20)">
<text x="0" y="-15" dy="0.71em" dx="0" font-size="12">linetype: :twodash</text>
</g>
</svg>