<svg xmlns="http://www.w3.org/2000/svg" width="500" height="333.3333333333333" viewBox="0 0 350.0 233.33333333333334" font-family="Helvetica, Arial, sans-serif">
<g transform="translate(50, 10)">
<rect x="0" y="0" height="153.33333333333334" width="220" fill="#eeeeee"></rect>
</g>
<g transform="translate(50, 10)">
<g transform="translate(0, 153.33333333333334)" font-size="10" text-anchor="middle">
<g opacity="1" transform="translate(28.0,0)">
<line y2="-153.33333333333334" stroke="white" stroke-width="1"></line>
<text fill="gray" y="9" dy="0.71em" dx="0" font-size="8" text-anchor="middle">audi</text>
</g>
<g opacity="1" transform="translate(69.0,0)">
<line y2="-153.33333333333334" stroke="white" stroke-width="1"></line>
<text fill="gray" y="9" dy="0.71em" dx="0" font-size="8" text-anchor="middle">chevrolet</text>
</g>
<g opacity="1" transform="translate(110.0,0)">
<line y2="-153.33333333333334" stroke="white" stroke-width="1"></line>
<text fill="gray" y="9" dy="0.71em" dx="0" font-size="8" text-anchor="middle">ford</text>
</g>
<g opacity="1" transform="translate(151.0,0)">
<line y2="-153.33333333333334" stroke="white" stroke-width="1"></line>
<text fill="gray" y="9" dy="0.71em" dx="0" font-size="8" text-anchor="middle">nissan</text>
</g>
<g opacity="1" transform="translate(192.0,0)">
<line y2="-153.33333333333334" stroke="white" stroke-width="1"></line>
<text fill="gray" y="9" dy="0.71em" dx="0" font-size="8" text-anchor="middle">subaru</text>
</g>
</g>
<text x="110.0" y="188.33333333333334" font-size="10" fill="black" text-anchor="middle">manufacturer</text>
<g transform="translate(0, 0)" font-size="10" text-anchor="end">
<g opacity="1" transform="translate(0,143.33333333333334)">
<line x2="220" stroke="white" stroke-width="1"></line>
<line x2="220" stroke="white" stroke-width="0.5" transform="translate(0, -16.666666666666668)"></line>
<text fill="gray" x="-9" dy="0.32em" font-size="8">0.0</text>
</g>
<g opacity="1" transform="translate(0,110.0)">
<line x2="220" stroke="white" stroke-width="1"></line>
<line x2="220" stroke="white" stroke-width="0.5" transform="translate(0, -16.666666666666668)"></line>
<text fill="gray" x="-9" dy="0.32em" font-size="8">7.5</text>
</g>
<g opacity="1" transform="translate(0,76.66666666666667)">
<line x2="220" stroke="white" stroke-width="1"></line>
<line x2="220" stroke="white" stroke-width="0.5" transform="translate(0, -16.666666666666668)"></line>
<text fill="gray" x="-9" dy="0.32em" font-size="8">15.0</text>
</g>
<g opacity="1" transform="translate(0,43.33333333333334)">
<line x2="220" stroke="white" stroke-width="1"></line>
<line x2="220" stroke="white" stroke-width="0.5" transform="translate(0, -16.666666666666668)"></line>
<text fill="gray" x="-9" dy="0.32em" font-size="8">22.5</text>
</g>
<g opacity="1" transform="translate(0,10.0)">
<line x2="220" stroke="white" stroke-width="1"></line>
<line x2="220" stroke="white" stroke-width="0.5" transform="translate(0, -16.666666666666668)"></line>
<text fill="gray" x="-9" dy="0.32em" font-size="8">30.0</text>
</g>
</g>
<text x="-73.33333333333333" y="-40" font-size="10" fill="black" text-anchor="middle" transform="rotate(-90)">count</text>
<rect x="10.0" y="63.33333333333334" width="36.0" height="66.66666666666667" fill="#400966" fill-opacity="1"></rect>
<rect x="10.0" y="130.0" width="36.0" height="13.333333333333334" fill="#902468" fill-opacity="1"></rect>
<rect x="51.0" y="59.33333333333334" width="36.0" height="22.0" fill="#000003" fill-opacity="1"></rect>
<rect x="51.0" y="81.33333333333334" width="36.0" height="22.0" fill="#902468" fill-opacity="1"></rect>
<rect x="51.0" y="103.33333333333334" width="36.0" height="40.0" fill="#F5F891" fill-opacity="1"></rect>
<rect x="92.0" y="32.66666666666667" width="36.0" height="30.666666666666668" fill="#D94D3D" fill-opacity="1"></rect>
<rect x="92.0" y="63.33333333333334" width="36.0" height="40.0" fill="#FB9D06" fill-opacity="1"></rect>
<rect x="92.0" y="103.33333333333334" width="36.0" height="40.0" fill="#F5F891" fill-opacity="1"></rect>
<rect x="133.0" y="86.66666666666669" width="36.0" height="8.666666666666666" fill="#400966" fill-opacity="1"></rect>
<rect x="133.0" y="95.33333333333334" width="36.0" height="30.666666666666668" fill="#902468" fill-opacity="1"></rect>
<rect x="133.0" y="126.00000000000001" width="36.0" height="17.333333333333332" fill="#F5F891" fill-opacity="1"></rect>
<rect x="174.0" y="82.00000000000001" width="36.0" height="17.333333333333332" fill="#400966" fill-opacity="1"></rect>
<rect x="174.0" y="99.33333333333334" width="36.0" height="17.333333333333332" fill="#FB9D06" fill-opacity="1"></rect>
<rect x="174.0" y="116.66666666666667" width="36.0" height="26.666666666666668" fill="#F5F891" fill-opacity="1"></rect>
</g>
<g transform="translate(275, 41.66666666666667)">
<g transform="translate(0, 0)">
<text x="0" y="-5" font-size="9" fill="black" text-anchor="left">class</text>
<rect x="0" y="0" height="15" width="15" fill="#000003" stroke="white" stroke-width="0.5"></rect>
<text x="20" y="10" font-size="8" fill="black" text-anchor="left">2seater</text>
<rect x="0" y="15" height="15" width="15" fill="#400966" stroke="white" stroke-width="0.5"></rect>
<text x="20" y="25" font-size="8" fill="black" text-anchor="left">compact</text>
<rect x="0" y="30" height="15" width="15" fill="#902468" stroke="white" stroke-width="0.5"></rect>
<text x="20" y="40" font-size="8" fill="black" text-anchor="left">midsize</text>
<rect x="0" y="45" height="15" width="15" fill="#D94D3D" stroke="white" stroke-width="0.5"></rect>
<text x="20" y="55" font-size="8" fill="black" text-anchor="left">pickup</text>
<rect x="0" y="60" height="15" width="15" fill="#FB9D06" stroke="white" stroke-width="0.5"></rect>
<text x="20" y="70" font-size="8" fill="black" text-anchor="left">subcompact</text>
<rect x="0" y="75" height="15" width="15" fill="#F5F891" stroke="white" stroke-width="0.5"></rect>
<text x="20" y="85" font-size="8" fill="black" text-anchor="left">suv</text>
</g>
</g>
</svg>