<svg xmlns="http://www.w3.org/2000/svg" width="500" height="333.3333333333333" viewBox="0 0 350.0 233.33333333333334" font-family="Helvetica, Arial, sans-serif">
<g transform="translate(50, 20)">
<rect x="0" y="0" height="153.33333333333334" width="220" fill="#eeeeee"></rect>
</g>
<g transform="translate(50, 20)">
<g transform="translate(10,153.33333333333334)" font-size="10" text-anchor="middle">
<g opacity="1" transform="translate(0,0)">
<line y2="-153.33333333333334" stroke="white" stroke-width="1"></line>
<line y2="-153.33333333333334" stroke="white" stroke-width="0.5" transform="translate(20.0, 0)"></line>
<text fill="gray" y="9" dy="0.71em" dx="0" font-size="8" text-anchor="middle">1.0</text>
</g>
<g opacity="1" transform="translate(40,0)">
<line y2="-153.33333333333334" stroke="white" stroke-width="1"></line>
<line y2="-153.33333333333334" stroke="white" stroke-width="0.5" transform="translate(20.0, 0)"></line>
<text fill="gray" y="9" dy="0.71em" dx="0" font-size="8" text-anchor="middle">2.0</text>
</g>
<g opacity="1" transform="translate(80,0)">
<line y2="-153.33333333333334" stroke="white" stroke-width="1"></line>
<line y2="-153.33333333333334" stroke="white" stroke-width="0.5" transform="translate(20.0, 0)"></line>
<text fill="gray" y="9" dy="0.71em" dx="0" font-size="8" text-anchor="middle">3.0</text>
</g>
<g opacity="1" transform="translate(120,0)">
<line y2="-153.33333333333334" stroke="white" stroke-width="1"></line>
<line y2="-153.33333333333334" stroke="white" stroke-width="0.5" transform="translate(20.0, 0)"></line>
<text fill="gray" y="9" dy="0.71em" dx="0" font-size="8" text-anchor="middle">4.0</text>
</g>
<g opacity="1" transform="translate(160,0)">
<line y2="-153.33333333333334" stroke="white" stroke-width="1"></line>
<line y2="-153.33333333333334" stroke="white" stroke-width="0.5" transform="translate(20.0, 0)"></line>
<text fill="gray" y="9" dy="0.71em" dx="0" font-size="8" text-anchor="middle">5.0</text>
</g>
<g opacity="1" transform="translate(200,0)">
<line y2="-153.33333333333334" stroke="white" stroke-width="1"></line>
<line y2="-153.33333333333334" stroke="white" stroke-width="0.5" transform="translate(20.0, 0)"></line>
<text fill="gray" y="9" dy="0.71em" dx="0" font-size="8" text-anchor="middle">6.0</text>
</g>
</g>
<text x="110.0" y="188.33333333333334" font-size="10" fill="black" text-anchor="middle">wt</text>
<g transform="translate(0, 0)" font-size="10" text-anchor="end">
<g opacity="1" transform="translate(0,143.33333333333334)">
<line x2="220" stroke="white" stroke-width="1"></line>
<line x2="220" stroke="white" stroke-width="0.5" transform="translate(0, -16.666666666666668)"></line>
<text fill="gray" x="-9" dy="0.32em" font-size="8">7.5</text>
</g>
<g opacity="1" transform="translate(0,110.0)">
<line x2="220" stroke="white" stroke-width="1"></line>
<line x2="220" stroke="white" stroke-width="0.5" transform="translate(0, -16.666666666666668)"></line>
<text fill="gray" x="-9" dy="0.32em" font-size="8">15.0</text>
</g>
<g opacity="1" transform="translate(0,76.66666666666667)">
<line x2="220" stroke="white" stroke-width="1"></line>
<line x2="220" stroke="white" stroke-width="0.5" transform="translate(0, -16.666666666666668)"></line>
<text fill="gray" x="-9" dy="0.32em" font-size="8">22.5</text>
</g>
<g opacity="1" transform="translate(0,43.33333333333334)">
<line x2="220" stroke="white" stroke-width="1"></line>
<line x2="220" stroke="white" stroke-width="0.5" transform="translate(0, -16.666666666666668)"></line>
<text fill="gray" x="-9" dy="0.32em" font-size="8">30.0</text>
</g>
<g opacity="1" transform="translate(0,10.0)">
<line x2="220" stroke="white" stroke-width="1"></line>
<line x2="220" stroke="white" stroke-width="0.5" transform="translate(0, -16.666666666666668)"></line>
<text fill="gray" x="-9" dy="0.32em" font-size="8">37.5</text>
</g>
</g>
<text x="-73.33333333333333" y="-40" font-size="10" fill="black" text-anchor="middle" transform="rotate(-90)">mpg</text>
<svg xmlns="http://www.w3.org/2000/svg" viewBox="0 0 10 10" x="72.0" y="81.33333333333333" height="4" width="4">
<rect fill="black" fill-opacity="1" height="10" width="10"></rect>
</svg><svg xmlns="http://www.w3.org/2000/svg" viewBox="0 0 10 10" x="83.0" y="81.33333333333333" height="4" width="4">
<rect fill="black" fill-opacity="1" height="10" width="10"></rect>
</svg><circle cx="62" cy="75.33333333333333" r="2.0" fill="black" fill-opacity="1"></circle>
<svg xmlns="http://www.w3.org/2000/svg" viewBox="0 0 10 10" x="96.0" y="80.0" height="4" width="4">
<rect fill="black" fill-opacity="1" height="10" width="10"></rect>
</svg><svg xmlns="http://www.w3.org/2000/svg" viewBox="0 0 10 10" x="105.0" y="92.0" height="4" width="4">
<polygon points="5,0 10,5 5,10 0,5" fill="black" fill-opacity="1"/>
</svg><svg xmlns="http://www.w3.org/2000/svg" viewBox="0 0 10 10" x="106.0" y="94.66666666666667" height="4" width="4">
<rect fill="black" fill-opacity="1" height="10" width="10"></rect>
</svg><svg xmlns="http://www.w3.org/2000/svg" viewBox="0 0 10 10" x="110.0" y="111.33333333333333" height="4" width="4">
<polygon points="5,0 10,5 5,10 0,5" fill="black" fill-opacity="1"/>
</svg><circle cx="97" cy="68.66666666666666" r="2.0" fill="black" fill-opacity="1"></circle>
<circle cx="96" cy="75.33333333333333" r="2.0" fill="black" fill-opacity="1"></circle>
<svg xmlns="http://www.w3.org/2000/svg" viewBox="0 0 10 10" x="105.0" y="90.0" height="4" width="4">
<rect fill="black" fill-opacity="1" height="10" width="10"></rect>
</svg><svg xmlns="http://www.w3.org/2000/svg" viewBox="0 0 10 10" x="105.0" y="96.0" height="4" width="4">
<rect fill="black" fill-opacity="1" height="10" width="10"></rect>
</svg><svg xmlns="http://www.w3.org/2000/svg" viewBox="0 0 10 10" x="130.0" y="102.0" height="4" width="4">
<polygon points="5,0 10,5 5,10 0,5" fill="black" fill-opacity="1"/>
</svg><svg xmlns="http://www.w3.org/2000/svg" viewBox="0 0 10 10" x="117.0" y="98.0" height="4" width="4">
<polygon points="5,0 10,5 5,10 0,5" fill="black" fill-opacity="1"/>
</svg><svg xmlns="http://www.w3.org/2000/svg" viewBox="0 0 10 10" x="119.0" y="107.33333333333333" height="4" width="4">
<polygon points="5,0 10,5 5,10 0,5" fill="black" fill-opacity="1"/>
</svg><svg xmlns="http://www.w3.org/2000/svg" viewBox="0 0 10 10" x="178.0" y="128.66666666666669" height="4" width="4">
<polygon points="5,0 10,5 5,10 0,5" fill="black" fill-opacity="1"/>
</svg><svg xmlns="http://www.w3.org/2000/svg" viewBox="0 0 10 10" x="184.0" y="128.66666666666669" height="4" width="4">
<polygon points="5,0 10,5 5,10 0,5" fill="black" fill-opacity="1"/>
</svg><svg xmlns="http://www.w3.org/2000/svg" viewBox="0 0 10 10" x="181.0" y="110.0" height="4" width="4">
<polygon points="5,0 10,5 5,10 0,5" fill="black" fill-opacity="1"/>
</svg><circle cx="58" cy="32.66666666666667" r="2.0" fill="black" fill-opacity="1"></circle>
<circle cx="34" cy="42.0" r="2.0" fill="black" fill-opacity="1"></circle>
<circle cx="43" cy="26.0" r="2.0" fill="black" fill-opacity="1"></circle>
<circle cx="68" cy="81.33333333333333" r="2.0" fill="black" fill-opacity="1"></circle>
<svg xmlns="http://www.w3.org/2000/svg" viewBox="0 0 10 10" x="108.0" y="106.0" height="4" width="4">
<polygon points="5,0 10,5 5,10 0,5" fill="black" fill-opacity="1"/>
</svg><svg xmlns="http://www.w3.org/2000/svg" viewBox="0 0 10 10" x="105.0" y="107.33333333333333" height="4" width="4">
<polygon points="5,0 10,5 5,10 0,5" fill="black" fill-opacity="1"/>
</svg><svg xmlns="http://www.w3.org/2000/svg" viewBox="0 0 10 10" x="121.0" y="116.0" height="4" width="4">
<polygon points="5,0 10,5 5,10 0,5" fill="black" fill-opacity="1"/>
</svg><svg xmlns="http://www.w3.org/2000/svg" viewBox="0 0 10 10" x="121.0" y="90.0" height="4" width="4">
<polygon points="5,0 10,5 5,10 0,5" fill="black" fill-opacity="1"/>
</svg><circle cx="47" cy="55.333333333333336" r="2.0" fill="black" fill-opacity="1"></circle>
<circle cx="55" cy="61.333333333333336" r="2.0" fill="black" fill-opacity="1"></circle>
<circle cx="30" cy="42.0" r="2.0" fill="black" fill-opacity="1"></circle>
<svg xmlns="http://www.w3.org/2000/svg" viewBox="0 0 10 10" x="94.0" y="104.66666666666667" height="4" width="4">
<polygon points="5,0 10,5 5,10 0,5" fill="black" fill-opacity="1"/>
</svg><svg xmlns="http://www.w3.org/2000/svg" viewBox="0 0 10 10" x="78.0" y="87.33333333333333" height="4" width="4">
<rect fill="black" fill-opacity="1" height="10" width="10"></rect>
</svg><svg xmlns="http://www.w3.org/2000/svg" viewBox="0 0 10 10" x="110.0" y="108.0" height="4" width="4">
<polygon points="5,0 10,5 5,10 0,5" fill="black" fill-opacity="1"/>
</svg><circle cx="81" cy="82.0" r="2.0" fill="black" fill-opacity="1"></circle>
</g>
<g transform="translate(50, 20)">
<text x="0" y="-15" dy="0.71em" dx="0" font-size="12">Shape Aesthetic</text>
</g>
<g transform="translate(275, 74.16666666666667)">
<g transform="translate(0, 0)">
<text x="0" y="-5" font-size="9" fill="black" text-anchor="left">Cylinders</text>
<rect x="0" y="0" height="15" width="15" fill="#eeeeee" stroke="#eeeeee" stroke-width="0.5"></rect>
<circle cx="7.5" cy="7.5" r="2.5" fill="black" fill-opacity="1"></circle>
<text x="20" y="10" font-size="8" fill="black" text-anchor="left">4</text>
<rect x="0" y="15" height="15" width="15" fill="#eeeeee" stroke="#eeeeee" stroke-width="0.5"></rect>
<svg xmlns="http://www.w3.org/2000/svg" viewBox="0 0 10 10" x="5.0" y="20.0" height="5" width="5">
<rect fill="black" fill-opacity="1" height="10" width="10"></rect>
</svg><text x="20" y="25" font-size="8" fill="black" text-anchor="left">6</text>
<rect x="0" y="30" height="15" width="15" fill="#eeeeee" stroke="#eeeeee" stroke-width="0.5"></rect>
<svg xmlns="http://www.w3.org/2000/svg" viewBox="0 0 10 10" x="5.0" y="35.0" height="5" width="5">
<polygon points="5,0 10,5 5,10 0,5" fill="black" fill-opacity="1"/>
</svg><text x="20" y="40" font-size="8" fill="black" text-anchor="left">8</text>
</g>
</g>
</svg>