<svg xmlns="http://www.w3.org/2000/svg" width="500" height="333.3333333333333" viewBox="0 0 350.0 233.33333333333334" font-family="Helvetica, Arial, sans-serif">
<g transform="translate(50, 20)">
<rect x="0" y="0" height="153.33333333333334" width="220" fill="#eeeeee"></rect>
</g>
<g transform="translate(50, 20)">
<g transform="translate(10,153.33333333333334)" font-size="10" text-anchor="middle">
<g opacity="1" transform="translate(0,0)">
<line y2="-153.33333333333334" stroke="white" stroke-width="1"></line>
<line y2="-153.33333333333334" stroke="white" stroke-width="0.5" transform="translate(20.0, 0)"></line>
<text fill="gray" y="9" dy="0.71em" dx="0" font-size="8" text-anchor="middle">1.0</text>
</g>
<g opacity="1" transform="translate(40,0)">
<line y2="-153.33333333333334" stroke="white" stroke-width="1"></line>
<line y2="-153.33333333333334" stroke="white" stroke-width="0.5" transform="translate(20.0, 0)"></line>
<text fill="gray" y="9" dy="0.71em" dx="0" font-size="8" text-anchor="middle">2.0</text>
</g>
<g opacity="1" transform="translate(80,0)">
<line y2="-153.33333333333334" stroke="white" stroke-width="1"></line>
<line y2="-153.33333333333334" stroke="white" stroke-width="0.5" transform="translate(20.0, 0)"></line>
<text fill="gray" y="9" dy="0.71em" dx="0" font-size="8" text-anchor="middle">3.0</text>
</g>
<g opacity="1" transform="translate(120,0)">
<line y2="-153.33333333333334" stroke="white" stroke-width="1"></line>
<line y2="-153.33333333333334" stroke="white" stroke-width="0.5" transform="translate(20.0, 0)"></line>
<text fill="gray" y="9" dy="0.71em" dx="0" font-size="8" text-anchor="middle">4.0</text>
</g>
<g opacity="1" transform="translate(160,0)">
<line y2="-153.33333333333334" stroke="white" stroke-width="1"></line>
<line y2="-153.33333333333334" stroke="white" stroke-width="0.5" transform="translate(20.0, 0)"></line>
<text fill="gray" y="9" dy="0.71em" dx="0" font-size="8" text-anchor="middle">5.0</text>
</g>
<g opacity="1" transform="translate(200,0)">
<line y2="-153.33333333333334" stroke="white" stroke-width="1"></line>
<line y2="-153.33333333333334" stroke="white" stroke-width="0.5" transform="translate(20.0, 0)"></line>
<text fill="gray" y="9" dy="0.71em" dx="0" font-size="8" text-anchor="middle">6.0</text>
</g>
</g>
<text x="110.0" y="188.33333333333334" font-size="10" fill="black" text-anchor="middle">Weight (lbs)</text>
<g transform="translate(0, 0)" font-size="10" text-anchor="end">
<g opacity="1" transform="translate(0,143.33333333333334)">
<line x2="220" stroke="white" stroke-width="1"></line>
<line x2="220" stroke="white" stroke-width="0.5" transform="translate(0, -16.666666666666668)"></line>
<text fill="gray" x="-9" dy="0.32em" font-size="8">7.5</text>
</g>
<g opacity="1" transform="translate(0,110.0)">
<line x2="220" stroke="white" stroke-width="1"></line>
<line x2="220" stroke="white" stroke-width="0.5" transform="translate(0, -16.666666666666668)"></line>
<text fill="gray" x="-9" dy="0.32em" font-size="8">15.0</text>
</g>
<g opacity="1" transform="translate(0,76.66666666666667)">
<line x2="220" stroke="white" stroke-width="1"></line>
<line x2="220" stroke="white" stroke-width="0.5" transform="translate(0, -16.666666666666668)"></line>
<text fill="gray" x="-9" dy="0.32em" font-size="8">22.5</text>
</g>
<g opacity="1" transform="translate(0,43.33333333333334)">
<line x2="220" stroke="white" stroke-width="1"></line>
<line x2="220" stroke="white" stroke-width="0.5" transform="translate(0, -16.666666666666668)"></line>
<text fill="gray" x="-9" dy="0.32em" font-size="8">30.0</text>
</g>
<g opacity="1" transform="translate(0,10.0)">
<line x2="220" stroke="white" stroke-width="1"></line>
<line x2="220" stroke="white" stroke-width="0.5" transform="translate(0, -16.666666666666668)"></line>
<text fill="gray" x="-9" dy="0.32em" font-size="8">37.5</text>
</g>
</g>
<text x="-73.33333333333333" y="-40" font-size="10" fill="black" text-anchor="middle" transform="rotate(-90)">Miles Per Gallon</text>
<circle cx="74" cy="83.33333333333333" r="2.0" fill="black" fill-opacity="1"></circle>
<circle cx="85" cy="83.33333333333333" r="2.0" fill="black" fill-opacity="1"></circle>
<circle cx="62" cy="75.33333333333333" r="2.0" fill="black" fill-opacity="1"></circle>
<circle cx="98" cy="82.0" r="2.0" fill="black" fill-opacity="1"></circle>
<circle cx="107" cy="94.0" r="2.0" fill="black" fill-opacity="1"></circle>
<circle cx="108" cy="96.66666666666667" r="2.0" fill="black" fill-opacity="1"></circle>
<circle cx="112" cy="113.33333333333333" r="2.0" fill="black" fill-opacity="1"></circle>
<circle cx="97" cy="68.66666666666666" r="2.0" fill="black" fill-opacity="1"></circle>
<circle cx="96" cy="75.33333333333333" r="2.0" fill="black" fill-opacity="1"></circle>
<circle cx="107" cy="92.0" r="2.0" fill="black" fill-opacity="1"></circle>
<circle cx="107" cy="98.0" r="2.0" fill="black" fill-opacity="1"></circle>
<circle cx="132" cy="104.0" r="2.0" fill="black" fill-opacity="1"></circle>
<circle cx="119" cy="100.0" r="2.0" fill="black" fill-opacity="1"></circle>
<circle cx="121" cy="109.33333333333333" r="2.0" fill="black" fill-opacity="1"></circle>
<circle cx="180" cy="130.66666666666669" r="2.0" fill="black" fill-opacity="1"></circle>
<circle cx="186" cy="130.66666666666669" r="2.0" fill="black" fill-opacity="1"></circle>
<circle cx="183" cy="112.0" r="2.0" fill="black" fill-opacity="1"></circle>
<circle cx="58" cy="32.66666666666667" r="2.0" fill="black" fill-opacity="1"></circle>
<circle cx="34" cy="42.0" r="2.0" fill="black" fill-opacity="1"></circle>
<circle cx="43" cy="26.0" r="2.0" fill="black" fill-opacity="1"></circle>
<circle cx="68" cy="81.33333333333333" r="2.0" fill="black" fill-opacity="1"></circle>
<circle cx="110" cy="108.0" r="2.0" fill="black" fill-opacity="1"></circle>
<circle cx="107" cy="109.33333333333333" r="2.0" fill="black" fill-opacity="1"></circle>
<circle cx="123" cy="118.0" r="2.0" fill="black" fill-opacity="1"></circle>
<circle cx="123" cy="92.0" r="2.0" fill="black" fill-opacity="1"></circle>
<circle cx="47" cy="55.333333333333336" r="2.0" fill="black" fill-opacity="1"></circle>
<circle cx="55" cy="61.333333333333336" r="2.0" fill="black" fill-opacity="1"></circle>
<circle cx="30" cy="42.0" r="2.0" fill="black" fill-opacity="1"></circle>
<circle cx="96" cy="106.66666666666667" r="2.0" fill="black" fill-opacity="1"></circle>
<circle cx="80" cy="89.33333333333333" r="2.0" fill="black" fill-opacity="1"></circle>
<circle cx="112" cy="110.0" r="2.0" fill="black" fill-opacity="1"></circle>
<circle cx="81" cy="82.0" r="2.0" fill="black" fill-opacity="1"></circle>
</g>
<g transform="translate(50, 20)">
<text x="0" y="-15" dy="0.71em" dx="0" font-size="12">Basic Plot</text>
</g>
<g transform="translate(275, 106.66666666666667)">
</g>
</svg>
